font.ufo
<glyph name="exclam" format="2">
	<unicode hex="0021"/>
	<advance width="264"/>
	<outline>
		<contour>
			<point x="102" y="224" type="line"/>
			<point x="139" y="224" type="line"/>
			<point x="212" y="387"/>
			<point x="270" y="531"/>
			<point x="270" y="595" type="curve" smooth="yes"/>
			<point x="270" y="639"/>
			<point x="246" y="664"/>
			<point x="199" y="664" type="curve" smooth="yes"/>
			<point x="142" y="664"/>
			<point x="115" y="633"/>
			<point x="103" y="568" type="curve" smooth="yes"/>
			<point x="96" y="530"/>
			<point x="89" y="435"/>
			<point x="97" y="308" type="curve" smooth="yes"/>
		</contour>
		<contour>
			<point x="20" y="58" type="curve" smooth="yes"/>
			<point x="20" y="21"/>
			<point x="47" y="-13"/>
			<point x="91" y="-13" type="curve" smooth="yes"/>
			<point x="137" y="-13"/>
			<point x="180" y="24"/>
			<point x="180" y="73" type="curve" smooth="yes"/>
			<point x="180" y="111"/>
			<point x="152" y="145"/>
			<point x="109" y="145" type="curve" smooth="yes"/>
			<point x="63" y="145"/>
			<point x="20" y="106"/>
		</contour>
	</outline>
</glyph>
<glyph name="period" format="2">
	<unicode hex="002E"/>
	<advance width="256"/>
	<outline>
		<contour>
			<point x="83" y="-13" type="curve" smooth="yes"/>
			<point x="129" y="-13"/>
			<point x="172" y="24"/>
			<point x="172" y="73" type="curve" smooth="yes"/>
			<point x="172" y="111"/>
			<point x="144" y="145"/>
			<point x="101" y="145" type="curve" smooth="yes"/>
			<point x="55" y="145"/>
			<point x="12" y="106"/>
			<point x="12" y="58" type="curve" smooth="yes"/>
			<point x="12" y="21"/>
			<point x="39" y="-13"/>
		</contour>
	</outline>
</glyph>
<glyph name="less" format="2">
	<unicode hex="003C"/>
	<advance width="512"/>
	<outline>
		<contour>
			<point x="60" y="308" type="line"/>
			<point x="468" y="76" type="line"/>
			<point x="488" y="120" type="line"/>
			<point x="100" y="336" type="line"/>
			<point x="100" y="308" type="line"/>
			<point x="488" y="520" type="line"/>
			<point x="468" y="564" type="line"/>
			<point x="60" y="336" type="line"/>
		</contour>
	</outline>
</glyph>
<glyph name="question" format="2">
	<unicode hex="003F"/>
	<advance width="448"/>
	<outline>
		<contour>
			<point x="115" y="202" type="curve"/>
			<point x="149" y="196" type="line"/>
			<point x="153" y="226"/>
			<point x="159" y="247"/>
			<point x="175" y="263" type="curve" smooth="yes"/>
			<point x="202" y="289"/>
			<point x="243" y="315"/>
			<point x="346" y="362" type="curve" smooth="yes"/>
			<point x="427" y="399"/>
			<point x="474" y="452"/>
			<point x="474" y="532" type="curve" smooth="yes"/>
			<point x="474" y="621"/>
			<point x="395" y="672"/>
			<point x="290" y="672" type="curve" smooth="yes"/>
			<point x="186" y="672"/>
			<point x="97" y="620"/>
			<point x="87" y="532" type="curve"/>
			<point x="97" y="500"/>
			<point x="121" y="488"/>
			<point x="143" y="488" type="curve" smooth="yes"/>
			<point x="178" y="488"/>
			<point x="204" y="502"/>
			<point x="210" y="556" type="curve" smooth="yes"/>
			<point x="222" y="656" type="line"/>
			<point x="174" y="616" type="line"/>
			<point x="201" y="630"/>
			<point x="232" y="640"/>
			<point x="260" y="640" type="curve" smooth="yes"/>
			<point x="303" y="640"/>
			<point x="345" y="618"/>
			<point x="345" y="563" type="curve" smooth="yes"/>
			<point x="345" y="516"/>
			<point x="313" y="493"/>
			<point x="258" y="466" type="curve" smooth="yes"/>
			<point x="191" y="433"/>
			<point x="158" y="411"/>
			<point x="134" y="373" type="curve" smooth="yes"/>
			<point x="105" y="326"/>
			<point x="106" y="283"/>
		</contour>
		<contour>
			<point x="41" y="58" type="curve" smooth="yes"/>
			<point x="41" y="21"/>
			<point x="68" y="-13"/>
			<point x="112" y="-13" type="curve" smooth="yes"/>
			<point x="158" y="-13"/>
			<point x="201" y="24"/>
			<point x="201" y="73" type="curve" smooth="yes"/>
			<point x="201" y="111"/>
			<point x="173" y="145"/>
			<point x="130" y="145" type="curve" smooth="yes"/>
			<point x="84" y="145"/>
			<point x="41" y="106"/>
		</contour>
	</outline>
</glyph>
<glyph name="A" format="2">
	<unicode hex="0041"/>
	<advance width="600"/>
	<outline>
		<contour>
			<point x="-26" y="0" type="line"/>
			<point x="134" y="0" type="line"/>
			<point x="139" y="24" type="line"/>
			<point x="64" y="34" type="line"/>
			<point x="47" y="34" type="line"/>
			<point x="-21" y="24" type="line"/>
		</contour>
		<contour>
			<point x="22" y="0" type="line"/>
			<point x="56" y="0" type="line"/>
			<point x="300" y="504" type="line"/>
			<point x="294" y="504" type="line"/>
			<point x="349" y="0" type="line"/>
			<point x="509" y="0" type="line"/>
			<point x="426" y="652" type="line"/>
			<point x="346" y="652" type="line"/>
		</contour>
		<contour>
			<point x="136" y="208" type="line"/>
			<point x="432" y="208" type="line"/>
			<point x="413" y="238" type="line"/>
			<point x="157" y="238" type="line"/>
		</contour>
		<contour>
			<point x="273" y="0" type="line"/>
			<point x="557" y="0" type="line"/>
			<point x="562" y="24" type="line"/>
			<point x="480" y="40" type="line"/>
			<point x="388" y="40" type="line"/>
			<point x="278" y="24" type="line"/>
		</contour>
	</outline>
	<anchor name="aboveUC" x="380" y="672"/>
	<anchor name="belowLC" x="215" y="-20"/>
	<anchor name="ogonek" x="488" y="0"/>
</glyph>
<glyph name="B" format="2">
	<unicode hex="0042"/>
	<advance width="560"/>
	<outline>
		<contour>
			<point x="-10" y="0" type="line"/>
			<point x="173" y="0" type="line"/>
			<point x="174" y="40" type="line"/>
			<point x="98" y="40" type="line"/>
			<point x="-5" y="24" type="line"/>
		</contour>
		<contour>
			<point x="46" y="0" type="line"/>
			<point x="211" y="0" type="line"/>
			<point x="226" y="102"/>
			<point x="242" y="208"/>
			<point x="262" y="312" type="curve" smooth="yes"/>
			<point x="328" y="652" type="line"/>
			<point x="163" y="652" type="line"/>
			<point x="148" y="550"/>
			<point x="132" y="444"/>
			<point x="112" y="340" type="curve" smooth="yes"/>
		</contour>
		<contour>
			<point x="105" y="628" type="line"/>
			<point x="201" y="612" type="line"/>
			<point x="277" y="612" type="line"/>
			<point x="277" y="652" type="line"/>
			<point x="110" y="652" type="line"/>
		</contour>
		<contour>
			<point x="126" y="0" type="line"/>
			<point x="234" y="0" type="line" smooth="yes"/>
			<point x="496" y="0"/>
			<point x="538" y="123"/>
			<point x="538" y="204" type="curve" smooth="yes"/>
			<point x="538" y="288"/>
			<point x="458" y="344"/>
			<point x="313" y="345" type="curve"/>
			<point x="311" y="336" type="line"/>
			<point x="486" y="350"/>
			<point x="558" y="428"/>
			<point x="558" y="521" type="curve" smooth="yes"/>
			<point x="558" y="590"/>
			<point x="508" y="652"/>
			<point x="350" y="652" type="curve" smooth="yes"/>
			<point x="241" y="652" type="line"/>
			<point x="234" y="624" type="line"/>
			<point x="337" y="624" type="line" smooth="yes"/>
			<point x="390" y="624"/>
			<point x="413" y="582"/>
			<point x="413" y="526" type="curve" smooth="yes"/>
			<point x="413" y="415"/>
			<point x="357" y="353"/>
			<point x="287" y="353" type="curve" smooth="yes"/>
			<point x="189" y="353" type="line"/>
			<point x="183" y="323" type="line"/>
			<point x="280" y="323" type="line" smooth="yes"/>
			<point x="345" y="323"/>
			<point x="382" y="280"/>
			<point x="382" y="215" type="curve" smooth="yes"/>
			<point x="382" y="88"/>
			<point x="315" y="28"/>
			<point x="232" y="28" type="curve" smooth="yes"/>
			<point x="133" y="28" type="line"/>
		</contour>
	</outline>
	<anchor name="aboveUC" x="328" y="672"/>
	<anchor name="belowLC" x="271" y="-20"/>
</glyph>
<glyph name="J" format="2">
	<unicode hex="004A"/>
	<advance width="443"/>
	<outline>
		<contour>
			<point x="-37" y="14" type="curve"/>
			<point x="-36" y="-37"/>
			<point x="28" y="-60"/>
			<point x="78" y="-60" type="curve" smooth="yes"/>
			<point x="153" y="-60"/>
			<point x="195" y="-33"/>
			<point x="242" y="9" type="curve" smooth="yes"/>
			<point x="345" y="102"/>
			<point x="383" y="269"/>
			<point x="406" y="388" type="curve" smooth="yes"/>
			<point x="458" y="652" type="line"/>
			<point x="294" y="652" type="line"/>
			<point x="278" y="557"/>
			<point x="261" y="462"/>
			<point x="245" y="367" type="curve" smooth="yes"/>
			<point x="231" y="283"/>
			<point x="219" y="215"/>
			<point x="209" y="165" type="curve" smooth="yes"/>
			<point x="185" y="30"/>
			<point x="161" y="-3"/>
			<point x="126" y="-29" type="curve"/>
			<point x="126" y="-36" type="line"/>
			<point x="147" y="-36" type="line"/>
			<point x="147" y="-29" type="line"/>
			<point x="99" y="63"/>
			<point x="66" y="71"/>
			<point x="39" y="71" type="curve" smooth="yes"/>
			<point x="2" y="71"/>
			<point x="-28" y="47"/>
		</contour>
		<contour>
			<point x="218" y="628" type="line"/>
			<point x="331" y="612" type="line"/>
			<point x="407" y="612" type="line"/>
			<point x="511" y="628" type="line"/>
			<point x="516" y="652" type="line"/>
			<point x="223" y="652" type="line"/>
		</contour>
	</outline>
	<anchor name="aboveUC" x="368" y="672"/>
	<anchor name="belowLC" x="164" y="-80"/>
</glyph>
<glyph name="X" format="2">
	<unicode hex="0058"/>
	<advance width="589"/>
	<outline>
		<contour>
			<point x="-30" y="0" type="line"/>
			<point x="145" y="0" type="line"/>
			<point x="150" y="24" type="line"/>
			<point x="79" y="34" type="line"/>
			<point x="47" y="34" type="line"/>
			<point x="-25" y="24" type="line"/>
		</contour>
		<contour>
			<point x="17" y="0" type="line"/>
			<point x="53" y="0" type="line"/>
			<point x="278" y="295" type="line"/>
			<point x="297" y="319" type="line"/>
			<point x="322" y="319" type="line"/>
			<point x="288" y="346" type="line"/>
		</contour>
		<contour>
			<point x="89" y="628" type="line"/>
			<point x="179" y="612" type="line"/>
			<point x="263" y="612" type="line"/>
			<point x="377" y="628" type="line"/>
			<point x="382" y="652" type="line"/>
			<point x="94" y="652" type="line"/>
		</contour>
		<contour>
			<point x="261" y="0" type="line"/>
			<point x="549" y="0" type="line"/>
			<point x="554" y="24" type="line"/>
			<point x="464" y="40" type="line"/>
			<point x="380" y="40" type="line"/>
			<point x="266" y="24" type="line"/>
		</contour>
		<contour>
			<point x="341" y="319" type="line"/>
			<point x="595" y="652" type="line"/>
			<point x="558" y="652" type="line"/>
			<point x="355" y="376" type="line"/>
			<point x="334" y="348" type="line"/>
			<point x="311" y="348" type="line"/>
		</contour>
		<contour>
			<point x="461" y="628" type="line"/>
			<point x="532" y="618" type="line"/>
			<point x="564" y="618" type="line"/>
			<point x="637" y="628" type="line"/>
			<point x="642" y="652" type="line"/>
			<point x="466" y="652" type="line"/>
		</contour>
		<contour>
			<point x="345" y="0" type="line"/>
			<point x="509" y="0" type="line"/>
			<point x="298" y="652" type="line"/>
			<point x="134" y="652" type="line"/>
		</contour>
	</outline>
	<anchor name="aboveUC" x="411" y="672"/>
	<anchor name="belowLC" x="217" y="-20"/>
</glyph>
<glyph name="bracketleft" format="2">
	<unicode hex="005B"/>
	<advance width="360"/>
	<outline>
		<contour>
			<point x="44" y="-164" type="line"/>
			<point x="182" y="-164" type="line"/>
			<point x="193" y="-86"/>
			<point x="215" y="41"/>
			<point x="234" y="144" type="curve" smooth="yes"/>
			<point x="340" y="712" type="line"/>
			<point x="201" y="712" type="line"/>
			<point x="191" y="634"/>
			<point x="170" y="512"/>
			<point x="152" y="411" type="curve" smooth="yes"/>
		</contour>
		<contour>
			<point x="93" y="-164" type="line"/>
			<point x="257" y="-164" type="line"/>
			<point x="262" y="-140" type="line"/>
			<point x="153" y="-124" type="line"/>
			<point x="101" y="-124" type="line"/>
		</contour>
		<contour>
			<point x="249" y="672" type="line"/>
			<point x="300" y="672" type="line"/>
			<point x="415" y="688" type="line"/>
			<point x="419" y="712" type="line"/>
			<point x="256" y="712" type="line"/>
		</contour>
	</outline>
</glyph>
<glyph name="e" format="2">
	<unicode hex="0065"/>
	<advance width="432"/>
	<outline>
		<contour>
			<point x="185" y="-16" type="curve" smooth="yes"/>
			<point x="302" y="-16"/>
			<point x="358" y="41"/>
			<point x="401" y="137" type="curve"/>
			<point x="384" y="148" type="line"/>
			<point x="353" y="108"/>
			<point x="308" y="88"/>
			<point x="268" y="88" type="curve" smooth="yes"/>
			<point x="213" y="88"/>
			<point x="165" y="126"/>
			<point x="165" y="204" type="curve" smooth="yes"/>
			<point x="165" y="348"/>
			<point x="236" y="444"/>
			<point x="277" y="444" type="curve" smooth="yes"/>
			<point x="294" y="444"/>
			<point x="310" y="434"/>
			<point x="310" y="400" type="curve" smooth="yes"/>
			<point x="310" y="318"/>
			<point x="271" y="254"/>
			<point x="95" y="208" type="curve"/>
			<point x="95" y="188" type="line"/>
			<point x="312" y="232"/>
			<point x="432" y="287"/>
			<point x="432" y="384" type="curve" smooth="yes"/>
			<point x="432" y="439"/>
			<point x="383" y="476"/>
			<point x="305" y="476" type="curve" smooth="yes"/>
			<point x="132" y="476"/>
			<point x="18" y="316"/>
			<point x="18" y="168" type="curve" smooth="yes"/>
			<point x="18" y="48"/>
			<point x="91" y="-16"/>
		</contour>
	</outline>
	<anchor name="aboveLC" x="285" y="480"/>
	<anchor name="belowLC" x="191" y="-20"/>
	<anchor name="ogonek" x="272" y="0"/>
</glyph>
<glyph name="p" format="2">
	<unicode hex="0070"/>
	<advance width="518"/>
	<outline>
		<contour>
			<point x="-90" y="-240" type="line"/>
			<point x="196" y="-240" type="line"/>
			<point x="199" y="-218" type="line"/>
			<point x="108" y="-202" type="line"/>
			<point x="0" y="-202" type="line"/>
			<point x="-86" y="-218" type="line"/>
		</contour>
		<contour>
			<point x="-30" y="-240" type="line"/>
			<point x="119" y="-240" type="line"/>
			<point x="131" y="-171"/>
			<point x="150" y="-74"/>
			<point x="166" y="9" type="curve"/>
			<point x="171" y="27" type="line"/>
			<point x="241" y="355" type="line"/>
			<point x="243" y="364" type="line"/>
			<point x="264" y="464" type="line"/>
			<point x="248" y="476" type="line"/>
			<point x="42" y="420" type="line"/>
			<point x="38" y="402" type="line"/>
			<point x="118" y="378" type="line"/>
			<point x="99" y="393" type="line"/>
		</contour>
		<contour>
			<point x="196" y="-16" type="curve" smooth="yes"/>
			<point x="339" y="-16"/>
			<point x="504" y="196"/>
			<point x="504" y="348" type="curve" smooth="yes"/>
			<point x="504" y="439"/>
			<point x="449" y="476"/>
			<point x="394" y="476" type="curve" smooth="yes"/>
			<point x="312" y="476"/>
			<point x="252" y="394"/>
			<point x="222" y="342" type="curve"/>
			<point x="212" y="342" type="line"/>
			<point x="214" y="308" type="line"/>
			<point x="256" y="370"/>
			<point x="292" y="388"/>
			<point x="316" y="388" type="curve" smooth="yes"/>
			<point x="346" y="388"/>
			<point x="352" y="362"/>
			<point x="352" y="324" type="curve" smooth="yes"/>
			<point x="352" y="255"/>
			<point x="330" y="147"/>
			<point x="288" y="89" type="curve" smooth="yes"/>
			<point x="270" y="64"/>
			<point x="248" y="48"/>
			<point x="222" y="48" type="curve" smooth="yes"/>
			<point x="195" y="48"/>
			<point x="174" y="68"/>
			<point x="155" y="93" type="curve"/>
			<point x="60" y="52" type="line"/>
			<point x="86" y="9"/>
			<point x="141" y="-16"/>
		</contour>
	</outline>
	<anchor name="aboveLC" x="297" y="480"/>
	<anchor name="belowLC" x="48" y="-260"/>
</glyph>
<glyph name="w" format="2">
	<unicode hex="0077"/>
	<advance width="736"/>
	<outline>
		<contour>
			<point x="112" y="4" type="curve"/>
			<point x="128" y="-8" type="line"/>
			<point x="228" y="0" type="line"/>
			<point x="295" y="99"/>
			<point x="335" y="194"/>
			<point x="374" y="318" type="curve"/>
			<point x="362" y="319" type="line"/>
			<point x="370" y="214"/>
			<point x="378" y="109"/>
			<point x="386" y="4" type="curve"/>
			<point x="402" y="-8" type="line"/>
			<point x="484" y="0" type="line"/>
			<point x="580" y="98"/>
			<point x="645" y="201"/>
			<point x="692" y="284" type="curve" smooth="yes"/>
			<point x="714" y="322"/>
			<point x="732" y="364"/>
			<point x="732" y="406" type="curve" smooth="yes"/>
			<point x="732" y="426"/>
			<point x="727" y="446"/>
			<point x="717" y="466" type="curve"/>
			<point x="706" y="474"/>
			<point x="684" y="479"/>
			<point x="667" y="479" type="curve" smooth="yes"/>
			<point x="623" y="479"/>
			<point x="596" y="454"/>
			<point x="596" y="404" type="curve" smooth="yes"/>
			<point x="596" y="382"/>
			<point x="600" y="360"/>
			<point x="625" y="285" type="curve" smooth="yes"/>
			<point x="646" y="223" type="line"/>
			<point x="681" y="336" type="line"/>
			<point x="673" y="320"/>
			<point x="665" y="304"/>
			<point x="657" y="290" type="curve" smooth="yes"/>
			<point x="599" y="181"/>
			<point x="564" y="134"/>
			<point x="511" y="67" type="curve"/>
			<point x="532" y="61" type="line"/>
			<point x="523" y="191"/>
			<point x="513" y="322"/>
			<point x="504" y="452" type="curve"/>
			<point x="381" y="452" type="line"/>
			<point x="349" y="333"/>
			<point x="318" y="213"/>
			<point x="240" y="67" type="curve"/>
			<point x="253" y="66" type="line"/>
			<point x="257" y="189"/>
			<point x="247" y="294"/>
			<point x="241" y="366" type="curve" smooth="yes"/>
			<point x="235" y="432"/>
			<point x="218" y="476"/>
			<point x="148" y="476" type="curve" smooth="yes"/>
			<point x="88" y="476"/>
			<point x="40" y="440"/>
			<point x="0" y="336" type="curve"/>
			<point x="19" y="324" type="line"/>
			<point x="38" y="361"/>
			<point x="58" y="384"/>
			<point x="72" y="384" type="curve" smooth="yes"/>
			<point x="80" y="384"/>
			<point x="87" y="379"/>
			<point x="90" y="356" type="curve" smooth="yes"/>
			<point x="104" y="232"/>
			<point x="108" y="156"/>
		</contour>
	</outline>
	<anchor name="aboveLC" x="431" y="480"/>
	<anchor name="belowLC" x="321" y="-20"/>
</glyph>
<glyph name="x" format="2">
	<unicode hex="0078"/>
	<advance width="540"/>
	<outline>
		<contour>
			<point x="351" y="-16" type="curve" smooth="yes"/>
			<point x="423" y="-16"/>
			<point x="472" y="42"/>
			<point x="505" y="120" type="curve"/>
			<point x="486" y="132" type="line"/>
			<point x="463" y="93"/>
			<point x="443" y="72"/>
			<point x="428" y="72" type="curve" smooth="yes"/>
			<point x="416" y="72"/>
			<point x="410" y="79"/>
			<point x="402" y="104" type="curve" smooth="yes"/>
			<point x="340" y="294" type="line"/>
			<point x="337" y="302" type="line"/>
			<point x="308" y="389" type="line" smooth="yes"/>
			<point x="289" y="445"/>
			<point x="270" y="476"/>
			<point x="213" y="476" type="curve" smooth="yes"/>
			<point x="138" y="476"/>
			<point x="99" y="399"/>
			<point x="76" y="334" type="curve"/>
			<point x="95" y="325" type="line"/>
			<point x="115" y="368"/>
			<point x="129" y="380"/>
			<point x="140" y="380" type="curve" smooth="yes"/>
			<point x="149" y="380"/>
			<point x="153" y="374"/>
			<point x="160" y="352" type="curve" smooth="yes"/>
			<point x="219" y="173" type="line"/>
			<point x="221" y="167" type="line"/>
			<point x="253" y="68" type="line" smooth="yes"/>
			<point x="272" y="8"/>
			<point x="298" y="-16"/>
		</contour>
		<contour>
			<point x="-6" y="56" type="curve"/>
			<point x="2" y="6"/>
			<point x="38" y="-16"/>
			<point x="74" y="-16" type="curve" smooth="yes"/>
			<point x="124" y="-16"/>
			<point x="147" y="13"/>
			<point x="176" y="61" type="curve" smooth="yes"/>
			<point x="200" y="101"/>
			<point x="230" y="162"/>
			<point x="269" y="240" type="curve"/>
			<point x="262" y="264" type="line"/>
			<point x="223" y="199"/>
			<point x="188" y="136"/>
			<point x="149" y="72" type="curve" smooth="yes"/>
			<point x="144" y="64"/>
			<point x="140" y="59"/>
			<point x="134" y="53" type="curve"/>
			<point x="134" y="44" type="line"/>
			<point x="150" y="44" type="line"/>
			<point x="141" y="63" type="line" smooth="yes"/>
			<point x="123" y="101"/>
			<point x="100" y="119"/>
			<point x="67" y="119" type="curve" smooth="yes"/>
			<point x="30" y="119"/>
			<point x="-1" y="97"/>
		</contour>
		<contour>
			<point x="296" y="196" type="line"/>
			<point x="335" y="261"/>
			<point x="370" y="324"/>
			<point x="409" y="388" type="curve" smooth="yes"/>
			<point x="414" y="397"/>
			<point x="419" y="402"/>
			<point x="426" y="407" type="curve"/>
			<point x="426" y="416" type="line"/>
			<point x="408" y="416" type="line"/>
			<point x="417" y="397" type="line" smooth="yes"/>
			<point x="435" y="359"/>
			<point x="462" y="341"/>
			<point x="495" y="341" type="curve" smooth="yes"/>
			<point x="532" y="341"/>
			<point x="559" y="367"/>
			<point x="564" y="404" type="curve"/>
			<point x="556" y="454"/>
			<point x="520" y="476"/>
			<point x="484" y="476" type="curve" smooth="yes"/>
			<point x="434" y="476"/>
			<point x="411" y="447"/>
			<point x="382" y="399" type="curve" smooth="yes"/>
			<point x="358" y="359"/>
			<point x="328" y="298"/>
			<point x="289" y="220" type="curve"/>
		</contour>
	</outline>
	<anchor name="aboveLC" x="333" y="480"/>
	<anchor name="belowLC" x="207" y="-20"/>
</glyph>
<glyph name="y" format="2">
	<unicode hex="0079"/>
	<advance width="508"/>
	<outline>
		<contour>
			<point x="-132" y="-162" type="curve"/>
			<point x="-123" y="-213"/>
			<point x="-76" y="-240"/>
			<point x="-24" y="-240" type="curve" smooth="yes"/>
			<point x="40" y="-240"/>
			<point x="82" y="-207"/>
			<point x="124" y="-164" type="curve" smooth="yes"/>
			<point x="177" y="-108"/>
			<point x="239" y="-38"/>
			<point x="272" y="4" type="curve" smooth="yes"/>
			<point x="326" y="73"/>
			<point x="357" y="123"/>
			<point x="388" y="176" type="curve" smooth="yes"/>
			<point x="407" y="208"/>
			<point x="437" y="256"/>
			<point x="464" y="304" type="curve" smooth="yes"/>
			<point x="487" y="345"/>
			<point x="504" y="386"/>
			<point x="504" y="416" type="curve" smooth="yes"/>
			<point x="504" y="453"/>
			<point x="479" y="476"/>
			<point x="444" y="476" type="curve" smooth="yes"/>
			<point x="384" y="476"/>
			<point x="368" y="431"/>
			<point x="352" y="336" type="curve" smooth="yes"/>
			<point x="336" y="242"/>
			<point x="307" y="80"/>
			<point x="259" y="28" type="curve"/>
			<point x="226" y="-7"/>
			<point x="205" y="-37"/>
			<point x="172" y="-72" type="curve" smooth="yes"/>
			<point x="139" y="-109"/>
			<point x="94" y="-166"/>
			<point x="36" y="-197" type="curve"/>
			<point x="36" y="-207" type="line"/>
			<point x="56" y="-196" type="line"/>
			<point x="37" y="-173" type="line" smooth="yes"/>
			<point x="7" y="-137"/>
			<point x="-22" y="-108"/>
			<point x="-64" y="-108" type="curve" smooth="yes"/>
			<point x="-96" y="-108"/>
			<point x="-126" y="-126"/>
		</contour>
		<contour>
			<point x="282" y="24" type="line"/>
			<point x="276" y="24" type="line"/>
			<point x="276" y="126"/>
			<point x="258" y="282"/>
			<point x="245" y="366" type="curve" smooth="yes"/>
			<point x="235" y="432"/>
			<point x="218" y="476"/>
			<point x="148" y="476" type="curve" smooth="yes"/>
			<point x="88" y="476"/>
			<point x="40" y="440"/>
			<point x="0" y="336" type="curve"/>
			<point x="19" y="324" type="line"/>
			<point x="38" y="361"/>
			<point x="58" y="384"/>
			<point x="72" y="384" type="curve" smooth="yes"/>
			<point x="80" y="384"/>
			<point x="86" y="379"/>
			<point x="92" y="344" type="curve" smooth="yes"/>
			<point x="114" y="232"/>
			<point x="136" y="80"/>
			<point x="148" y="-104" type="curve"/>
		</contour>
	</outline>
	<anchor name="aboveLC" x="291" y="480"/>
	<anchor name="belowLC" x="72" y="-260"/>
</glyph>
<glyph name="copyright" format="2">
	<unicode hex="00A9"/>
	<advance width="740"/>
	<outline>
		<contour>
			<point x="343" y="-16" type="curve" smooth="yes"/>
			<point x="537" y="-16"/>
			<point x="732" y="139"/>
			<point x="732" y="381" type="curve" smooth="yes"/>
			<point x="732" y="557"/>
			<point x="601" y="668"/>
			<point x="438" y="668" type="curve" smooth="yes"/>
			<point x="244" y="668"/>
			<point x="49" y="515"/>
			<point x="49" y="273" type="curve" smooth="yes"/>
			<point x="49" y="97"/>
			<point x="180" y="-16"/>
		</contour>
		<contour>
			<point x="348" y="21" type="curve" smooth="yes"/>
			<point x="207" y="21"/>
			<point x="95" y="118"/>
			<point x="95" y="273" type="curve" smooth="yes"/>
			<point x="95" y="489"/>
			<point x="264" y="631"/>
			<point x="433" y="631" type="curve" smooth="yes"/>
			<point x="574" y="631"/>
			<point x="686" y="536"/>
			<point x="686" y="381" type="curve" smooth="yes"/>
			<point x="686" y="165"/>
			<point x="517" y="21"/>
		</contour>
		<contour>
			<point x="378" y="128" type="curve" smooth="yes"/>
			<point x="410" y="128"/>
			<point x="452" y="138"/>
			<point x="479" y="150" type="curve"/>
			<point x="503" y="259" type="line"/>
			<point x="487" y="259" type="line"/>
			<point x="412" y="143" type="line"/>
			<point x="437" y="158" type="line"/>
			<point x="421" y="152"/>
			<point x="404" y="148"/>
			<point x="385" y="148" type="curve" smooth="yes"/>
			<point x="339" y="148"/>
			<point x="319" y="204"/>
			<point x="319" y="269" type="curve" smooth="yes"/>
			<point x="319" y="389"/>
			<point x="370" y="516"/>
			<point x="446" y="516" type="curve" smooth="yes"/>
			<point x="463" y="516"/>
			<point x="478" y="513"/>
			<point x="491" y="506" type="curve"/>
			<point x="475" y="522" type="line"/>
			<point x="512" y="408" type="line"/>
			<point x="529" y="408" type="line"/>
			<point x="541" y="513" type="line"/>
			<point x="515" y="525"/>
			<point x="481" y="536"/>
			<point x="440" y="536" type="curve" smooth="yes"/>
			<point x="290" y="536"/>
			<point x="199" y="413"/>
			<point x="199" y="287" type="curve" smooth="yes"/>
			<point x="199" y="194"/>
			<point x="252" y="128"/>
		</contour>
	</outline>
</glyph>
<glyph name="three.sups" format="2">
	<unicode hex="00B3"/>
	<advance width="373"/>
	<outline>
		<contour>
			<point x="185" y="397" type="curve" smooth="yes"/>
			<point x="321" y="397"/>
			<point x="388" y="451"/>
			<point x="386" y="522" type="curve" smooth="yes"/>
			<point x="385" y="585"/>
			<point x="323" y="616"/>
			<point x="241" y="616" type="curve"/>
			<point x="236" y="613" type="line"/>
			<point x="347" y="613"/>
			<point x="416" y="657"/>
			<point x="415" y="723" type="curve" smooth="yes"/>
			<point x="414" y="776"/>
			<point x="366" y="820"/>
			<point x="261" y="820" type="curve" smooth="yes"/>
			<point x="191" y="820"/>
			<point x="122" y="793"/>
			<point x="117" y="729" type="curve"/>
			<point x="121" y="706"/>
			<point x="140" y="698"/>
			<point x="156" y="698" type="curve" smooth="yes"/>
			<point x="182" y="698"/>
			<point x="199" y="708"/>
			<point x="206" y="752" type="curve" smooth="yes"/>
			<point x="215" y="810" type="line"/>
			<point x="176" y="789" type="line"/>
			<point x="201" y="800"/>
			<point x="216" y="801"/>
			<point x="236" y="801" type="curve" smooth="yes"/>
			<point x="280" y="801"/>
			<point x="299" y="769"/>
			<point x="300" y="729" type="curve" smooth="yes"/>
			<point x="301" y="679"/>
			<point x="273" y="627"/>
			<point x="178" y="627" type="curve"/>
			<point x="173" y="602" type="line"/>
			<point x="234" y="602"/>
			<point x="258" y="568"/>
			<point x="259" y="521" type="curve" smooth="yes"/>
			<point x="260" y="472"/>
			<point x="228" y="416"/>
			<point x="168" y="416" type="curve" smooth="yes"/>
			<point x="162" y="416"/>
			<point x="147" y="417"/>
			<point x="136" y="421" type="curve"/>
			<point x="154" y="406" type="line"/>
			<point x="153" y="470" type="line" smooth="yes"/>
			<point x="152" y="513"/>
			<point x="131" y="526"/>
			<point x="105" y="526" type="curve" smooth="yes"/>
			<point x="86" y="526"/>
			<point x="69" y="515"/>
			<point x="62" y="496" type="curve"/>
			<point x="64" y="432"/>
			<point x="113" y="397"/>
		</contour>
	</outline>
</glyph>
<glyph name="germandbls" format="2">
	<unicode hex="00DF"/>
	<advance width="583"/>
	<outline>
		<contour>
			<point x="42" y="44" type="curve" smooth="yes"/>
			<point x="34" y="-9"/>
			<point x="27" y="-76"/>
			<point x="12" y="-129" type="curve" smooth="yes"/>
			<point x="2" y="-165"/>
			<point x="-11" y="-195"/>
			<point x="-30" y="-212" type="curve"/>
			<point x="-30" y="-219" type="line"/>
			<point x="14" y="-210" type="line"/>
			<point x="-17" y="-173" type="line" smooth="yes"/>
			<point x="-47" y="-137"/>
			<point x="-76" y="-108"/>
			<point x="-118" y="-108" type="curve" smooth="yes"/>
			<point x="-150" y="-108"/>
			<point x="-180" y="-126"/>
			<point x="-186" y="-162" type="curve"/>
			<point x="-177" y="-213"/>
			<point x="-130" y="-240"/>
			<point x="-58" y="-240" type="curve" smooth="yes"/>
			<point x="11" y="-240"/>
			<point x="64" y="-207"/>
			<point x="104" y="-159" type="curve" smooth="yes"/>
			<point x="150" y="-101"/>
			<point x="178" y="-23"/>
			<point x="190" y="44" type="curve" smooth="yes"/>
			<point x="215" y="184"/>
			<point x="237" y="354"/>
			<point x="259" y="517" type="curve" smooth="yes"/>
			<point x="276" y="638"/>
			<point x="320" y="707"/>
			<point x="378" y="707" type="curve" smooth="yes"/>
			<point x="414" y="707"/>
			<point x="434" y="674"/>
			<point x="434" y="629" type="curve" smooth="yes"/>
			<point x="434" y="558"/>
			<point x="400" y="518"/>
			<point x="364" y="488" type="curve" smooth="yes"/>
			<point x="322" y="454"/>
			<point x="277" y="427"/>
			<point x="277" y="360" type="curve" smooth="yes"/>
			<point x="277" y="310"/>
			<point x="311" y="263"/>
			<point x="345" y="217" type="curve" smooth="yes"/>
			<point x="381" y="171"/>
			<point x="417" y="126"/>
			<point x="417" y="84" type="curve" smooth="yes"/>
			<point x="417" y="50"/>
			<point x="398" y="16"/>
			<point x="361" y="16" type="curve" smooth="yes"/>
			<point x="341" y="16"/>
			<point x="321" y="24"/>
			<point x="301" y="24" type="curve"/>
			<point x="377" y="7" type="line"/>
			<point x="354" y="75" type="line" smooth="yes"/>
			<point x="338" y="121"/>
			<point x="319" y="136"/>
			<point x="286" y="136" type="curve" smooth="yes"/>
			<point x="257" y="136"/>
			<point x="236" y="117"/>
			<point x="233" y="87" type="curve"/>
			<point x="243" y="22"/>
			<point x="294" y="-16"/>
			<point x="377" y="-16" type="curve" smooth="yes"/>
			<point x="485" y="-16"/>
			<point x="553" y="54"/>
			<point x="553" y="136" type="curve" smooth="yes"/>
			<point x="553" y="206"/>
			<point x="513" y="259"/>
			<point x="475" y="307" type="curve" smooth="yes"/>
			<point x="439" y="351"/>
			<point x="405" y="391"/>
			<point x="405" y="436" type="curve" smooth="yes"/>
			<point x="405" y="479"/>
			<point x="436" y="506"/>
			<point x="469" y="526" type="curve" smooth="yes"/>
			<point x="510" y="550"/>
			<point x="558" y="571"/>
			<point x="558" y="631" type="curve" smooth="yes"/>
			<point x="558" y="694"/>
			<point x="510" y="735"/>
			<point x="382" y="735" type="curve" smooth="yes"/>
			<point x="242" y="735"/>
			<point x="122" y="654"/>
			<point x="94" y="440" type="curve" smooth="yes"/>
			<point x="77" y="311"/>
			<point x="61" y="168"/>
		</contour>
	</outline>
</glyph>
<glyph name="idieresis" format="2">
	<unicode hex="00EF"/>
	<advance width="292"/>
	<outline>
		<contour>
			<point x="133" y="554" type="curve" smooth="yes"/>
			<point x="169" y="554"/>
			<point x="205" y="581"/>
			<point x="205" y="629" type="curve" smooth="yes"/>
			<point x="205" y="663"/>
			<point x="178" y="684"/>
			<point x="146" y="684" type="curve" smooth="yes"/>
			<point x="110" y="684"/>
			<point x="73" y="657"/>
			<point x="73" y="610" type="curve" smooth="yes"/>
			<point x="73" y="574"/>
			<point x="102" y="554"/>
		</contour>
		<contour>
			<point x="307" y="554" type="curve" smooth="yes"/>
			<point x="343" y="554"/>
			<point x="379" y="581"/>
			<point x="379" y="629" type="curve" smooth="yes"/>
			<point x="379" y="663"/>
			<point x="352" y="684"/>
			<point x="320" y="684" type="curve" smooth="yes"/>
			<point x="284" y="684"/>
			<point x="247" y="657"/>
			<point x="247" y="610" type="curve" smooth="yes"/>
			<point x="247" y="574"/>
			<point x="276" y="554"/>
		</contour>
		<component base="dotlessi"/>
	</outline>
</glyph>
<glyph name="divide" format="2">
	<unicode hex="00F7"/>
	<advance width="512"/>
	<outline>
		<contour>
			<point x="274" y="84" type="curve" smooth="yes"/>
			<point x="308" y="84"/>
			<point x="336" y="108"/>
			<point x="336" y="146" type="curve" smooth="yes"/>
			<point x="336" y="184"/>
			<point x="308" y="208"/>
			<point x="274" y="208" type="curve" smooth="yes"/>
			<point x="240" y="208"/>
			<point x="212" y="184"/>
			<point x="212" y="146" type="curve" smooth="yes"/>
			<point x="212" y="108"/>
			<point x="240" y="84"/>
		</contour>
		<contour>
			<point x="274" y="432" type="curve" smooth="yes"/>
			<point x="308" y="432"/>
			<point x="336" y="456"/>
			<point x="336" y="494" type="curve" smooth="yes"/>
			<point x="336" y="532"/>
			<point x="308" y="556"/>
			<point x="274" y="556" type="curve" smooth="yes"/>
			<point x="240" y="556"/>
			<point x="212" y="532"/>
			<point x="212" y="494" type="curve" smooth="yes"/>
			<point x="212" y="456"/>
			<point x="240" y="432"/>
		</contour>
		<component base="minus"/>
	</outline>
</glyph>
<glyph name="dcroat" format="2">
	<unicode hex="0111"/>
	<advance width="541"/>
	<outline>
		<contour>
			<point x="356" y="-16" type="curve" smooth="yes"/>
			<point x="436" y="-16"/>
			<point x="495" y="47"/>
			<point x="528" y="108" type="curve"/>
			<point x="509" y="120" type="line"/>
			<point x="483" y="85"/>
			<point x="463" y="72"/>
			<point x="451" y="72" type="curve" smooth="yes"/>
			<point x="443" y="72"/>
			<point x="437" y="75"/>
			<point x="437" y="86" type="curve" smooth="yes"/>
			<point x="437" y="95"/>
			<point x="440" y="111"/>
			<point x="444" y="132" type="curve" smooth="yes"/>
			<point x="565" y="713" type="line"/>
			<point x="549" y="725" type="line"/>
			<point x="345" y="669" type="line"/>
			<point x="341" y="651" type="line"/>
			<point x="423" y="627" type="line"/>
			<point x="402" y="641" type="line"/>
			<point x="358" y="414" type="line"/>
			<point x="351" y="401" type="line"/>
			<point x="296" y="144" type="line"/>
			<point x="287" y="103" type="line" smooth="yes"/>
			<point x="283" y="85"/>
			<point x="280" y="65"/>
			<point x="280" y="50" type="curve" smooth="yes"/>
			<point x="280" y="10"/>
			<point x="309" y="-16"/>
		</contour>
		<contour>
			<point x="134" y="-16" type="curve" smooth="yes"/>
			<point x="216" y="-16"/>
			<point x="276" y="66"/>
			<point x="306" y="118" type="curve"/>
			<point x="311" y="118" type="line"/>
			<point x="314" y="152" type="line"/>
			<point x="272" y="90"/>
			<point x="236" y="72"/>
			<point x="212" y="72" type="curve" smooth="yes"/>
			<point x="182" y="72"/>
			<point x="176" y="98"/>
			<point x="176" y="136" type="curve" smooth="yes"/>
			<point x="176" y="209"/>
			<point x="202" y="309"/>
			<point x="253" y="365" type="curve" smooth="yes"/>
			<point x="271" y="384"/>
			<point x="292" y="396"/>
			<point x="315" y="396" type="curve" smooth="yes"/>
			<point x="338" y="396"/>
			<point x="359" y="376"/>
			<point x="378" y="351" type="curve"/>
			<point x="473" y="392" type="line"/>
			<point x="447" y="435"/>
			<point x="392" y="460"/>
			<point x="337" y="460" type="curve" smooth="yes"/>
			<point x="194" y="460"/>
			<point x="24" y="264"/>
			<point x="24" y="112" type="curve" smooth="yes"/>
			<point x="24" y="21"/>
			<point x="79" y="-16"/>
		</contour>
		<contour>
			<point x="250" y="542" type="line"/>
			<point x="578" y="542" type="line"/>
			<point x="583" y="570" type="line"/>
			<point x="255" y="570" type="line"/>
		</contour>
	</outline>
</glyph>
<glyph name="eogonek" format="2">
	<unicode hex="0119"/>
	<advance width="434"/>
	<outline>
		<contour>
			<point x="220" y="-228" type="curve" smooth="yes"/>
			<point x="276" y="-228"/>
			<point x="319" y="-198"/>
			<point x="348" y="-159" type="curve"/>
			<point x="340" y="-144" type="line"/>
			<point x="325" y="-150"/>
			<point x="309" y="-156"/>
			<point x="283" y="-156" type="curve" smooth="yes"/>
			<point x="242" y="-156"/>
			<point x="222" y="-136"/>
			<point x="222" y="-104" type="curve" smooth="yes"/>
			<point x="222" y="-65"/>
			<point x="251" y="-33"/>
			<point x="317" y="20" type="curve" smooth="yes"/>
			<point x="354" y="46"/>
			<point x="380" y="86"/>
			<point x="403" y="137" type="curve"/>
			<point x="386" y="148" type="line"/>
			<point x="355" y="108"/>
			<point x="310" y="88"/>
			<point x="270" y="88" type="curve" smooth="yes"/>
			<point x="215" y="88"/>
			<point x="167" y="126"/>
			<point x="167" y="204" type="curve" smooth="yes"/>
			<point x="167" y="348"/>
			<point x="238" y="444"/>
			<point x="279" y="444" type="curve" smooth="yes"/>
			<point x="296" y="444"/>
			<point x="312" y="434"/>
			<point x="312" y="400" type="curve" smooth="yes"/>
			<point x="312" y="318"/>
			<point x="273" y="254"/>
			<point x="97" y="208" type="curve"/>
			<point x="97" y="188" type="line"/>
			<point x="314" y="232"/>
			<point x="434" y="287"/>
			<point x="434" y="384" type="curve" smooth="yes"/>
			<point x="434" y="439"/>
			<point x="385" y="476"/>
			<point x="307" y="476" type="curve" smooth="yes"/>
			<point x="134" y="476"/>
			<point x="20" y="316"/>
			<point x="20" y="168" type="curve" smooth="yes"/>
			<point x="20" y="48"/>
			<point x="93" y="-16"/>
			<point x="187" y="-16" type="curve" smooth="yes"/>
			<point x="212" y="-16"/>
			<point x="237" y="-13"/>
			<point x="257" y="-6" type="curve"/>
			<point x="257" y="-7" type="line"/>
			<point x="187" y="-47"/>
			<point x="133" y="-86"/>
			<point x="133" y="-150" type="curve" smooth="yes"/>
			<point x="133" y="-196"/>
			<point x="165" y="-228"/>
		</contour>
	</outline>
	<anchor name="aboveLC" x="285" y="480"/>
	<anchor name="belowLC" x="191" y="-20"/>
</glyph>
<glyph name="lslash" format="2">
	<unicode hex="0142"/>
	<advance width="308"/>
	<outline>
		<contour>
			<point x="248" y="406" type="line"/>
			<point x="31" y="295" type="line"/>
			<point x="26" y="265" type="line"/>
			<point x="242" y="376" type="line"/>
		</contour>
		<contour>
			<point x="322" y="434" type="line"/>
			<point x="105" y="323" type="line"/>
			<point x="100" y="293" type="line"/>
			<point x="316" y="404" type="line"/>
		</contour>
		<component base="l" xOffset="12"/>
	</outline>
</glyph>
<glyph name="Uogonek" format="2">
	<unicode hex="0172"/>
	<advance width="596"/>
	<outline>
		<contour>
			<point x="80" y="164" type="curve" smooth="yes"/>
			<point x="80" y="20"/>
			<point x="168" y="-20"/>
			<point x="273" y="-20" type="curve" smooth="yes"/>
			<point x="301" y="-20"/>
			<point x="328" y="-17"/>
			<point x="352" y="-10" type="curve"/>
			<point x="352" y="-11" type="line"/>
			<point x="284" y="-49"/>
			<point x="233" y="-88"/>
			<point x="233" y="-150" type="curve" smooth="yes"/>
			<point x="233" y="-196"/>
			<point x="265" y="-228"/>
			<point x="320" y="-228" type="curve" smooth="yes"/>
			<point x="376" y="-228"/>
			<point x="419" y="-198"/>
			<point x="448" y="-159" type="curve"/>
			<point x="440" y="-144" type="line"/>
			<point x="425" y="-150"/>
			<point x="409" y="-156"/>
			<point x="383" y="-156" type="curve" smooth="yes"/>
			<point x="342" y="-156"/>
			<point x="322" y="-136"/>
			<point x="322" y="-104" type="curve" smooth="yes"/>
			<point x="322" y="-65"/>
			<point x="351" y="-33"/>
			<point x="417" y="20" type="curve" smooth="yes"/>
			<point x="475" y="63"/>
			<point x="511" y="142"/>
			<point x="534" y="268" type="curve" smooth="yes"/>
			<point x="605" y="652" type="line"/>
			<point x="573" y="652" type="line"/>
			<point x="499" y="253" type="line" smooth="yes"/>
			<point x="476" y="122"/>
			<point x="415" y="68"/>
			<point x="340" y="68" type="curve" smooth="yes"/>
			<point x="273" y="68"/>
			<point x="236" y="95"/>
			<point x="236" y="172" type="curve" smooth="yes"/>
			<point x="236" y="194"/>
			<point x="240" y="225"/>
			<point x="245" y="256" type="curve" smooth="yes"/>
			<point x="315" y="652" type="line"/>
			<point x="155" y="652" type="line"/>
			<point x="140" y="550"/>
			<point x="121" y="436"/>
			<point x="102" y="332" type="curve" smooth="yes"/>
			<point x="89" y="257" type="line" smooth="yes"/>
			<point x="83" y="224"/>
			<point x="80" y="190"/>
		</contour>
		<contour>
			<point x="95" y="628" type="line"/>
			<point x="192" y="612" type="line"/>
			<point x="268" y="612" type="line"/>
			<point x="371" y="628" type="line"/>
			<point x="375" y="652" type="line"/>
			<point x="99" y="652" type="line"/>
		</contour>
		<contour>
			<point x="503" y="628" type="line"/>
			<point x="573" y="617" type="line"/>
			<point x="591" y="617" type="line"/>
			<point x="661" y="628" type="line"/>
			<point x="665" y="652" type="line"/>
			<point x="507" y="652" type="line"/>
		</contour>
	</outline>
	<anchor name="aboveUC" x="400" y="672"/>
	<anchor name="belowLC" x="285" y="-20"/>
</glyph>
<glyph name="Uhorn" format="2">
	<unicode hex="01AF"/>
	<advance width="596"/>
	<outline>
		<contour>
			<point x="80" y="164" type="curve" smooth="yes"/>
			<point x="80" y="20"/>
			<point x="168" y="-20"/>
			<point x="273" y="-20" type="curve" smooth="yes"/>
			<point x="425" y="-20"/>
			<point x="496" y="62"/>
			<point x="534" y="268" type="curve" smooth="yes"/>
			<point x="605" y="652" type="line"/>
			<point x="573" y="652" type="line"/>
			<point x="499" y="253" type="line" smooth="yes"/>
			<point x="476" y="122"/>
			<point x="415" y="68"/>
			<point x="340" y="68" type="curve" smooth="yes"/>
			<point x="273" y="68"/>
			<point x="236" y="95"/>
			<point x="236" y="172" type="curve" smooth="yes"/>
			<point x="236" y="194"/>
			<point x="240" y="225"/>
			<point x="245" y="256" type="curve" smooth="yes"/>
			<point x="315" y="652" type="line"/>
			<point x="155" y="652" type="line"/>
			<point x="140" y="550"/>
			<point x="121" y="436"/>
			<point x="102" y="332" type="curve" smooth="yes"/>
			<point x="89" y="257" type="line" smooth="yes"/>
			<point x="83" y="224"/>
			<point x="80" y="190"/>
		</contour>
		<contour>
			<point x="566" y="617" type="line"/>
			<point x="650" y="617"/>
			<point x="727" y="651"/>
			<point x="727" y="742" type="curve" smooth="yes"/>
			<point x="727" y="757"/>
			<point x="723" y="777"/>
			<point x="720" y="786" type="curve"/>
			<point x="711" y="795"/>
			<point x="702" y="800"/>
			<point x="683" y="800" type="curve" smooth="yes"/>
			<point x="654" y="800"/>
			<point x="632" y="782"/>
			<point x="632" y="751" type="curve" smooth="yes"/>
			<point x="632" y="725"/>
			<point x="654" y="697"/>
			<point x="654" y="679" type="curve" smooth="yes"/>
			<point x="654" y="656"/>
			<point x="614" y="652"/>
			<point x="572" y="652" type="curve"/>
		</contour>
		<contour>
			<point x="95" y="628" type="line"/>
			<point x="192" y="612" type="line"/>
			<point x="268" y="612" type="line"/>
			<point x="371" y="628" type="line"/>
			<point x="375" y="652" type="line"/>
			<point x="99" y="652" type="line"/>
		</contour>
		<contour>
			<point x="503" y="628" type="line"/>
			<point x="573" y="617" type="line"/>
			<point x="591" y="617" type="line"/>
			<point x="595" y="652" type="line"/>
			<point x="507" y="652" type="line"/>
		</contour>
	</outline>
	<anchor name="aboveUC" x="400" y="672"/>
	<anchor name="belowLC" x="285" y="-20"/>
</glyph>
<glyph name="j.sups" format="2">
	<unicode hex="02B2"/>
	<advance width="207"/>
	<outline>
		<contour>
			<point x="202" y="762" type="curve" smooth="yes"/>
			<point x="239" y="762"/>
			<point x="268" y="788"/>
			<point x="267" y="824" type="curve" smooth="yes"/>
			<point x="267" y="853"/>
			<point x="245" y="874"/>
			<point x="212" y="874" type="curve" smooth="yes"/>
			<point x="175" y="874"/>
			<point x="145" y="849"/>
			<point x="146" y="814" type="curve" smooth="yes"/>
			<point x="146" y="781"/>
			<point x="173" y="762"/>
		</contour>
		<contour>
			<point x="-8" y="256" type="line"/>
			<point x="69" y="264"/>
			<point x="113" y="283"/>
			<point x="141" y="319" type="curve" smooth="yes"/>
			<point x="163" y="349"/>
			<point x="174" y="391"/>
			<point x="186" y="451" type="curve" smooth="yes"/>
			<point x="239" y="709" type="line"/>
			<point x="227" y="717" type="line"/>
			<point x="76" y="680" type="line"/>
			<point x="73" y="667" type="line"/>
			<point x="125" y="651" type="line"/>
			<point x="112" y="660" type="line"/>
			<point x="67" y="428" type="line" smooth="yes"/>
			<point x="54" y="364"/>
			<point x="47" y="328"/>
			<point x="37" y="307" type="curve" smooth="yes"/>
			<point x="28" y="288"/>
			<point x="11" y="279"/>
			<point x="-12" y="270" type="curve"/>
		</contour>
	</outline>
</glyph>
<glyph name="l.sups" format="2">
	<unicode hex="02E1"/>
	<advance width="203"/>
	<outline>
		<contour>
			<point x="125" y="397" type="curve" smooth="yes"/>
			<point x="183" y="397"/>
			<point x="224" y="439"/>
			<point x="246" y="479" type="curve"/>
			<point x="232" y="488" type="line"/>
			<point x="215" y="465"/>
			<point x="205" y="459"/>
			<point x="198" y="459" type="curve" smooth="yes"/>
			<point x="185" y="459"/>
			<point x="186" y="469"/>
			<point x="192" y="496" type="curve" smooth="yes"/>
			<point x="268" y="863" type="line"/>
			<point x="256" y="872" type="line"/>
			<point x="103" y="834" type="line"/>
			<point x="101" y="822" type="line"/>
			<point x="156" y="805" type="line"/>
			<point x="137" y="813" type="line"/>
			<point x="78" y="507" type="line" smooth="yes"/>
			<point x="75" y="495"/>
			<point x="67" y="463"/>
			<point x="67" y="443" type="curve" smooth="yes"/>
			<point x="68" y="415"/>
			<point x="89" y="397"/>
		</contour>
	</outline>
</glyph>
<glyph name="x.sups" format="2">
	<unicode hex="02E3"/>
	<advance width="386"/>
	<outline>
		<contour>
			<point x="229" y="452" type="line" smooth="yes"/>
			<point x="243" y="414"/>
			<point x="262" y="397"/>
			<point x="301" y="397" type="curve" smooth="yes"/>
			<point x="355" y="397"/>
			<point x="389" y="435"/>
			<point x="411" y="487" type="curve"/>
			<point x="397" y="495" type="line"/>
			<point x="382" y="470"/>
			<point x="370" y="459"/>
			<point x="361" y="459" type="curve" smooth="yes"/>
			<point x="354" y="459"/>
			<point x="350" y="460"/>
			<point x="344" y="476" type="curve" smooth="yes"/>
			<point x="296" y="602" type="line"/>
			<point x="293" y="607" type="line"/>
			<point x="272" y="661" type="line" smooth="yes"/>
			<point x="258" y="696"/>
			<point x="243" y="717"/>
			<point x="201" y="717" type="curve" smooth="yes"/>
			<point x="144" y="717"/>
			<point x="117" y="663"/>
			<point x="103" y="623" type="curve"/>
			<point x="117" y="617" type="line"/>
			<point x="129" y="643"/>
			<point x="137" y="650"/>
			<point x="145" y="650" type="curve" smooth="yes"/>
			<point x="150" y="650"/>
			<point x="153" y="647"/>
			<point x="158" y="635" type="curve" smooth="yes"/>
			<point x="203" y="517" type="line"/>
			<point x="205" y="514" type="line"/>
		</contour>
		<contour>
			<point x="48" y="444" type="curve"/>
			<point x="54" y="412"/>
			<point x="79" y="397"/>
			<point x="106" y="397" type="curve" smooth="yes"/>
			<point x="143" y="397"/>
			<point x="159" y="418"/>
			<point x="180" y="451" type="curve" smooth="yes"/>
			<point x="195" y="477"/>
			<point x="215" y="517"/>
			<point x="241" y="566" type="curve"/>
			<point x="236" y="582" type="line"/>
			<point x="210" y="544"/>
			<point x="186" y="503"/>
			<point x="159" y="458" type="curve" smooth="yes"/>
			<point x="156" y="453"/>
			<point x="155" y="451"/>
			<point x="153" y="449" type="curve"/>
			<point x="153" y="441" type="line"/>
			<point x="164" y="441" type="line"/>
			<point x="159" y="451" type="line" smooth="yes"/>
			<point x="146" y="476"/>
			<point x="128" y="488"/>
			<point x="103" y="488" type="curve" smooth="yes"/>
			<point x="75" y="488"/>
			<point x="51" y="473"/>
		</contour>
		<contour>
			<point x="263" y="532" type="line"/>
			<point x="288" y="571"/>
			<point x="312" y="612"/>
			<point x="339" y="657" type="curve" smooth="yes"/>
			<point x="342" y="662"/>
			<point x="343" y="664"/>
			<point x="347" y="668" type="curve"/>
			<point x="347" y="673" type="line"/>
			<point x="334" y="673" type="line"/>
			<point x="339" y="664" type="line" smooth="yes"/>
			<point x="353" y="638"/>
			<point x="374" y="626"/>
			<point x="398" y="626" type="curve" smooth="yes"/>
			<point x="427" y="626"/>
			<point x="447" y="645"/>
			<point x="450" y="671" type="curve"/>
			<point x="444" y="703"/>
			<point x="419" y="717"/>
			<point x="393" y="717" type="curve" smooth="yes"/>
			<point x="355" y="717"/>
			<point x="339" y="697"/>
			<point x="319" y="664" type="curve" smooth="yes"/>
			<point x="303" y="637"/>
			<point x="283" y="597"/>
			<point x="257" y="548" type="curve"/>
		</contour>
	</outline>
</glyph>
<glyph name="Theta" format="2">
	<unicode hex="0398"/>
	<advance width="656"/>
	<outline>
		<contour>
			<point x="242" y="228" type="line"/>
			<point x="264" y="228" type="line"/>
			<point x="323" y="320" type="line"/>
			<point x="326" y="336" type="line"/>
			<point x="301" y="428" type="line"/>
			<point x="279" y="428" type="line"/>
		</contour>
		<contour>
			<point x="404" y="228" type="line"/>
			<point x="422" y="228" type="line"/>
			<point x="459" y="428" type="line"/>
			<point x="441" y="428" type="line"/>
			<point x="378" y="336" type="line"/>
			<point x="375" y="320" type="line"/>
		</contour>
		<contour>
			<point x="287" y="-16" type="curve" smooth="yes"/>
			<point x="531" y="-16"/>
			<point x="654" y="210"/>
			<point x="654" y="418" type="curve" smooth="yes"/>
			<point x="654" y="586"/>
			<point x="553" y="668"/>
			<point x="409" y="668" type="curve" smooth="yes"/>
			<point x="165" y="668"/>
			<point x="42" y="442"/>
			<point x="42" y="234" type="curve" smooth="yes"/>
			<point x="42" y="66"/>
			<point x="143" y="-16"/>
		</contour>
		<contour>
			<point x="292" y="12" type="curve" smooth="yes"/>
			<point x="227" y="12"/>
			<point x="198" y="73"/>
			<point x="198" y="174" type="curve" smooth="yes"/>
			<point x="198" y="348"/>
			<point x="276" y="640"/>
			<point x="404" y="640" type="curve" smooth="yes"/>
			<point x="469" y="640"/>
			<point x="498" y="579"/>
			<point x="498" y="478" type="curve" smooth="yes"/>
			<point x="498" y="304"/>
			<point x="420" y="12"/>
		</contour>
		<contour>
			<point x="288" y="288" type="line"/>
			<point x="396" y="288" type="line"/>
			<point x="413" y="370" type="line"/>
			<point x="305" y="370" type="line"/>
		</contour>
	</outline>
</glyph>
<glyph name="Sigma" format="2">
	<unicode hex="03A3"/>
	<advance width="529"/>
	<outline>
		<contour>
			<point x="-14" y="0" type="line"/>
			<point x="450" y="0" type="line"/>
			<point x="508" y="240" type="line"/>
			<point x="484" y="240" type="line"/>
			<point x="370" y="80" type="line"/>
			<point x="422" y="120" type="line"/>
			<point x="102" y="120" type="line"/>
			<point x="103" y="105" type="line"/>
			<point x="358" y="366" type="line"/>
			<point x="269" y="626" type="line"/>
			<point x="269" y="652" type="line"/>
			<point x="110" y="652" type="line"/>
			<point x="106" y="628" type="line"/>
			<point x="231" y="265" type="line"/>
			<point x="265" y="312" type="line"/>
			<point x="-9" y="32" type="line"/>
		</contour>
		<contour>
			<point x="507" y="476" type="line"/>
			<point x="531" y="476" type="line"/>
			<point x="551" y="652" type="line"/>
			<point x="230" y="652" type="line"/>
			<point x="225" y="624" type="line"/>
			<point x="486" y="624" type="line"/>
			<point x="455" y="640" type="line"/>
		</contour>
	</outline>
</glyph>
<glyph name="Phi" format="2">
	<unicode hex="03A6"/>
	<advance width="724"/>
	<outline>
		<contour>
			<point x="304" y="112" type="curve"/>
			<point x="284" y="136" type="line"/>
			<point x="232" y="136"/>
			<point x="198" y="186"/>
			<point x="198" y="268" type="curve" smooth="yes"/>
			<point x="198" y="413"/>
			<point x="270" y="536"/>
			<point x="356" y="536" type="curve"/>
			<point x="376" y="560" type="line"/>
			<point x="163" y="560"/>
			<point x="46" y="444"/>
			<point x="46" y="288" type="curve" smooth="yes"/>
			<point x="46" y="171"/>
			<point x="141" y="112"/>
		</contour>
		<contour>
			<point x="186" y="0" type="line"/>
			<point x="461" y="0" type="line"/>
			<point x="466" y="24" type="line"/>
			<point x="366" y="40" type="line"/>
			<point x="294" y="40" type="line"/>
			<point x="191" y="24" type="line"/>
		</contour>
		<contour>
			<point x="242" y="0" type="line"/>
			<point x="403" y="0" type="line"/>
			<point x="418" y="102"/>
			<point x="434" y="208"/>
			<point x="454" y="312" type="curve" smooth="yes"/>
			<point x="521" y="664" type="line"/>
			<point x="360" y="664" type="line"/>
			<point x="345" y="562"/>
			<point x="329" y="452"/>
			<point x="309" y="348" type="curve" smooth="yes"/>
		</contour>
		<contour>
			<point x="298" y="640" type="line"/>
			<point x="398" y="624" type="line"/>
			<point x="470" y="624" type="line"/>
			<point x="574" y="640" type="line"/>
			<point x="579" y="664" type="line"/>
			<point x="303" y="664" type="line"/>
		</contour>
		<contour>
			<point x="388" y="112" type="line"/>
			<point x="601" y="112"/>
			<point x="718" y="228"/>
			<point x="718" y="384" type="curve" smooth="yes"/>
			<point x="718" y="501"/>
			<point x="623" y="560"/>
			<point x="460" y="560" type="curve"/>
			<point x="480" y="536" type="line"/>
			<point x="532" y="536"/>
			<point x="566" y="486"/>
			<point x="566" y="404" type="curve" smooth="yes"/>
			<point x="566" y="259"/>
			<point x="494" y="136"/>
			<point x="408" y="136" type="curve"/>
		</contour>
	</outline>
</glyph>
<glyph name="delta" format="2">
	<unicode hex="03B4"/>
	<advance width="492"/>
	<outline>
		<contour>
			<point x="201" y="-16" type="curve" smooth="yes"/>
			<point x="340" y="-16"/>
			<point x="466" y="80"/>
			<point x="466" y="255" type="curve" smooth="yes"/>
			<point x="466" y="358"/>
			<point x="406" y="419"/>
			<point x="347" y="471" type="curve" smooth="yes"/>
			<point x="287" y="524"/>
			<point x="240" y="566"/>
			<point x="240" y="610" type="curve" smooth="yes"/>
			<point x="240" y="668"/>
			<point x="273" y="693"/>
			<point x="326" y="693" type="curve" smooth="yes"/>
			<point x="346" y="693"/>
			<point x="373" y="684"/>
			<point x="383" y="677" type="curve"/>
			<point x="387" y="697" type="line"/>
			<point x="339" y="701" type="line"/>
			<point x="382" y="605" type="line" smooth="yes"/>
			<point x="398" y="570"/>
			<point x="426" y="554"/>
			<point x="452" y="554" type="curve" smooth="yes"/>
			<point x="480" y="554"/>
			<point x="506" y="572"/>
			<point x="515" y="605" type="curve"/>
			<point x="510" y="664"/>
			<point x="442" y="721"/>
			<point x="327" y="721" type="curve" smooth="yes"/>
			<point x="191" y="721"/>
			<point x="119" y="649"/>
			<point x="119" y="557" type="curve" smooth="yes"/>
			<point x="119" y="482"/>
			<point x="170" y="430"/>
			<point x="222" y="384" type="curve" smooth="yes"/>
			<point x="269" y="342"/>
			<point x="317" y="300"/>
			<point x="317" y="229" type="curve" smooth="yes"/>
			<point x="317" y="169"/>
			<point x="290" y="12"/>
			<point x="210" y="12" type="curve" smooth="yes"/>
			<point x="178" y="12"/>
			<point x="157" y="39"/>
			<point x="157" y="108" type="curve" smooth="yes"/>
			<point x="157" y="244"/>
			<point x="212" y="340"/>
			<point x="266" y="364" type="curve"/>
			<point x="246" y="397" type="line"/>
			<point x="246" y="385" type="line"/>
			<point x="122" y="372"/>
			<point x="14" y="288"/>
			<point x="14" y="140" type="curve" smooth="yes"/>
			<point x="14" y="60"/>
			<point x="60" y="-16"/>
		</contour>
	</outline>
</glyph>
<glyph name="mu" format="2">
	<unicode hex="03BC"/>
	<unicode hex="00B5"/>
	<advance width="564"/>
	<outline>
		<contour>
			<point x="8" y="-212" type="line"/>
			<point x="166" y="-182" type="line"/>
			<point x="176" y="69" type="line"/>
			<point x="196" y="89" type="line"/>
			<point x="221" y="214"/>
			<point x="247" y="339"/>
			<point x="272" y="464" type="curve"/>
			<point x="259" y="476" type="line"/>
			<point x="98" y="436" type="line"/>
			<point x="57" y="38" type="line"/>
			<point x="-6" y="-200" type="line"/>
		</contour>
		<contour>
			<point x="217" y="-15" type="curve" smooth="yes"/>
			<point x="265" y="-15"/>
			<point x="320" y="24"/>
			<point x="341" y="101" type="curve"/>
			<point x="351" y="101" type="line"/>
			<point x="337" y="111" type="line"/>
			<point x="316" y="82"/>
			<point x="280" y="72"/>
			<point x="254" y="72" type="curve" smooth="yes"/>
			<point x="227" y="72"/>
			<point x="198" y="86"/>
			<point x="192" y="115" type="curve"/>
			<point x="122" y="71" type="line"/>
			<point x="130" y="11"/>
			<point x="183" y="-15"/>
		</contour>
		<contour>
			<point x="410" y="-16" type="curve" smooth="yes"/>
			<point x="465" y="-16"/>
			<point x="513" y="16"/>
			<point x="546" y="68" type="curve"/>
			<point x="535" y="84" type="line"/>
			<point x="525" y="77"/>
			<point x="507" y="68"/>
			<point x="494" y="68" type="curve" smooth="yes"/>
			<point x="474" y="68"/>
			<point x="469" y="79"/>
			<point x="469" y="103" type="curve" smooth="yes"/>
			<point x="469" y="112"/>
			<point x="470" y="132"/>
			<point x="476" y="160" type="curve" smooth="yes"/>
			<point x="546" y="464" type="line"/>
			<point x="534" y="476" type="line"/>
			<point x="374" y="436" type="line"/>
			<point x="326" y="95" type="line"/>
			<point x="327" y="95" type="line" smooth="yes"/>
			<point x="326" y="90"/>
			<point x="326" y="87"/>
			<point x="326" y="83" type="curve" smooth="yes"/>
			<point x="326" y="24"/>
			<point x="360" y="-16"/>
		</contour>
	</outline>
</glyph>
<glyph name="xi" format="2">
	<unicode hex="03BE"/>
	<advance width="416"/>
	<outline>
		<contour>
			<point x="228" y="-204" type="line"/>
			<point x="311" y="-142"/>
			<point x="370" y="-87"/>
			<point x="370" y="-2" type="curve" smooth="yes"/>
			<point x="370" y="65"/>
			<point x="326" y="91"/>
			<point x="240" y="120" type="curve" smooth="yes"/>
			<point x="188" y="139"/>
			<point x="157" y="155"/>
			<point x="157" y="202" type="curve" smooth="yes"/>
			<point x="157" y="281"/>
			<point x="245" y="304"/>
			<point x="331" y="304" type="curve" smooth="yes"/>
			<point x="375" y="304" type="line"/>
			<point x="399" y="436" type="line"/>
			<point x="378" y="434"/>
			<point x="355" y="432"/>
			<point x="331" y="432" type="curve" smooth="yes"/>
			<point x="260" y="432"/>
			<point x="226" y="458"/>
			<point x="226" y="494" type="curve" smooth="yes"/>
			<point x="226" y="550"/>
			<point x="278" y="596"/>
			<point x="447" y="605" type="curve"/>
			<point x="467" y="717" type="line"/>
			<point x="106" y="733" type="line"/>
			<point x="81" y="597" type="line"/>
			<point x="415" y="609" type="line"/>
			<point x="311" y="609" type="line"/>
			<point x="181" y="588"/>
			<point x="95" y="525"/>
			<point x="95" y="432" type="curve" smooth="yes"/>
			<point x="95" y="391"/>
			<point x="119" y="338"/>
			<point x="209" y="316" type="curve"/>
			<point x="222" y="320" type="line"/>
			<point x="112" y="303"/>
			<point x="14" y="250"/>
			<point x="14" y="139" type="curve" smooth="yes"/>
			<point x="14" y="58"/>
			<point x="75" y="20"/>
			<point x="142" y="-4" type="curve" smooth="yes"/>
			<point x="231" y="-34"/>
			<point x="252" y="-53"/>
			<point x="252" y="-79" type="curve" smooth="yes"/>
			<point x="252" y="-106"/>
			<point x="232" y="-147"/>
			<point x="207" y="-185" type="curve"/>
		</contour>
	</outline>
</glyph>
<glyph name="pi" format="2">
	<unicode hex="03C0"/>
	<advance width="608"/>
	<outline>
		<contour>
			<point x="75" y="-16" type="curve" smooth="yes"/>
			<point x="144" y="-16"/>
			<point x="176" y="25"/>
			<point x="191" y="93" type="curve" smooth="yes"/>
			<point x="221" y="228"/>
			<point x="237" y="322"/>
			<point x="249" y="388" type="curve"/>
			<point x="209" y="388" type="line"/>
			<point x="189" y="313"/>
			<point x="145" y="159"/>
			<point x="113" y="84" type="curve"/>
			<point x="148" y="110" type="line"/>
			<point x="187" y="140" type="line"/>
			<point x="136" y="132"/>
			<point x="85" y="124"/>
			<point x="34" y="116" type="curve"/>
			<point x="13" y="93"/>
			<point x="2" y="77"/>
			<point x="2" y="42" type="curve" smooth="yes"/>
			<point x="2" y="8"/>
			<point x="32" y="-16"/>
		</contour>
		<contour>
			<point x="43" y="312" type="line"/>
			<point x="211" y="332" type="line"/>
			<point x="423" y="332" type="line"/>
			<point x="590" y="324" type="line"/>
			<point x="614" y="460" type="line"/>
			<point x="295" y="460" type="line" smooth="yes"/>
			<point x="156" y="460"/>
			<point x="93" y="428"/>
			<point x="38" y="380" type="curve"/>
		</contour>
		<contour>
			<point x="398" y="-16" type="curve" smooth="yes"/>
			<point x="479" y="-16"/>
			<point x="542" y="54"/>
			<point x="558" y="92" type="curve"/>
			<point x="545" y="104" type="line"/>
			<point x="524" y="88"/>
			<point x="506" y="76"/>
			<point x="484" y="76" type="curve" smooth="yes"/>
			<point x="467" y="76"/>
			<point x="453" y="85"/>
			<point x="453" y="112" type="curve" smooth="yes"/>
			<point x="453" y="127"/>
			<point x="445" y="135"/>
			<point x="474" y="361" type="curve"/>
			<point x="369" y="361" type="line"/>
			<point x="342" y="271"/>
			<point x="299" y="141"/>
			<point x="299" y="74" type="curve" smooth="yes"/>
			<point x="299" y="7"/>
			<point x="347" y="-16"/>
		</contour>
	</outline>
</glyph>
<glyph name="rho" format="2">
	<unicode hex="03C1"/>
	<advance width="536"/>
	<outline>
		<contour>
			<point x="-12" y="-212" type="line"/>
			<point x="159" y="-184" type="line"/>
			<point x="184" y="72" type="line"/>
			<point x="188" y="72" type="line"/>
			<point x="223" y="280" type="line" smooth="yes"/>
			<point x="243" y="398"/>
			<point x="277" y="448"/>
			<point x="317" y="448" type="curve" smooth="yes"/>
			<point x="350" y="448"/>
			<point x="363" y="396"/>
			<point x="363" y="324" type="curve" smooth="yes"/>
			<point x="363" y="265"/>
			<point x="345" y="64"/>
			<point x="243" y="64" type="curve" smooth="yes"/>
			<point x="213" y="64"/>
			<point x="199" y="73"/>
			<point x="181" y="92" type="curve"/>
			<point x="179" y="78" type="line"/>
			<point x="193" y="16"/>
			<point x="251" y="-16"/>
			<point x="313" y="-16" type="curve" smooth="yes"/>
			<point x="467" y="-16"/>
			<point x="514" y="154"/>
			<point x="514" y="268" type="curve" smooth="yes"/>
			<point x="514" y="382"/>
			<point x="450" y="476"/>
			<point x="320" y="476" type="curve" smooth="yes"/>
			<point x="170" y="476"/>
			<point x="94" y="382"/>
			<point x="57" y="200" type="curve" smooth="yes"/>
			<point x="-26" y="-200" type="line"/>
		</contour>
	</outline>
	<anchor name="aboveLC" x="319" y="480"/>
</glyph>
<glyph name="sigma.end" format="2">
	<unicode hex="03C2"/>
	<advance width="440"/>
	<outline>
		<contour>
			<point x="210" y="-185" type="curve"/>
			<point x="231" y="-204" type="line"/>
			<point x="313" y="-143"/>
			<point x="374" y="-89"/>
			<point x="374" y="-6" type="curve" smooth="yes"/>
			<point x="374" y="65"/>
			<point x="326" y="87"/>
			<point x="242" y="121" type="curve" smooth="yes"/>
			<point x="188" y="143"/>
			<point x="157" y="176"/>
			<point x="157" y="249" type="curve" smooth="yes"/>
			<point x="157" y="324"/>
			<point x="207" y="419"/>
			<point x="291" y="444" type="curve"/>
			<point x="243" y="444" type="line"/>
			<point x="283" y="388" type="line" smooth="yes"/>
			<point x="309" y="351"/>
			<point x="336" y="336"/>
			<point x="367" y="336" type="curve" smooth="yes"/>
			<point x="409" y="336"/>
			<point x="440" y="368"/>
			<point x="442" y="412" type="curve"/>
			<point x="413" y="449"/>
			<point x="373" y="472"/>
			<point x="303" y="472" type="curve" smooth="yes"/>
			<point x="133" y="472"/>
			<point x="18" y="320"/>
			<point x="18" y="178" type="curve" smooth="yes"/>
			<point x="18" y="100"/>
			<point x="55" y="33"/>
			<point x="144" y="-3" type="curve" smooth="yes"/>
			<point x="223" y="-35"/>
			<point x="256" y="-49"/>
			<point x="256" y="-83" type="curve" smooth="yes"/>
			<point x="256" y="-110"/>
			<point x="235" y="-145"/>
		</contour>
	</outline>
</glyph>
<glyph name="upsilon" format="2">
	<unicode hex="03C5"/>
	<advance width="484"/>
	<outline>
		<contour>
			<point x="207" y="-16" type="curve" smooth="yes"/>
			<point x="448" y="-16"/>
			<point x="466" y="247"/>
			<point x="466" y="391" type="curve" smooth="yes"/>
			<point x="466" y="413"/>
			<point x="465" y="435"/>
			<point x="461" y="456" type="curve"/>
			<point x="449" y="470"/>
			<point x="433" y="476"/>
			<point x="415" y="476" type="curve" smooth="yes"/>
			<point x="370" y="476"/>
			<point x="344" y="441"/>
			<point x="344" y="401" type="curve" smooth="yes"/>
			<point x="344" y="348"/>
			<point x="385" y="290"/>
			<point x="434" y="206" type="curve"/>
			<point x="432" y="244" type="line"/>
			<point x="429" y="296" type="line"/>
			<point x="424" y="265"/>
			<point x="419" y="239"/>
			<point x="415" y="220" type="curve" smooth="yes"/>
			<point x="393" y="98"/>
			<point x="331" y="56"/>
			<point x="273" y="56" type="curve" smooth="yes"/>
			<point x="226" y="56"/>
			<point x="194" y="77"/>
			<point x="194" y="137" type="curve" smooth="yes"/>
			<point x="194" y="222"/>
			<point x="245" y="339"/>
			<point x="245" y="392" type="curve" smooth="yes"/>
			<point x="245" y="448"/>
			<point x="212" y="476"/>
			<point x="158" y="476" type="curve" smooth="yes"/>
			<point x="103" y="476"/>
			<point x="54" y="452"/>
			<point x="18" y="396" type="curve"/>
			<point x="29" y="380" type="line"/>
			<point x="38" y="387"/>
			<point x="53" y="392"/>
			<point x="68" y="392" type="curve" smooth="yes"/>
			<point x="82" y="392"/>
			<point x="92" y="385"/>
			<point x="92" y="367" type="curve" smooth="yes"/>
			<point x="92" y="316"/>
			<point x="41" y="200"/>
			<point x="41" y="116" type="curve" smooth="yes"/>
			<point x="41" y="23"/>
			<point x="113" y="-16"/>
		</contour>
	</outline>
	<anchor name="aboveLC" x="289" y="480"/>
</glyph>
<glyph name="phi" format="2">
	<unicode hex="03C6"/>
	<advance width="720"/>
	<outline>
		<contour>
			<point x="254" y="-16" type="curve"/>
			<point x="262" y="40" type="line"/>
			<point x="205" y="45"/>
			<point x="170" y="90"/>
			<point x="170" y="176" type="curve" smooth="yes"/>
			<point x="170" y="291"/>
			<point x="218" y="406"/>
			<point x="294" y="456" type="curve"/>
			<point x="282" y="476" type="line"/>
			<point x="125" y="437"/>
			<point x="18" y="336"/>
			<point x="18" y="184" type="curve" smooth="yes"/>
			<point x="18" y="67"/>
			<point x="119" y="-10"/>
		</contour>
		<contour>
			<point x="204" y="-212" type="line"/>
			<point x="364" y="-184" type="line"/>
			<point x="434" y="312" type="line" smooth="yes"/>
			<point x="449" y="414"/>
			<point x="472" y="448"/>
			<point x="502" y="448" type="curve" smooth="yes"/>
			<point x="535" y="448"/>
			<point x="554" y="405"/>
			<point x="554" y="308" type="curve" smooth="yes"/>
			<point x="554" y="151"/>
			<point x="471" y="34"/>
			<point x="370" y="33" type="curve"/>
			<point x="366" y="-16" type="line"/>
			<point x="566" y="-11"/>
			<point x="702" y="110"/>
			<point x="702" y="280" type="curve" smooth="yes"/>
			<point x="702" y="394"/>
			<point x="634" y="476"/>
			<point x="510" y="476" type="curve" smooth="yes"/>
			<point x="404" y="476"/>
			<point x="330" y="422"/>
			<point x="302" y="296" type="curve" smooth="yes"/>
			<point x="192" y="-200" type="line"/>
		</contour>
	</outline>
</glyph>
<glyph name="omega" format="2">
	<unicode hex="03C9"/>
	<advance width="732"/>
	<outline>
		<contour>
			<point x="180" y="-16" type="curve" smooth="yes"/>
			<point x="276" y="-16"/>
			<point x="343" y="55"/>
			<point x="361" y="164" type="curve"/>
			<point x="349" y="164" type="line"/>
			<point x="328" y="47"/>
			<point x="382" y="-16"/>
			<point x="468" y="-16" type="curve" smooth="yes"/>
			<point x="593" y="-16"/>
			<point x="706" y="65"/>
			<point x="706" y="245" type="curve" smooth="yes"/>
			<point x="706" y="362"/>
			<point x="629" y="439"/>
			<point x="525" y="476" type="curve"/>
			<point x="514" y="460" type="line"/>
			<point x="544" y="417"/>
			<point x="556" y="358"/>
			<point x="556" y="299" type="curve" smooth="yes"/>
			<point x="556" y="231"/>
			<point x="539" y="64"/>
			<point x="454" y="64" type="curve" smooth="yes"/>
			<point x="429" y="64"/>
			<point x="414" y="79"/>
			<point x="414" y="117" type="curve" smooth="yes"/>
			<point x="414" y="131"/>
			<point x="415" y="156"/>
			<point x="421" y="184" type="curve" smooth="yes"/>
			<point x="454" y="340" type="line"/>
			<point x="440" y="352" type="line"/>
			<point x="319" y="320" type="line"/>
			<point x="295" y="175" type="line" smooth="yes"/>
			<point x="281" y="89"/>
			<point x="251" y="64"/>
			<point x="218" y="64" type="curve" smooth="yes"/>
			<point x="191" y="64"/>
			<point x="170" y="89"/>
			<point x="170" y="147" type="curve" smooth="yes"/>
			<point x="170" y="256"/>
			<point x="208" y="379"/>
			<point x="300" y="460" type="curve"/>
			<point x="291" y="476" type="line"/>
			<point x="144" y="438"/>
			<point x="18" y="347"/>
			<point x="18" y="153" type="curve" smooth="yes"/>
			<point x="18" y="50"/>
			<point x="83" y="-16"/>
		</contour>
	</outline>
	<anchor name="aboveLC" x="403" y="480"/>
	<anchor name="belowLC" x="335" y="-20"/>
</glyph>
<glyph name="digamma" format="2">
	<unicode hex="03DD"/>
	<advance width="458"/>
	<outline>
		<contour>
			<point x="-12" y="-200" type="line"/>
			<point x="1" y="-212" type="line"/>
			<point x="160" y="-182" type="line"/>
			<point x="193" y="96" type="line"/>
			<point x="266" y="444" type="line"/>
			<point x="216" y="412" type="line"/>
			<point x="472" y="396" type="line"/>
			<point x="487" y="472" type="line"/>
			<point x="100" y="456" type="line"/>
			<point x="65" y="104" type="line"/>
		</contour>
		<contour>
			<point x="106" y="144" type="line"/>
			<point x="390" y="120" type="line"/>
			<point x="404" y="196" type="line"/>
			<point x="116" y="192" type="line"/>
		</contour>
	</outline>
	<anchor name="aboveLC" x="284" y="480"/>
</glyph>
<glyph name="sampi" format="2">
	<unicode hex="03E1"/>
	<advance width="576"/>
	<outline>
		<contour>
			<point x="65" y="266" type="line"/>
			<point x="392" y="388" type="line"/>
			<point x="387" y="436" type="line"/>
			<point x="51" y="366" type="line"/>
		</contour>
		<contour>
			<point x="273" y="-149" type="curve"/>
			<point x="295" y="-158" type="line"/>
			<point x="454" y="-10"/>
			<point x="521" y="143"/>
			<point x="521" y="278" type="curve" smooth="yes"/>
			<point x="521" y="502"/>
			<point x="339" y="663"/>
			<point x="133" y="686" type="curve"/>
			<point x="118" y="664" type="line"/>
			<point x="275" y="571"/>
			<point x="357" y="430"/>
			<point x="357" y="238" type="curve" smooth="yes"/>
			<point x="357" y="128"/>
			<point x="324" y="-40"/>
		</contour>
		<contour>
			<point x="98" y="61" type="line"/>
			<point x="423" y="192" type="line"/>
			<point x="414" y="237" type="line"/>
			<point x="81" y="162" type="line"/>
		</contour>
	</outline>
</glyph>
<glyph name="Ka" format="2">
	<unicode hex="041A"/>
	<advance width="640"/>
	<outline>
		<contour>
			<point x="364" y="88" type="line" smooth="yes"/>
			<point x="376" y="17"/>
			<point x="403" y="-12"/>
			<point x="481" y="-12" type="curve" smooth="yes"/>
			<point x="518" y="-12"/>
			<point x="548" y="-8"/>
			<point x="588" y="0" type="curve"/>
			<point x="592" y="24" type="line"/>
			<point x="485" y="40" type="line"/>
			<point x="550" y="13" type="line"/>
			<point x="506" y="179" type="line" smooth="yes"/>
			<point x="476" y="293"/>
			<point x="439" y="342"/>
			<point x="283" y="342" type="curve"/>
			<point x="281" y="329" type="line"/>
			<point x="380" y="329"/>
			<point x="415" y="395"/>
			<point x="457" y="478" type="curve" smooth="yes"/>
			<point x="470" y="504"/>
			<point x="501" y="560"/>
			<point x="524" y="588" type="curve"/>
			<point x="498" y="572" type="line"/>
			<point x="515" y="552"/>
			<point x="542" y="527"/>
			<point x="582" y="527" type="curve" smooth="yes"/>
			<point x="632" y="527"/>
			<point x="666" y="562"/>
			<point x="666" y="604" type="curve" smooth="yes"/>
			<point x="666" y="635"/>
			<point x="644" y="660"/>
			<point x="609" y="668" type="curve"/>
			<point x="529" y="668"/>
			<point x="497" y="616"/>
			<point x="431" y="486" type="curve" smooth="yes"/>
			<point x="391" y="408"/>
			<point x="355" y="350"/>
			<point x="285" y="350" type="curve" smooth="yes"/>
			<point x="182" y="350" type="line"/>
			<point x="177" y="320" type="line"/>
			<point x="266" y="320" type="line" smooth="yes"/>
			<point x="322" y="320"/>
			<point x="332" y="277"/>
			<point x="342" y="216" type="curve" smooth="yes"/>
		</contour>
		<contour>
			<point x="-10" y="0" type="line"/>
			<point x="265" y="0" type="line"/>
			<point x="270" y="24" type="line"/>
			<point x="174" y="40" type="line"/>
			<point x="98" y="40" type="line"/>
			<point x="-5" y="24" type="line"/>
		</contour>
		<contour>
			<point x="46" y="0" type="line"/>
			<point x="211" y="0" type="line"/>
			<point x="226" y="102"/>
			<point x="242" y="208"/>
			<point x="262" y="312" type="curve" smooth="yes"/>
			<point x="328" y="652" type="line"/>
			<point x="163" y="652" type="line"/>
			<point x="148" y="550"/>
			<point x="132" y="444"/>
			<point x="112" y="340" type="curve" smooth="yes"/>
		</contour>
		<contour>
			<point x="105" y="628" type="line"/>
			<point x="201" y="612" type="line"/>
			<point x="277" y="612" type="line"/>
			<point x="381" y="628" type="line"/>
			<point x="386" y="652" type="line"/>
			<point x="110" y="652" type="line"/>
		</contour>
	</outline>
	<anchor name="aboveUC" x="382" y="672"/>
</glyph>
<glyph name="Ef" format="2">
	<unicode hex="0424"/>
	<advance width="736"/>
	<outline>
		<contour>
			<point x="291" y="102" type="curve" smooth="yes"/>
			<point x="339" y="102" type="line"/>
			<point x="346" y="128" type="line"/>
			<point x="282" y="128" type="line" smooth="yes"/>
			<point x="229" y="128"/>
			<point x="194" y="178"/>
			<point x="194" y="261" type="curve" smooth="yes"/>
			<point x="194" y="405"/>
			<point x="274" y="528"/>
			<point x="359" y="528" type="curve" smooth="yes"/>
			<point x="423" y="528" type="line"/>
			<point x="430" y="554" type="line"/>
			<point x="378" y="554" type="line" smooth="yes"/>
			<point x="164" y="554"/>
			<point x="46" y="441"/>
			<point x="46" y="284" type="curve" smooth="yes"/>
			<point x="46" y="164"/>
			<point x="128" y="102"/>
		</contour>
		<contour>
			<point x="346" y="102" type="line"/>
			<point x="398" y="102" type="line" smooth="yes"/>
			<point x="612" y="102"/>
			<point x="730" y="215"/>
			<point x="730" y="372" type="curve" smooth="yes"/>
			<point x="730" y="492"/>
			<point x="648" y="554"/>
			<point x="485" y="554" type="curve" smooth="yes"/>
			<point x="437" y="554" type="line"/>
			<point x="430" y="528" type="line"/>
			<point x="494" y="528" type="line" smooth="yes"/>
			<point x="547" y="528"/>
			<point x="582" y="478"/>
			<point x="582" y="395" type="curve" smooth="yes"/>
			<point x="582" y="251"/>
			<point x="502" y="128"/>
			<point x="417" y="128" type="curve" smooth="yes"/>
			<point x="353" y="128" type="line"/>
		</contour>
		<contour>
			<point x="194" y="-16" type="line"/>
			<point x="461" y="-16" type="line"/>
			<point x="466" y="8" type="line"/>
			<point x="370" y="24" type="line"/>
			<point x="302" y="24" type="line"/>
			<point x="199" y="8" type="line"/>
		</contour>
		<contour>
			<point x="250" y="-16" type="line"/>
			<point x="407" y="-16" type="line"/>
			<point x="422" y="86"/>
			<point x="440" y="208"/>
			<point x="460" y="312" type="curve" smooth="yes"/>
			<point x="528" y="664" type="line"/>
			<point x="371" y="664" type="line"/>
			<point x="356" y="562"/>
			<point x="338" y="444"/>
			<point x="318" y="340" type="curve" smooth="yes"/>
		</contour>
		<contour>
			<point x="313" y="640" type="line"/>
			<point x="409" y="624" type="line"/>
			<point x="477" y="624" type="line"/>
			<point x="581" y="640" type="line"/>
			<point x="586" y="664" type="line"/>
			<point x="318" y="664" type="line"/>
		</contour>
	</outline>
</glyph>
<glyph name="Shcha" format="2">
	<unicode hex="0429"/>
	<advance width="928"/>
	<outline>
		<contour>
			<point x="135" y="0" type="line"/>
			<point x="833" y="0" type="line"/>
			<point x="804" y="20" type="line"/>
			<point x="821" y="-176" type="line"/>
			<point x="845" y="-176" type="line"/>
			<point x="894" y="28" type="line"/>
			<point x="142" y="28" type="line"/>
		</contour>
		<contour>
			<point x="46" y="0" type="line"/>
			<point x="211" y="0" type="line"/>
			<point x="226" y="102"/>
			<point x="242" y="208"/>
			<point x="262" y="312" type="curve" smooth="yes"/>
			<point x="328" y="652" type="line"/>
			<point x="163" y="652" type="line"/>
			<point x="148" y="550"/>
			<point x="132" y="444"/>
			<point x="112" y="340" type="curve" smooth="yes"/>
		</contour>
		<contour>
			<point x="105" y="628" type="line"/>
			<point x="201" y="612" type="line"/>
			<point x="277" y="612" type="line"/>
			<point x="373" y="628" type="line"/>
			<point x="378" y="652" type="line"/>
			<point x="110" y="652" type="line"/>
		</contour>
		<contour>
			<point x="342" y="0" type="line"/>
			<point x="507" y="0" type="line"/>
			<point x="522" y="102"/>
			<point x="538" y="208"/>
			<point x="558" y="312" type="curve" smooth="yes"/>
			<point x="624" y="652" type="line"/>
			<point x="459" y="652" type="line"/>
			<point x="444" y="550"/>
			<point x="428" y="444"/>
			<point x="408" y="340" type="curve" smooth="yes"/>
		</contour>
		<contour>
			<point x="409" y="628" type="line"/>
			<point x="497" y="612" type="line"/>
			<point x="573" y="612" type="line"/>
			<point x="669" y="628" type="line"/>
			<point x="674" y="652" type="line"/>
			<point x="414" y="652" type="line"/>
		</contour>
		<contour>
			<point x="638" y="0" type="line"/>
			<point x="803" y="0" type="line"/>
			<point x="818" y="102"/>
			<point x="834" y="208"/>
			<point x="854" y="312" type="curve" smooth="yes"/>
			<point x="920" y="652" type="line"/>
			<point x="755" y="652" type="line"/>
			<point x="740" y="550"/>
			<point x="724" y="444"/>
			<point x="704" y="340" type="curve" smooth="yes"/>
		</contour>
		<contour>
			<point x="705" y="628" type="line"/>
			<point x="793" y="612" type="line"/>
			<point x="869" y="612" type="line"/>
			<point x="973" y="628" type="line"/>
			<point x="978" y="652" type="line"/>
			<point x="710" y="652" type="line"/>
		</contour>
		<contour>
			<point x="-10" y="0" type="line"/>
			<point x="174" y="0" type="line"/>
			<point x="98" y="40" type="line"/>
			<point x="-5" y="24" type="line"/>
		</contour>
	</outline>
</glyph>
<glyph name="el" format="2">
	<unicode hex="043B"/>
	<advance width="554"/>
	<outline>
		<contour>
			<point x="66" y="-16" type="curve" smooth="yes"/>
			<point x="101" y="-16"/>
			<point x="132" y="0"/>
			<point x="150" y="42" type="curve" smooth="yes"/>
			<point x="176" y="102"/>
			<point x="206" y="195"/>
			<point x="230" y="268" type="curve" smooth="yes"/>
			<point x="269" y="384"/>
			<point x="314" y="384"/>
			<point x="386" y="384" type="curve" smooth="yes"/>
			<point x="399" y="384"/>
			<point x="411" y="382"/>
			<point x="426" y="380" type="curve"/>
			<point x="360" y="433" type="line"/>
			<point x="356" y="371"/>
			<point x="345" y="320"/>
			<point x="331" y="254" type="curve" smooth="yes"/>
			<point x="307" y="144" type="line" smooth="yes"/>
			<point x="302" y="122"/>
			<point x="291" y="78"/>
			<point x="291" y="50" type="curve" smooth="yes"/>
			<point x="291" y="10"/>
			<point x="320" y="-16"/>
			<point x="367" y="-16" type="curve" smooth="yes"/>
			<point x="447" y="-16"/>
			<point x="505" y="47"/>
			<point x="538" y="108" type="curve"/>
			<point x="519" y="120" type="line"/>
			<point x="493" y="85"/>
			<point x="473" y="72"/>
			<point x="461" y="72" type="curve" smooth="yes"/>
			<point x="453" y="72"/>
			<point x="447" y="75"/>
			<point x="447" y="86" type="curve" smooth="yes"/>
			<point x="447" y="95"/>
			<point x="451" y="111"/>
			<point x="455" y="132" type="curve" smooth="yes"/>
			<point x="523" y="456" type="line"/>
			<point x="493" y="468"/>
			<point x="458" y="476"/>
			<point x="410" y="476" type="curve" smooth="yes"/>
			<point x="291" y="476"/>
			<point x="244" y="388"/>
			<point x="205" y="276" type="curve" smooth="yes"/>
			<point x="176" y="193"/>
			<point x="157" y="131"/>
			<point x="129" y="68" type="curve"/>
			<point x="143" y="73" type="line"/>
			<point x="157" y="78" type="line"/>
			<point x="138" y="95" type="line" smooth="yes"/>
			<point x="119" y="112"/>
			<point x="104" y="124"/>
			<point x="72" y="124" type="curve" smooth="yes"/>
			<point x="36" y="124"/>
			<point x="0" y="102"/>
			<point x="-10" y="56" type="curve"/>
			<point x="-6" y="4"/>
			<point x="29" y="-16"/>
		</contour>
	</outline>
</glyph>
<glyph name="ef" format="2">
	<unicode hex="0444"/>
	<advance width="732"/>
	<outline>
		<contour>
			<point x="136" y="-240" type="line"/>
			<point x="410" y="-240" type="line"/>
			<point x="414" y="-220" type="line"/>
			<point x="334" y="-204" type="line"/>
			<point x="226" y="-204" type="line"/>
			<point x="142" y="-220" type="line"/>
		</contour>
		<contour>
			<point x="142" y="-16" type="curve" smooth="yes"/>
			<point x="198" y="-16"/>
			<point x="254" y="12"/>
			<point x="306" y="68" type="curve"/>
			<point x="322" y="68" type="line"/>
			<point x="314" y="96" type="line"/>
			<point x="294" y="78"/>
			<point x="256" y="56"/>
			<point x="226" y="56" type="curve" smooth="yes"/>
			<point x="189" y="56"/>
			<point x="170" y="82"/>
			<point x="170" y="148" type="curve" smooth="yes"/>
			<point x="170" y="215"/>
			<point x="191" y="328"/>
			<point x="242" y="382" type="curve" smooth="yes"/>
			<point x="260" y="400"/>
			<point x="281" y="412"/>
			<point x="306" y="412" type="curve" smooth="yes"/>
			<point x="321" y="412"/>
			<point x="343" y="403"/>
			<point x="354" y="396" type="curve"/>
			<point x="358" y="396" type="line"/>
			<point x="358" y="408" type="line"/>
			<point x="346" y="442"/>
			<point x="306" y="476"/>
			<point x="262" y="476" type="curve" smooth="yes"/>
			<point x="126" y="476"/>
			<point x="18" y="333"/>
			<point x="18" y="136" type="curve" smooth="yes"/>
			<point x="18" y="36"/>
			<point x="78" y="-16"/>
		</contour>
		<contour>
			<point x="198" y="-240" type="line"/>
			<point x="347" y="-240" type="line"/>
			<point x="359" y="-171"/>
			<point x="378" y="-74"/>
			<point x="394" y="9" type="curve"/>
			<point x="400" y="39" type="line"/>
			<point x="481" y="418" type="line"/>
			<point x="483" y="425" type="line"/>
			<point x="545" y="713" type="line"/>
			<point x="529" y="725" type="line"/>
			<point x="321" y="669" type="line"/>
			<point x="317" y="651" type="line"/>
			<point x="406" y="626" type="line"/>
			<point x="383" y="663" type="line"/>
			<point x="337" y="426" type="line"/>
			<point x="336" y="420" type="line"/>
			<point x="257" y="44" type="line"/>
			<point x="255" y="34" type="line"/>
		</contour>
		<contour>
			<point x="470" y="-16" type="curve" smooth="yes"/>
			<point x="606" y="-16"/>
			<point x="714" y="127"/>
			<point x="714" y="324" type="curve" smooth="yes"/>
			<point x="714" y="424"/>
			<point x="654" y="476"/>
			<point x="590" y="476" type="curve" smooth="yes"/>
			<point x="534" y="476"/>
			<point x="478" y="448"/>
			<point x="426" y="392" type="curve"/>
			<point x="420" y="392" type="line"/>
			<point x="418" y="364" type="line"/>
			<point x="438" y="382"/>
			<point x="476" y="404"/>
			<point x="506" y="404" type="curve" smooth="yes"/>
			<point x="543" y="404"/>
			<point x="562" y="378"/>
			<point x="562" y="312" type="curve" smooth="yes"/>
			<point x="562" y="246"/>
			<point x="541" y="136"/>
			<point x="493" y="81" type="curve" smooth="yes"/>
			<point x="475" y="61"/>
			<point x="452" y="48"/>
			<point x="426" y="48" type="curve" smooth="yes"/>
			<point x="411" y="48"/>
			<point x="389" y="57"/>
			<point x="378" y="64" type="curve"/>
			<point x="366" y="50" type="line"/>
			<point x="375" y="50" type="line"/>
			<point x="388" y="17"/>
			<point x="427" y="-16"/>
		</contour>
	</outline>
</glyph>
<glyph name="shcha" format="2">
	<unicode hex="0449"/>
	<advance width="804"/>
	<outline>
		<contour>
			<point x="112" y="-16" type="curve" smooth="yes"/>
			<point x="186" y="-16"/>
			<point x="246" y="33"/>
			<point x="320" y="116" type="curve"/>
			<point x="327" y="116" type="line"/>
			<point x="310" y="132" type="line"/>
			<point x="272" y="94"/>
			<point x="237" y="76"/>
			<point x="214" y="76" type="curve" smooth="yes"/>
			<point x="198" y="76"/>
			<point x="190" y="85"/>
			<point x="190" y="100" type="curve" smooth="yes"/>
			<point x="190" y="112"/>
			<point x="196" y="140"/>
			<point x="202" y="168" type="curve" smooth="yes"/>
			<point x="267" y="464" type="line"/>
			<point x="251" y="476" type="line"/>
			<point x="42" y="420" type="line"/>
			<point x="38" y="402" type="line"/>
			<point x="119" y="378" type="line"/>
			<point x="101" y="392" type="line"/>
			<point x="48" y="156" type="line" smooth="yes"/>
			<point x="41" y="126"/>
			<point x="34" y="96"/>
			<point x="34" y="66" type="curve" smooth="yes"/>
			<point x="34" y="10"/>
			<point x="68" y="-16"/>
		</contour>
		<contour>
			<point x="368" y="-16" type="curve" smooth="yes"/>
			<point x="442" y="-16"/>
			<point x="502" y="33"/>
			<point x="576" y="116" type="curve"/>
			<point x="583" y="116" type="line"/>
			<point x="566" y="132" type="line"/>
			<point x="528" y="94"/>
			<point x="493" y="76"/>
			<point x="470" y="76" type="curve" smooth="yes"/>
			<point x="454" y="76"/>
			<point x="446" y="85"/>
			<point x="446" y="100" type="curve" smooth="yes"/>
			<point x="446" y="112"/>
			<point x="452" y="140"/>
			<point x="458" y="168" type="curve" smooth="yes"/>
			<point x="520" y="464" type="line"/>
			<point x="505" y="476" type="line"/>
			<point x="355" y="433" type="line"/>
			<point x="351" y="371"/>
			<point x="341" y="320"/>
			<point x="326" y="254" type="curve" smooth="yes"/>
			<point x="304" y="156" type="line" smooth="yes"/>
			<point x="297" y="126"/>
			<point x="290" y="96"/>
			<point x="290" y="66" type="curve" smooth="yes"/>
			<point x="290" y="10"/>
			<point x="324" y="-16"/>
		</contour>
		<contour>
			<point x="619" y="-16" type="curve" smooth="yes"/>
			<point x="699" y="-16"/>
			<point x="757" y="47"/>
			<point x="790" y="108" type="curve"/>
			<point x="771" y="120" type="line"/>
			<point x="745" y="85"/>
			<point x="725" y="72"/>
			<point x="713" y="72" type="curve" smooth="yes"/>
			<point x="705" y="72"/>
			<point x="699" y="75"/>
			<point x="699" y="86" type="curve" smooth="yes"/>
			<point x="699" y="95"/>
			<point x="703" y="111"/>
			<point x="707" y="132" type="curve" smooth="yes"/>
			<point x="777" y="464" type="line"/>
			<point x="762" y="476" type="line"/>
			<point x="612" y="433" type="line"/>
			<point x="608" y="371"/>
			<point x="598" y="320"/>
			<point x="583" y="254" type="curve" smooth="yes"/>
			<point x="552" y="115" type="line"/>
			<point x="551" y="109" type="line"/>
			<point x="547" y="89"/>
			<point x="543" y="67"/>
			<point x="543" y="50" type="curve" smooth="yes"/>
			<point x="543" y="10"/>
			<point x="572" y="-16"/>
		</contour>
		<contour>
			<point x="574" y="-232" type="line"/>
			<point x="668" y="-229"/>
			<point x="718" y="-192"/>
			<point x="718" y="-116" type="curve" smooth="yes"/>
			<point x="718" y="-92" type="line" smooth="yes"/>
			<point x="718" y="-16"/>
			<point x="748" y="29"/>
			<point x="790" y="108" type="curve"/>
			<point x="768" y="108" type="line"/>
			<point x="709" y="29" type="line"/>
			<point x="721" y="11" type="line"/>
			<point x="662" y="-32"/>
			<point x="639" y="-57"/>
			<point x="627" y="-102" type="curve" smooth="yes"/>
			<point x="620" y="-130" type="line" smooth="yes"/>
			<point x="607" y="-181"/>
			<point x="593" y="-202"/>
			<point x="567" y="-212" type="curve"/>
		</contour>
	</outline>
</glyph>
<glyph name="yu" format="2">
	<unicode hex="044E"/>
	<advance width="752"/>
	<outline>
		<contour>
			<point x="18" y="4" type="line"/>
			<point x="34" y="-8" type="line"/>
			<point x="179" y="0" type="line"/>
			<point x="183" y="68"/>
			<point x="198" y="140"/>
			<point x="211" y="206" type="curve" smooth="yes"/>
			<point x="238" y="342" type="line"/>
			<point x="264" y="464" type="line"/>
			<point x="248" y="476" type="line"/>
			<point x="42" y="420" type="line"/>
			<point x="38" y="402" type="line"/>
			<point x="118" y="378" type="line"/>
			<point x="102" y="392" type="line"/>
		</contour>
		<contour>
			<point x="93" y="219" type="line"/>
			<point x="403" y="233" type="line"/>
			<point x="403" y="259" type="line"/>
			<point x="93" y="259" type="line"/>
		</contour>
		<component base="ocyr" xOffset="248"/>
	</outline>
	<anchor name="aboveLC" x="381" y="480"/>
</glyph>
<glyph name="lje" format="2">
	<unicode hex="0459"/>
	<advance width="752"/>
	<outline>
		<contour>
			<point x="66" y="-16" type="curve" smooth="yes"/>
			<point x="101" y="-16"/>
			<point x="132" y="0"/>
			<point x="150" y="42" type="curve" smooth="yes"/>
			<point x="176" y="102"/>
			<point x="206" y="195"/>
			<point x="230" y="268" type="curve" smooth="yes"/>
			<point x="269" y="384"/>
			<point x="314" y="384"/>
			<point x="386" y="384" type="curve" smooth="yes"/>
			<point x="399" y="384"/>
			<point x="411" y="382"/>
			<point x="426" y="380" type="curve"/>
			<point x="369" y="433" type="line"/>
			<point x="318" y="193"/>
			<point x="306" y="141"/>
			<point x="306" y="108" type="curve" smooth="yes"/>
			<point x="306" y="41"/>
			<point x="347" y="-16"/>
			<point x="478" y="-16" type="curve" smooth="yes"/>
			<point x="624" y="-16"/>
			<point x="726" y="85"/>
			<point x="726" y="200" type="curve" smooth="yes"/>
			<point x="726" y="266"/>
			<point x="693" y="316"/>
			<point x="614" y="316" type="curve" smooth="yes"/>
			<point x="546" y="316"/>
			<point x="504" y="277"/>
			<point x="458" y="224" type="curve"/>
			<point x="451" y="224" type="line"/>
			<point x="468" y="212" type="line"/>
			<point x="497" y="232"/>
			<point x="515" y="244"/>
			<point x="540" y="244" type="curve" smooth="yes"/>
			<point x="558" y="244"/>
			<point x="580" y="236"/>
			<point x="580" y="190" type="curve" smooth="yes"/>
			<point x="580" y="96"/>
			<point x="539" y="12"/>
			<point x="494" y="12" type="curve" smooth="yes"/>
			<point x="460" y="12"/>
			<point x="452" y="36"/>
			<point x="452" y="82" type="curve" smooth="yes"/>
			<point x="452" y="131"/>
			<point x="470" y="198"/>
			<point x="479" y="236" type="curve"/>
			<point x="476" y="236" type="line"/>
			<point x="523" y="456" type="line"/>
			<point x="493" y="468"/>
			<point x="458" y="476"/>
			<point x="410" y="476" type="curve" smooth="yes"/>
			<point x="291" y="476"/>
			<point x="244" y="388"/>
			<point x="205" y="276" type="curve" smooth="yes"/>
			<point x="176" y="193"/>
			<point x="157" y="131"/>
			<point x="129" y="68" type="curve"/>
			<point x="145" y="74" type="line"/>
			<point x="157" y="78" type="line"/>
			<point x="138" y="95" type="line" smooth="yes"/>
			<point x="119" y="112"/>
			<point x="104" y="124"/>
			<point x="72" y="124" type="curve" smooth="yes"/>
			<point x="36" y="124"/>
			<point x="0" y="102"/>
			<point x="-10" y="56" type="curve"/>
			<point x="-6" y="4"/>
			<point x="29" y="-16"/>
		</contour>
	</outline>
</glyph>
<glyph name="ghestroke" format="2">
	<unicode hex="0493"/>
	<advance width="420"/>
	<outline>
		<contour>
			<point x="54" y="254" type="line"/>
			<point x="406" y="202" type="line"/>
			<point x="410" y="230" type="line"/>
			<point x="58" y="282" type="line"/>
		</contour>
		<contour>
			<point x="162" y="-16" type="curve" smooth="yes"/>
			<point x="252" y="-16"/>
			<point x="311" y="18"/>
			<point x="378" y="104" type="curve"/>
			<point x="362" y="120" type="line"/>
			<point x="318" y="73"/>
			<point x="272" y="48"/>
			<point x="230" y="48" type="curve" smooth="yes"/>
			<point x="180" y="48"/>
			<point x="154" y="71"/>
			<point x="154" y="112" type="curve" smooth="yes"/>
			<point x="154" y="155"/>
			<point x="183" y="184"/>
			<point x="220" y="208" type="curve" smooth="yes"/>
			<point x="295" y="256"/>
			<point x="406" y="285"/>
			<point x="406" y="372" type="curve" smooth="yes"/>
			<point x="406" y="426"/>
			<point x="365" y="476"/>
			<point x="282" y="476" type="curve" smooth="yes"/>
			<point x="187" y="476"/>
			<point x="132" y="432"/>
			<point x="82" y="364" type="curve"/>
			<point x="98" y="348" type="line"/>
			<point x="139" y="391"/>
			<point x="179" y="412"/>
			<point x="218" y="412" type="curve" smooth="yes"/>
			<point x="262" y="412"/>
			<point x="278" y="385"/>
			<point x="278" y="352" type="curve" smooth="yes"/>
			<point x="278" y="304"/>
			<point x="242" y="273"/>
			<point x="198" y="247" type="curve" smooth="yes"/>
			<point x="124" y="203"/>
			<point x="26" y="170"/>
			<point x="26" y="84" type="curve" smooth="yes"/>
			<point x="26" y="19"/>
			<point x="84" y="-16"/>
		</contour>
	</outline>
</glyph>
<glyph name="Kadescender" format="2">
	<unicode hex="049A"/>
	<advance width="636"/>
	<outline>
		<contour>
			<point x="468" y="0" type="line"/>
			<point x="536" y="0" type="line"/>
			<point x="507" y="20" type="line"/>
			<point x="523" y="-176" type="line"/>
			<point x="547" y="-176" type="line"/>
			<point x="596" y="24" type="line"/>
			<point x="473" y="43" type="line"/>
		</contour>
		<component base="Ka"/>
	</outline>
</glyph>
<glyph name="kabashkir" format="2">
	<unicode hex="04A1"/>
	<advance width="616"/>
	<outline>
		<contour>
			<point x="486" y="-16" type="curve" smooth="yes"/>
			<point x="524" y="-16"/>
			<point x="560" y="-9"/>
			<point x="586" y="0" type="curve"/>
			<point x="590" y="20" type="line"/>
			<point x="570" y="24" type="line" smooth="yes"/>
			<point x="546" y="29"/>
			<point x="536" y="50"/>
			<point x="522" y="84" type="curve" smooth="yes"/>
			<point x="502" y="132" type="line" smooth="yes"/>
			<point x="476" y="194"/>
			<point x="433" y="224"/>
			<point x="370" y="228" type="curve" smooth="yes"/>
			<point x="310" y="232" type="line"/>
			<point x="306" y="224" type="line"/>
			<point x="498" y="304" type="line" smooth="yes"/>
			<point x="566" y="332"/>
			<point x="602" y="351"/>
			<point x="602" y="396" type="curve" smooth="yes"/>
			<point x="602" y="438"/>
			<point x="570" y="465"/>
			<point x="526" y="472" type="curve"/>
			<point x="294" y="228" type="line"/>
			<point x="290" y="220" type="line"/>
			<point x="296" y="216" type="line" smooth="yes"/>
			<point x="318" y="201"/>
			<point x="333" y="193"/>
			<point x="346" y="148" type="curve" smooth="yes"/>
			<point x="366" y="80" type="line" smooth="yes"/>
			<point x="388" y="6"/>
			<point x="414" y="-16"/>
		</contour>
		<contour>
			<point x="26" y="308" type="line"/>
			<point x="46" y="304" type="line"/>
			<point x="117" y="460" type="line"/>
			<point x="94" y="436" type="line"/>
			<point x="306" y="436" type="line"/>
			<point x="306" y="464" type="line"/>
			<point x="58" y="484" type="line"/>
			<point x="32" y="460" type="line"/>
		</contour>
		<contour>
			<point x="130" y="-8" type="line"/>
			<point x="273" y="0" type="line"/>
			<point x="277" y="68"/>
			<point x="291" y="140"/>
			<point x="305" y="206" type="curve"/>
			<point x="335" y="342" type="line"/>
			<point x="360" y="464" type="line"/>
			<point x="344" y="476" type="line"/>
			<point x="207" y="439" type="line"/>
			<point x="114" y="4" type="line"/>
		</contour>
	</outline>
</glyph>
<glyph name="Ustraightstroke" format="2">
	<unicode hex="04B0"/>
	<advance width="573"/>
	<outline>
		<contour>
			<point x="480" y="265" type="line"/>
			<point x="484" y="291" type="line"/>
			<point x="116" y="291" type="line"/>
			<point x="112" y="265" type="line"/>
		</contour>
		<component base="Ustraight"/>
	</outline>
	<anchor name="aboveUC" x="401" y="672"/>
</glyph>
<glyph name="ustraightstroke" format="2">
	<unicode hex="04B1"/>
	<advance width="476"/>
	<outline>
		<contour>
			<point x="6" y="0" type="line"/>
			<point x="374" y="0" type="line"/>
			<point x="374" y="26" type="line"/>
			<point x="6" y="26" type="line"/>
		</contour>
		<component base="ustraight"/>
	</outline>
	<anchor name="aboveLC" x="271" y="480"/>
</glyph>
<glyph name="Hadescender" format="2">
	<unicode hex="04B2"/>
	<advance width="589"/>
	<outline>
		<contour>
			<point x="428" y="0" type="line"/>
			<point x="496" y="0" type="line"/>
			<point x="467" y="20" type="line"/>
			<point x="483" y="-176" type="line"/>
			<point x="507" y="-176" type="line"/>
			<point x="556" y="24" type="line"/>
			<point x="433" y="43" type="line"/>
		</contour>
		<component base="Ha"/>
	</outline>
</glyph>
<glyph name="Schwacyr" format="2">
	<unicode hex="04D8"/>
	<advance width="583"/>
	<outline>
		<contour>
			<point x="254" y="-16" type="curve" smooth="yes"/>
			<point x="478" y="-16"/>
			<point x="576" y="217"/>
			<point x="576" y="405" type="curve" smooth="yes"/>
			<point x="576" y="580"/>
			<point x="472" y="668"/>
			<point x="321" y="668" type="curve" smooth="yes"/>
			<point x="245" y="668"/>
			<point x="192" y="651"/>
			<point x="137" y="621" type="curve"/>
			<point x="108" y="468" type="line"/>
			<point x="132" y="468" type="line"/>
			<point x="246" y="651" type="line"/>
			<point x="203" y="613" type="line"/>
			<point x="251" y="636"/>
			<point x="272" y="640"/>
			<point x="303" y="640" type="curve" smooth="yes"/>
			<point x="379" y="640"/>
			<point x="417" y="577"/>
			<point x="417" y="465" type="curve" smooth="yes"/>
			<point x="417" y="282"/>
			<point x="349" y="12"/>
			<point x="248" y="12" type="curve" smooth="yes"/>
			<point x="198" y="12"/>
			<point x="182" y="68"/>
			<point x="182" y="145" type="curve" smooth="yes"/>
			<point x="182" y="197"/>
			<point x="193" y="265"/>
			<point x="213" y="320" type="curve"/>
			<point x="431" y="320" type="line"/>
			<point x="436" y="350" type="line"/>
			<point x="64" y="350" type="line"/>
			<point x="43" y="295"/>
			<point x="34" y="243"/>
			<point x="34" y="195" type="curve" smooth="yes"/>
			<point x="34" y="72"/>
			<point x="101" y="-16"/>
		</contour>
	</outline>
</glyph>
<glyph name="b.sups" format="2">
	<unicode hex="1D47"/>
	<advance width="362"/>
	<outline>
		<contour>
			<point x="175" y="397" type="curve" smooth="yes"/>
			<point x="304" y="397"/>
			<point x="406" y="535"/>
			<point x="404" y="634" type="curve" smooth="yes"/>
			<point x="403" y="696"/>
			<point x="365" y="717"/>
			<point x="327" y="717" type="curve" smooth="yes"/>
			<point x="274" y="717"/>
			<point x="236" y="684"/>
			<point x="207" y="636" type="curve"/>
			<point x="203" y="636" type="line"/>
			<point x="200" y="610" type="line"/>
			<point x="224" y="646"/>
			<point x="248" y="656"/>
			<point x="263" y="656" type="curve" smooth="yes"/>
			<point x="282" y="656"/>
			<point x="287" y="640"/>
			<point x="287" y="618" type="curve" smooth="yes"/>
			<point x="289" y="555"/>
			<point x="260" y="441"/>
			<point x="208" y="441" type="curve" smooth="yes"/>
			<point x="193" y="441"/>
			<point x="182" y="446"/>
			<point x="182" y="462" type="curve" smooth="yes"/>
			<point x="182" y="472"/>
			<point x="189" y="506"/>
			<point x="196" y="541" type="curve" smooth="yes"/>
			<point x="217" y="640" type="line"/>
			<point x="218" y="645" type="line"/>
			<point x="261" y="863" type="line"/>
			<point x="249" y="872" type="line"/>
			<point x="100" y="834" type="line"/>
			<point x="98" y="822" type="line"/>
			<point x="153" y="805" type="line"/>
			<point x="139" y="819" type="line"/>
			<point x="90" y="590" type="line" smooth="yes"/>
			<point x="82" y="557"/>
			<point x="72" y="510"/>
			<point x="73" y="475" type="curve" smooth="yes"/>
			<point x="74" y="396"/>
			<point x="155" y="397"/>
		</contour>
	</outline>
</glyph>
<glyph name="d.sups" format="2">
	<unicode hex="1D48"/>
	<advance width="383"/>
	<outline>
		<contour>
			<point x="147" y="397" type="curve" smooth="yes"/>
			<point x="205" y="397"/>
			<point x="245" y="451"/>
			<point x="261" y="479" type="curve"/>
			<point x="265" y="479" type="line"/>
			<point x="268" y="504" type="line"/>
			<point x="244" y="468"/>
			<point x="221" y="459"/>
			<point x="206" y="459" type="curve" smooth="yes"/>
			<point x="187" y="459"/>
			<point x="183" y="474"/>
			<point x="183" y="496" type="curve" smooth="yes"/>
			<point x="182" y="559"/>
			<point x="214" y="674"/>
			<point x="273" y="674" type="curve" smooth="yes"/>
			<point x="286" y="674"/>
			<point x="300" y="662"/>
			<point x="314" y="645" type="curve"/>
			<point x="389" y="672" type="line"/>
			<point x="370" y="701"/>
			<point x="329" y="717"/>
			<point x="288" y="717" type="curve" smooth="yes"/>
			<point x="185" y="717"/>
			<point x="64" y="580"/>
			<point x="66" y="481" type="curve" smooth="yes"/>
			<point x="67" y="421"/>
			<point x="108" y="397"/>
		</contour>
		<contour>
			<point x="372" y="497" type="curve" smooth="yes"/>
			<point x="447" y="863" type="line"/>
			<point x="435" y="872" type="line"/>
			<point x="286" y="834" type="line"/>
			<point x="283" y="822" type="line"/>
			<point x="338" y="805" type="line"/>
			<point x="322" y="813" type="line"/>
			<point x="298" y="686" type="line"/>
			<point x="293" y="677" type="line"/>
			<point x="251" y="479" type="line"/>
			<point x="250" y="475" type="line" smooth="yes"/>
			<point x="248" y="465"/>
			<point x="246" y="452"/>
			<point x="246" y="442" type="curve" smooth="yes"/>
			<point x="247" y="415"/>
			<point x="268" y="397"/>
			<point x="303" y="397" type="curve" smooth="yes"/>
			<point x="361" y="397"/>
			<point x="404" y="439"/>
			<point x="427" y="479" type="curve"/>
			<point x="413" y="488" type="line"/>
			<point x="396" y="465"/>
			<point x="384" y="459"/>
			<point x="377" y="459" type="curve" smooth="yes"/>
			<point x="364" y="459"/>
			<point x="365" y="467"/>
		</contour>
	</outline>
</glyph>
<glyph name="e.sups" format="2">
	<unicode hex="1D49"/>
	<advance width="309"/>
	<outline>
		<contour>
			<point x="184" y="397" type="curve" smooth="yes"/>
			<point x="271" y="397"/>
			<point x="309" y="435"/>
			<point x="339" y="501" type="curve"/>
			<point x="326" y="508" type="line"/>
			<point x="305" y="481"/>
			<point x="274" y="471"/>
			<point x="247" y="471" type="curve" smooth="yes"/>
			<point x="209" y="471"/>
			<point x="175" y="496"/>
			<point x="174" y="546" type="curve" smooth="yes"/>
			<point x="172" y="637"/>
			<point x="216" y="695"/>
			<point x="241" y="695" type="curve" smooth="yes"/>
			<point x="251" y="695"/>
			<point x="262" y="691"/>
			<point x="263" y="668" type="curve" smooth="yes"/>
			<point x="264" y="614"/>
			<point x="240" y="573"/>
			<point x="119" y="544" type="curve"/>
			<point x="119" y="531" type="line"/>
			<point x="266" y="557"/>
			<point x="358" y="590"/>
			<point x="356" y="656" type="curve" smooth="yes"/>
			<point x="356" y="692"/>
			<point x="319" y="717"/>
			<point x="262" y="717" type="curve" smooth="yes"/>
			<point x="134" y="717"/>
			<point x="59" y="613"/>
			<point x="61" y="520" type="curve" smooth="yes"/>
			<point x="63" y="440"/>
			<point x="117" y="397"/>
		</contour>
	</outline>
</glyph>
<glyph name="m.sups" format="2">
	<unicode hex="1D50"/>
	<advance width="565"/>
	<outline>
		<contour>
			<point x="488" y="397" type="curve" smooth="yes"/>
			<point x="546" y="397"/>
			<point x="589" y="439"/>
			<point x="611" y="479" type="curve"/>
			<point x="597" y="488" type="line"/>
			<point x="580" y="465"/>
			<point x="568" y="459"/>
			<point x="560" y="459" type="curve" smooth="yes"/>
			<point x="548" y="459"/>
			<point x="550" y="468"/>
			<point x="556" y="496" type="curve" smooth="yes"/>
			<point x="581" y="605" type="line" smooth="yes"/>
			<point x="586" y="624"/>
			<point x="588" y="643"/>
			<point x="588" y="663" type="curve" smooth="yes"/>
			<point x="588" y="700"/>
			<point x="563" y="717"/>
			<point x="532" y="717" type="curve" smooth="yes"/>
			<point x="479" y="717"/>
			<point x="440" y="687"/>
			<point x="388" y="632" type="curve"/>
			<point x="382" y="632" type="line"/>
			<point x="397" y="621" type="line"/>
			<point x="418" y="643"/>
			<point x="440" y="653"/>
			<point x="454" y="653" type="curve" smooth="yes"/>
			<point x="464" y="653"/>
			<point x="469" y="648"/>
			<point x="469" y="640" type="curve" smooth="yes"/>
			<point x="469" y="633"/>
			<point x="466" y="617"/>
			<point x="462" y="599" type="curve" smooth="yes"/>
			<point x="442" y="507" type="line" smooth="yes"/>
			<point x="439" y="495"/>
			<point x="431" y="463"/>
			<point x="431" y="443" type="curve" smooth="yes"/>
			<point x="431" y="415"/>
			<point x="452" y="397"/>
		</contour>
		<contour>
			<point x="176" y="408" type="line"/>
			<point x="222" y="639" type="line"/>
			<point x="237" y="709" type="line"/>
			<point x="224" y="717" type="line"/>
			<point x="73" y="680" type="line"/>
			<point x="71" y="667" type="line"/>
			<point x="124" y="651" type="line"/>
			<point x="112" y="661" type="line"/>
			<point x="59" y="411" type="line"/>
			<point x="71" y="403" type="line"/>
		</contour>
		<contour>
			<point x="356" y="408" type="line"/>
			<point x="404" y="634" type="line"/>
			<point x="404" y="636" type="line"/>
			<point x="405" y="647"/>
			<point x="405" y="652"/>
			<point x="405" y="663" type="curve" smooth="yes"/>
			<point x="405" y="700"/>
			<point x="380" y="717"/>
			<point x="349" y="717" type="curve" smooth="yes"/>
			<point x="296" y="717"/>
			<point x="256" y="687"/>
			<point x="204" y="632" type="curve"/>
			<point x="200" y="632" type="line"/>
			<point x="215" y="621" type="line"/>
			<point x="236" y="643"/>
			<point x="258" y="653"/>
			<point x="272" y="653" type="curve" smooth="yes"/>
			<point x="283" y="653"/>
			<point x="288" y="648"/>
			<point x="288" y="640" type="curve" smooth="yes"/>
			<point x="288" y="633"/>
			<point x="284" y="614"/>
			<point x="280" y="596" type="curve" smooth="yes"/>
			<point x="241" y="411" type="line"/>
			<point x="253" y="403" type="line"/>
		</contour>
	</outline>
</glyph>
<glyph name="t.sups" format="2">
	<unicode hex="1D57"/>
	<advance width="245"/>
	<outline>
		<contour>
			<point x="74" y="685" type="line"/>
			<point x="150" y="685" type="line"/>
			<point x="295" y="685" type="line"/>
			<point x="300" y="707" type="line"/>
			<point x="152" y="707" type="line"/>
			<point x="152" y="712" type="line"/>
			<point x="77" y="701" type="line"/>
		</contour>
		<contour>
			<point x="82" y="507" type="line" smooth="yes"/>
			<point x="79" y="494"/>
			<point x="70" y="462"/>
			<point x="71" y="442" type="curve" smooth="yes"/>
			<point x="71" y="415"/>
			<point x="93" y="397"/>
			<point x="129" y="397" type="curve" smooth="yes"/>
			<point x="187" y="397"/>
			<point x="227" y="439"/>
			<point x="250" y="479" type="curve"/>
			<point x="236" y="488" type="line"/>
			<point x="219" y="465"/>
			<point x="208" y="459"/>
			<point x="201" y="459" type="curve" smooth="yes"/>
			<point x="192" y="459"/>
			<point x="190" y="468"/>
			<point x="196" y="497" type="curve" smooth="yes"/>
			<point x="260" y="805" type="line"/>
			<point x="216" y="805" type="line"/>
			<point x="121" y="695" type="line"/>
		</contour>
	</outline>
</glyph>
<glyph name="dagger" format="2">
	<unicode hex="2020"/>
	<advance width="536"/>
	<outline>
		<contour>
			<point x="85" y="472" type="curve" smooth="yes"/>
			<point x="85" y="439"/>
			<point x="104" y="412"/>
			<point x="152" y="412" type="curve" smooth="yes"/>
			<point x="184" y="412"/>
			<point x="218" y="429"/>
			<point x="250" y="446" type="curve" smooth="yes"/>
			<point x="321" y="484" type="line"/>
			<point x="323" y="492" type="line"/>
			<point x="266" y="530" type="line" smooth="yes"/>
			<point x="240" y="547"/>
			<point x="212" y="564"/>
			<point x="180" y="564" type="curve" smooth="yes"/>
			<point x="125" y="564"/>
			<point x="85" y="526"/>
		</contour>
		<contour>
			<point x="197" y="-120" type="curve"/>
			<point x="221" y="-120" type="line"/>
			<point x="300" y="87"/>
			<point x="339" y="170"/>
			<point x="355" y="256" type="curve" smooth="yes"/>
			<point x="359" y="277"/>
			<point x="361" y="297"/>
			<point x="361" y="320" type="curve" smooth="yes"/>
			<point x="361" y="362"/>
			<point x="353" y="412"/>
			<point x="330" y="488" type="curve"/>
			<point x="314" y="488" type="line"/>
			<point x="221" y="357"/>
			<point x="194" y="276"/>
			<point x="194" y="128" type="curve" smooth="yes"/>
			<point x="194" y="68"/>
			<point x="196" y="-8"/>
		</contour>
		<contour>
			<point x="361" y="720" type="curve" smooth="yes"/>
			<point x="307" y="720"/>
			<point x="275" y="683"/>
			<point x="275" y="627" type="curve" smooth="yes"/>
			<point x="275" y="600"/>
			<point x="284" y="571"/>
			<point x="293" y="548" type="curve" smooth="yes"/>
			<point x="314" y="488" type="line"/>
			<point x="330" y="488" type="line"/>
			<point x="373" y="548" type="line" smooth="yes"/>
			<point x="398" y="584"/>
			<point x="427" y="622"/>
			<point x="427" y="665" type="curve" smooth="yes"/>
			<point x="427" y="702"/>
			<point x="399" y="720"/>
		</contour>
		<contour>
			<point x="559" y="504" type="curve" smooth="yes"/>
			<point x="559" y="537"/>
			<point x="540" y="564"/>
			<point x="492" y="564" type="curve" smooth="yes"/>
			<point x="460" y="564"/>
			<point x="426" y="547"/>
			<point x="394" y="530" type="curve" smooth="yes"/>
			<point x="323" y="492" type="line"/>
			<point x="321" y="484" type="line"/>
			<point x="378" y="446" type="line" smooth="yes"/>
			<point x="404" y="429"/>
			<point x="432" y="412"/>
			<point x="464" y="412" type="curve" smooth="yes"/>
			<point x="519" y="412"/>
			<point x="559" y="454"/>
		</contour>
	</outline>
</glyph>
<glyph name="daggerdbl" format="2">
	<unicode hex="2021"/>
	<advance width="536"/>
	<outline>
		<contour>
			<point x="13" y="108" type="curve" smooth="yes"/>
			<point x="13" y="75"/>
			<point x="32" y="48"/>
			<point x="80" y="48" type="curve" smooth="yes"/>
			<point x="112" y="48"/>
			<point x="147" y="65"/>
			<point x="179" y="82" type="curve" smooth="yes"/>
			<point x="250" y="120" type="line"/>
			<point x="251" y="128" type="line"/>
			<point x="194" y="166" type="line" smooth="yes"/>
			<point x="168" y="183"/>
			<point x="141" y="200"/>
			<point x="109" y="200" type="curve" smooth="yes"/>
			<point x="54" y="200"/>
			<point x="13" y="162"/>
		</contour>
		<contour>
			<point x="81" y="472" type="curve" smooth="yes"/>
			<point x="81" y="439"/>
			<point x="100" y="412"/>
			<point x="148" y="412" type="curve" smooth="yes"/>
			<point x="180" y="412"/>
			<point x="214" y="429"/>
			<point x="246" y="446" type="curve" smooth="yes"/>
			<point x="317" y="484" type="line"/>
			<point x="319" y="492" type="line"/>
			<point x="262" y="530" type="line" smooth="yes"/>
			<point x="236" y="547"/>
			<point x="208" y="564"/>
			<point x="176" y="564" type="curve" smooth="yes"/>
			<point x="121" y="564"/>
			<point x="81" y="526"/>
		</contour>
		<contour>
			<point x="207" y="-108" type="curve" smooth="yes"/>
			<point x="262" y="-108"/>
			<point x="297" y="-64"/>
			<point x="297" y="-15" type="curve" smooth="yes"/>
			<point x="297" y="12"/>
			<point x="287" y="41"/>
			<point x="279" y="64" type="curve" smooth="yes"/>
			<point x="258" y="124" type="line"/>
			<point x="242" y="124" type="line"/>
			<point x="199" y="64" type="line" smooth="yes"/>
			<point x="173" y="26"/>
			<point x="145" y="-7"/>
			<point x="145" y="-49" type="curve" smooth="yes"/>
			<point x="145" y="-86"/>
			<point x="169" y="-108"/>
		</contour>
		<contour>
			<point x="488" y="142" type="curve" smooth="yes"/>
			<point x="488" y="174"/>
			<point x="468" y="200"/>
			<point x="421" y="200" type="curve" smooth="yes"/>
			<point x="389" y="200"/>
			<point x="354" y="183"/>
			<point x="322" y="166" type="curve" smooth="yes"/>
			<point x="251" y="128" type="line"/>
			<point x="250" y="120" type="line"/>
			<point x="307" y="82" type="line" smooth="yes"/>
			<point x="333" y="65"/>
			<point x="360" y="48"/>
			<point x="392" y="48" type="curve" smooth="yes"/>
			<point x="448" y="48"/>
			<point x="488" y="89"/>
		</contour>
		<contour>
			<point x="357" y="720" type="curve" smooth="yes"/>
			<point x="302" y="720"/>
			<point x="271" y="680"/>
			<point x="271" y="627" type="curve" smooth="yes"/>
			<point x="271" y="600"/>
			<point x="280" y="571"/>
			<point x="289" y="548" type="curve" smooth="yes"/>
			<point x="310" y="488" type="line"/>
			<point x="326" y="488" type="line"/>
			<point x="369" y="548" type="line" smooth="yes"/>
			<point x="394" y="584"/>
			<point x="423" y="622"/>
			<point x="423" y="665" type="curve" smooth="yes"/>
			<point x="423" y="702"/>
			<point x="395" y="720"/>
		</contour>
		<contour>
			<point x="555" y="504" type="curve" smooth="yes"/>
			<point x="555" y="537"/>
			<point x="536" y="564"/>
			<point x="488" y="564" type="curve" smooth="yes"/>
			<point x="456" y="564"/>
			<point x="422" y="547"/>
			<point x="390" y="530" type="curve" smooth="yes"/>
			<point x="319" y="492" type="line"/>
			<point x="317" y="484" type="line"/>
			<point x="374" y="446" type="line" smooth="yes"/>
			<point x="400" y="429"/>
			<point x="428" y="412"/>
			<point x="460" y="412" type="curve" smooth="yes"/>
			<point x="515" y="415"/>
			<point x="555" y="444"/>
		</contour>
		<contour>
			<point x="360" y="306" type="curve" smooth="yes"/>
			<point x="369" y="355"/>
			<point x="362" y="396"/>
			<point x="326" y="488" type="curve"/>
			<point x="310" y="488" type="line"/>
			<point x="241" y="394"/>
			<point x="217" y="355"/>
			<point x="208" y="306" type="curve" smooth="yes"/>
			<point x="199" y="257"/>
			<point x="207" y="216"/>
			<point x="242" y="124" type="curve"/>
			<point x="258" y="124" type="line"/>
			<point x="328" y="218"/>
			<point x="351" y="257"/>
		</contour>
	</outline>
</glyph>
<glyph name="zero.sups" format="2">
	<unicode hex="2070"/>
	<advance width="373"/>
	<outline>
		<contour>
			<point x="213" y="397" type="curve" smooth="yes"/>
			<point x="372" y="397"/>
			<point x="422" y="576"/>
			<point x="422" y="682" type="curve" smooth="yes"/>
			<point x="422" y="782"/>
			<point x="360" y="820"/>
			<point x="280" y="820" type="curve" smooth="yes"/>
			<point x="121" y="820"/>
			<point x="70" y="640"/>
			<point x="70" y="534" type="curve" smooth="yes"/>
			<point x="70" y="434"/>
			<point x="133" y="397"/>
		</contour>
		<contour>
			<point x="212" y="416" type="curve" smooth="yes"/>
			<point x="197" y="416"/>
			<point x="187" y="425"/>
			<point x="187" y="457" type="curve" smooth="yes"/>
			<point x="187" y="545"/>
			<point x="223" y="801"/>
			<point x="280" y="801" type="curve" smooth="yes"/>
			<point x="296" y="801"/>
			<point x="306" y="792"/>
			<point x="306" y="760" type="curve" smooth="yes"/>
			<point x="306" y="672"/>
			<point x="270" y="416"/>
		</contour>
	</outline>
</glyph>
<glyph name="i.sups" format="2">
	<unicode hex="2071"/>
	<advance width="205"/>
	<outline>
		<contour>
			<point x="68" y="443" type="curve" smooth="yes"/>
			<point x="68" y="415"/>
			<point x="90" y="397"/>
			<point x="126" y="397" type="curve" smooth="yes"/>
			<point x="184" y="397"/>
			<point x="225" y="439"/>
			<point x="247" y="479" type="curve"/>
			<point x="233" y="488" type="line"/>
			<point x="217" y="465"/>
			<point x="206" y="459"/>
			<point x="199" y="459" type="curve" smooth="yes"/>
			<point x="188" y="459"/>
			<point x="188" y="468"/>
			<point x="194" y="496" type="curve" smooth="yes"/>
			<point x="237" y="709" type="line"/>
			<point x="224" y="717" type="line"/>
			<point x="73" y="680" type="line"/>
			<point x="71" y="667" type="line"/>
			<point x="124" y="651" type="line"/>
			<point x="112" y="661" type="line"/>
			<point x="79" y="507" type="line" smooth="yes"/>
			<point x="76" y="495"/>
			<point x="68" y="463"/>
		</contour>
		<contour>
			<point x="201" y="762" type="curve" smooth="yes"/>
			<point x="238" y="762"/>
			<point x="266" y="788"/>
			<point x="266" y="824" type="curve" smooth="yes"/>
			<point x="266" y="853"/>
			<point x="244" y="874"/>
			<point x="211" y="874" type="curve" smooth="yes"/>
			<point x="174" y="874"/>
			<point x="145" y="849"/>
			<point x="145" y="814" type="curve" smooth="yes"/>
			<point x="145" y="781"/>
			<point x="172" y="762"/>
		</contour>
	</outline>
</glyph>
<glyph name="seven.sups" format="2">
	<unicode hex="2077"/>
	<advance width="373"/>
	<outline>
		<contour>
			<point x="91" y="408" type="line"/>
			<point x="211" y="408" type="line"/>
			<point x="426" y="745" type="line"/>
			<point x="440" y="809" type="line"/>
			<point x="133" y="809" type="line"/>
			<point x="117" y="721" type="line"/>
			<point x="399" y="721" type="line"/>
			<point x="399" y="742" type="line"/>
			<point x="88" y="419" type="line"/>
		</contour>
	</outline>
</glyph>
<glyph name="eight.sups" format="2">
	<unicode hex="2078"/>
	<advance width="373"/>
	<outline>
		<contour>
			<point x="202" y="397" type="curve" smooth="yes"/>
			<point x="298" y="397"/>
			<point x="383" y="441"/>
			<point x="381" y="525" type="curve" smooth="yes"/>
			<point x="380" y="575"/>
			<point x="334" y="611"/>
			<point x="293" y="646" type="curve" smooth="yes"/>
			<point x="259" y="674"/>
			<point x="228" y="702"/>
			<point x="227" y="738" type="curve" smooth="yes"/>
			<point x="226" y="788"/>
			<point x="260" y="801"/>
			<point x="279" y="801" type="curve" smooth="yes"/>
			<point x="310" y="801"/>
			<point x="322" y="773"/>
			<point x="322" y="743" type="curve" smooth="yes"/>
			<point x="323" y="719"/>
			<point x="321" y="681"/>
			<point x="276" y="643" type="curve"/>
			<point x="293" y="626" type="line"/>
			<point x="293" y="637" type="line"/>
			<point x="376" y="663"/>
			<point x="415" y="684"/>
			<point x="414" y="737" type="curve" smooth="yes"/>
			<point x="413" y="781"/>
			<point x="375" y="820"/>
			<point x="282" y="820" type="curve" smooth="yes"/>
			<point x="183" y="820"/>
			<point x="118" y="773"/>
			<point x="120" y="693" type="curve" smooth="yes"/>
			<point x="121" y="648"/>
			<point x="154" y="617"/>
			<point x="190" y="588" type="curve" smooth="yes"/>
			<point x="226" y="557"/>
			<point x="264" y="528"/>
			<point x="264" y="487" type="curve" smooth="yes"/>
			<point x="266" y="429"/>
			<point x="234" y="416"/>
			<point x="211" y="416" type="curve" smooth="yes"/>
			<point x="173" y="416"/>
			<point x="164" y="445"/>
			<point x="164" y="485" type="curve" smooth="yes"/>
			<point x="163" y="520"/>
			<point x="175" y="565"/>
			<point x="203" y="593" type="curve"/>
			<point x="190" y="610" type="line"/>
			<point x="190" y="600" type="line"/>
			<point x="111" y="576"/>
			<point x="61" y="548"/>
			<point x="63" y="486" type="curve" smooth="yes"/>
			<point x="64" y="441"/>
			<point x="104" y="397"/>
		</contour>
	</outline>
</glyph>
<glyph name="nine.sups" format="2">
	<unicode hex="2079"/>
	<advance width="373"/>
	<outline>
		<contour>
			<point x="63" y="398" type="line"/>
			<point x="262" y="408"/>
			<point x="422" y="533"/>
			<point x="422" y="696" type="curve" smooth="yes"/>
			<point x="422" y="776"/>
			<point x="362" y="820"/>
			<point x="279" y="820" type="curve" smooth="yes"/>
			<point x="155" y="820"/>
			<point x="88" y="742"/>
			<point x="88" y="656" type="curve" smooth="yes"/>
			<point x="88" y="605"/>
			<point x="120" y="560"/>
			<point x="187" y="560" type="curve" smooth="yes"/>
			<point x="223" y="560"/>
			<point x="252" y="567"/>
			<point x="287" y="601" type="curve"/>
			<point x="308" y="601" type="line"/>
			<point x="312" y="630" type="line"/>
			<point x="282" y="608"/>
			<point x="260" y="598"/>
			<point x="242" y="598" type="curve" smooth="yes"/>
			<point x="224" y="598"/>
			<point x="209" y="615"/>
			<point x="209" y="650" type="curve" smooth="yes"/>
			<point x="209" y="692"/>
			<point x="228" y="801"/>
			<point x="279" y="801" type="curve" smooth="yes"/>
			<point x="294" y="801"/>
			<point x="299" y="789"/>
			<point x="299" y="758" type="curve" smooth="yes"/>
			<point x="299" y="597"/>
			<point x="210" y="427"/>
			<point x="60" y="414" type="curve"/>
		</contour>
	</outline>
</glyph>
<glyph name="naira" format="2">
	<unicode hex="20A6"/>
	<advance width="524"/>
	<outline>
		<contour>
			<point x="-34" y="0" type="line"/>
			<point x="140" y="0" type="line"/>
			<point x="144" y="24" type="line"/>
			<point x="73" y="34" type="line"/>
			<point x="168" y="502" type="line"/>
			<point x="172" y="502" type="line"/>
			<point x="211" y="272" type="line"/>
			<point x="254" y="0" type="line"/>
			<point x="398" y="0" type="line"/>
			<point x="518" y="590" type="line"/>
			<point x="588" y="600" type="line"/>
			<point x="592" y="624" type="line"/>
			<point x="418" y="624" type="line"/>
			<point x="414" y="600" type="line"/>
			<point x="486" y="590" type="line"/>
			<point x="390" y="122" type="line"/>
			<point x="386" y="122" type="line"/>
			<point x="345" y="368" type="line"/>
			<point x="305" y="624" type="line"/>
			<point x="92" y="624" type="line"/>
			<point x="88" y="600" type="line"/>
			<point x="153" y="589" type="line"/>
			<point x="41" y="34" type="line"/>
			<point x="-30" y="24" type="line"/>
		</contour>
		<contour>
			<point x="13" y="252" type="line"/>
			<point x="358" y="252" type="line"/>
			<point x="362" y="252" type="line"/>
			<point x="418" y="252" type="line"/>
			<point x="422" y="252" type="line"/>
			<point x="521" y="252" type="line"/>
			<point x="526" y="280" type="line"/>
			<point x="18" y="280" type="line"/>
		</contour>
		<contour>
			<point x="32" y="348" type="line"/>
			<point x="540" y="348" type="line"/>
			<point x="546" y="376" type="line"/>
			<point x="198" y="376" type="line"/>
			<point x="194" y="376" type="line"/>
			<point x="141" y="376" type="line"/>
			<point x="137" y="376" type="line"/>
			<point x="38" y="376" type="line"/>
		</contour>
	</outline>
</glyph>
<glyph name="won" format="2">
	<unicode hex="20A9"/>
	<advance width="524"/>
	<outline>
		<contour>
			<point x="66" y="0" type="line"/>
			<point x="154" y="0" type="line"/>
			<point x="325" y="428" type="line"/>
			<point x="275" y="344" type="line"/>
			<point x="274" y="0" type="line"/>
			<point x="358" y="0" type="line"/>
			<point x="572" y="624" type="line"/>
			<point x="540" y="624" type="line"/>
			<point x="334" y="0" type="line"/>
			<point x="398" y="140" type="line"/>
			<point x="408" y="544" type="line"/>
			<point x="340" y="544" type="line"/>
			<point x="130" y="0" type="line"/>
			<point x="200" y="140" type="line"/>
			<point x="256" y="624" type="line"/>
			<point x="112" y="624" type="line"/>
		</contour>
		<contour>
			<point x="36" y="348" type="line"/>
			<point x="214" y="348" type="line"/>
			<point x="219" y="348" type="line"/>
			<point x="452" y="348" type="line"/>
			<point x="455" y="348" type="line"/>
			<point x="532" y="348" type="line"/>
			<point x="538" y="376" type="line"/>
			<point x="42" y="376" type="line"/>
		</contour>
		<contour>
			<point x="68" y="600" type="line"/>
			<point x="152" y="584" type="line"/>
			<point x="216" y="584" type="line"/>
			<point x="320" y="600" type="line"/>
			<point x="324" y="624" type="line"/>
			<point x="72" y="624" type="line"/>
		</contour>
		<contour>
			<point x="468" y="600" type="line"/>
			<point x="534" y="590" type="line"/>
			<point x="558" y="590" type="line"/>
			<point x="608" y="600" type="line"/>
			<point x="612" y="624" type="line"/>
			<point x="472" y="624" type="line"/>
		</contour>
	</outline>
</glyph>
<glyph name="guarani" format="2">
	<unicode hex="20B2"/>
	<advance width="524"/>
	<outline>
		<contour>
			<point x="250" y="-16" type="curve" smooth="yes"/>
			<point x="309" y="-16"/>
			<point x="368" y="-5"/>
			<point x="436" y="32" type="curve"/>
			<point x="491" y="320" type="line"/>
			<point x="351" y="320" type="line"/>
			<point x="341" y="241"/>
			<point x="329" y="156"/>
			<point x="295" y="-12" type="curve"/>
			<point x="349" y="36" type="line"/>
			<point x="313" y="16"/>
			<point x="298" y="12"/>
			<point x="268" y="12" type="curve" smooth="yes"/>
			<point x="221" y="12"/>
			<point x="189" y="68"/>
			<point x="189" y="170" type="curve" smooth="yes"/>
			<point x="189" y="353"/>
			<point x="273" y="612"/>
			<point x="410" y="612" type="curve" smooth="yes"/>
			<point x="437" y="612"/>
			<point x="465" y="607"/>
			<point x="493" y="588" type="curve"/>
			<point x="430" y="632" type="line"/>
			<point x="485" y="448" type="line"/>
			<point x="513" y="448" type="line"/>
			<point x="536" y="600" type="line"/>
			<point x="501" y="627"/>
			<point x="444" y="640"/>
			<point x="400" y="640" type="curve" smooth="yes"/>
			<point x="188" y="640"/>
			<point x="41" y="472"/>
			<point x="41" y="204" type="curve" smooth="yes"/>
			<point x="41" y="62"/>
			<point x="113" y="-16"/>
		</contour>
		<contour>
			<point x="220" y="-116" type="line"/>
			<point x="250" y="-116" type="line"/>
			<point x="274" y="0" type="line"/>
			<point x="244" y="0" type="line"/>
		</contour>
		<contour>
			<point x="306" y="296" type="line"/>
			<point x="402" y="280" type="line"/>
			<point x="426" y="280" type="line"/>
			<point x="522" y="296" type="line"/>
			<point x="527" y="320" type="line"/>
			<point x="311" y="320" type="line"/>
		</contour>
		<contour>
			<point x="373" y="616" type="line"/>
			<point x="403" y="616" type="line"/>
			<point x="426" y="732" type="line"/>
			<point x="396" y="732" type="line"/>
		</contour>
	</outline>
</glyph>
<glyph name="hryvnia" format="2">
	<unicode hex="20B4"/>
	<advance width="524"/>
	<outline>
		<contour>
			<point x="237" y="-16" type="curve" smooth="yes"/>
			<point x="351" y="-16"/>
			<point x="435" y="35"/>
			<point x="445" y="136" type="curve"/>
			<point x="439" y="168"/>
			<point x="415" y="180"/>
			<point x="393" y="180" type="curve" smooth="yes"/>
			<point x="358" y="180"/>
			<point x="332" y="165"/>
			<point x="321" y="100" type="curve" smooth="yes"/>
			<point x="305" y="8" type="line"/>
			<point x="357" y="40" type="line"/>
			<point x="321" y="22"/>
			<point x="298" y="12"/>
			<point x="256" y="12" type="curve" smooth="yes"/>
			<point x="212" y="12"/>
			<point x="185" y="39"/>
			<point x="185" y="84" type="curve" smooth="yes"/>
			<point x="185" y="155"/>
			<point x="239" y="202"/>
			<point x="309" y="252" type="curve"/>
			<point x="123" y="264" type="line"/>
			<point x="79" y="234"/>
			<point x="43" y="173"/>
			<point x="43" y="118" type="curve" smooth="yes"/>
			<point x="43" y="38"/>
			<point x="107" y="-16"/>
		</contour>
		<contour>
			<point x="262" y="376" type="curve"/>
			<point x="447" y="360" type="line"/>
			<point x="490" y="389"/>
			<point x="527" y="451"/>
			<point x="527" y="505" type="curve" smooth="yes"/>
			<point x="527" y="586"/>
			<point x="462" y="640"/>
			<point x="334" y="640" type="curve" smooth="yes"/>
			<point x="234" y="640"/>
			<point x="140" y="596"/>
			<point x="130" y="500" type="curve"/>
			<point x="136" y="468"/>
			<point x="161" y="456"/>
			<point x="183" y="456" type="curve" smooth="yes"/>
			<point x="218" y="456"/>
			<point x="241" y="471"/>
			<point x="252" y="536" type="curve" smooth="yes"/>
			<point x="268" y="624" type="line"/>
			<point x="214" y="584" type="line"/>
			<point x="250" y="602"/>
			<point x="273" y="612"/>
			<point x="314" y="612" type="curve" smooth="yes"/>
			<point x="357" y="612"/>
			<point x="385" y="585"/>
			<point x="385" y="540" type="curve" smooth="yes"/>
			<point x="385" y="467"/>
			<point x="331" y="425"/>
		</contour>
		<contour>
			<point x="37" y="252" type="line"/>
			<point x="497" y="252" type="line"/>
			<point x="502" y="280" type="line"/>
			<point x="42" y="280" type="line"/>
		</contour>
		<contour>
			<point x="56" y="348" type="line"/>
			<point x="516" y="348" type="line"/>
			<point x="522" y="376" type="line"/>
			<point x="62" y="376" type="line"/>
		</contour>
		<contour>
			<point x="115" y="264" type="line"/>
			<point x="313" y="252" type="line"/>
			<point x="455" y="360" type="line"/>
			<point x="258" y="376" type="line"/>
		</contour>
	</outline>
</glyph>
<glyph name="tenge" format="2">
	<unicode hex="20B8"/>
	<advance width="524"/>
	<outline>
		<contour>
			<point x="46" y="356" type="line"/>
			<point x="70" y="356" type="line"/>
			<point x="174" y="532" type="line"/>
			<point x="133" y="516" type="line"/>
			<point x="489" y="516" type="line"/>
			<point x="458" y="532" type="line"/>
			<point x="507" y="356" type="line"/>
			<point x="531" y="356" type="line"/>
			<point x="554" y="544" type="line"/>
			<point x="78" y="544" type="line"/>
		</contour>
		<contour>
			<point x="58" y="0" type="line"/>
			<point x="370" y="0" type="line"/>
			<point x="374" y="24" type="line"/>
			<point x="270" y="40" type="line"/>
			<point x="174" y="40" type="line"/>
			<point x="62" y="24" type="line"/>
		</contour>
		<contour>
			<point x="140" y="0" type="line"/>
			<point x="302" y="0" type="line"/>
			<point x="314" y="85"/>
			<point x="327" y="174"/>
			<point x="344" y="261" type="curve" smooth="yes"/>
			<point x="399" y="544" type="line"/>
			<point x="237" y="544" type="line"/>
			<point x="225" y="459"/>
			<point x="212" y="370"/>
			<point x="195" y="283" type="curve" smooth="yes"/>
		</contour>
		<contour>
			<point x="92" y="606" type="line"/>
			<point x="565" y="606" type="line"/>
			<point x="570" y="634" type="line"/>
			<point x="97" y="634" type="line"/>
		</contour>
	</outline>
</glyph>
<glyph name="rupeeindian" format="2">
	<unicode hex="20B9"/>
	<advance width="524"/>
	<outline>
		<contour>
			<point x="89" y="432" type="line"/>
			<point x="513" y="432" type="line"/>
			<point x="519" y="460" type="line"/>
			<point x="95" y="460" type="line"/>
		</contour>
		<contour>
			<point x="59" y="300" type="line"/>
			<point x="52" y="269" type="line"/>
			<point x="112" y="269" type="line" smooth="yes"/>
			<point x="169" y="269"/>
			<point x="192" y="224"/>
			<point x="199" y="167" type="curve" smooth="yes"/>
			<point x="209" y="84" type="line" smooth="yes"/>
			<point x="217" y="16"/>
			<point x="247" y="-12"/>
			<point x="331" y="-12" type="curve" smooth="yes"/>
			<point x="367" y="-12"/>
			<point x="400" y="-8"/>
			<point x="437" y="-1" type="curve"/>
			<point x="442" y="24" type="line"/>
			<point x="346" y="40" type="line"/>
			<point x="394" y="12" type="line"/>
			<point x="371" y="132" type="line" smooth="yes"/>
			<point x="351" y="235"/>
			<point x="300" y="289"/>
			<point x="143" y="289" type="curve"/>
			<point x="144" y="282" type="line"/>
			<point x="342" y="283"/>
			<point x="423" y="373"/>
			<point x="423" y="476" type="curve" smooth="yes"/>
			<point x="423" y="535"/>
			<point x="394" y="586"/>
			<point x="329" y="605" type="curve"/>
			<point x="333" y="596" type="line"/>
			<point x="547" y="596" type="line"/>
			<point x="552" y="624" type="line"/>
			<point x="122" y="624" type="line"/>
			<point x="116" y="594" type="line"/>
			<point x="157" y="594" type="line" smooth="yes"/>
			<point x="220" y="594"/>
			<point x="272" y="567"/>
			<point x="272" y="493" type="curve" smooth="yes"/>
			<point x="272" y="367"/>
			<point x="213" y="300"/>
			<point x="104" y="300" type="curve" smooth="yes"/>
		</contour>
	</outline>
</glyph>
<glyph name="litre" format="2">
	<unicode hex="2113"/>
	<advance width="517"/>
	<outline>
		<contour>
			<point x="279" y="-16" type="curve" smooth="yes"/>
			<point x="370" y="-16"/>
			<point x="426" y="30"/>
			<point x="486" y="88" type="curve"/>
			<point x="465" y="126" type="line"/>
			<point x="419" y="92"/>
			<point x="374" y="73"/>
			<point x="339" y="73" type="curve" smooth="yes"/>
			<point x="277" y="73"/>
			<point x="233" y="130"/>
			<point x="233" y="224" type="curve" smooth="yes"/>
			<point x="233" y="435"/>
			<point x="318" y="671"/>
			<point x="367" y="671" type="curve" smooth="yes"/>
			<point x="385" y="671"/>
			<point x="399" y="662"/>
			<point x="399" y="599" type="curve" smooth="yes"/>
			<point x="399" y="447"/>
			<point x="340" y="345"/>
			<point x="219" y="209" type="curve"/>
			<point x="20" y="49" type="line"/>
			<point x="46" y="7" type="line"/>
			<point x="327" y="220"/>
			<point x="529" y="378"/>
			<point x="529" y="595" type="curve" smooth="yes"/>
			<point x="529" y="677"/>
			<point x="480" y="731"/>
			<point x="396" y="731" type="curve" smooth="yes"/>
			<point x="239" y="731"/>
			<point x="65" y="516"/>
			<point x="65" y="248" type="curve" smooth="yes"/>
			<point x="65" y="59"/>
			<point x="165" y="-16"/>
		</contour>
	</outline>
</glyph>
<glyph name="numero" format="2">
	<unicode hex="2116"/>
	<advance width="939"/>
	<outline>
		<contour>
			<point x="29" y="-32" type="curve" smooth="yes"/>
			<point x="118" y="-32"/>
			<point x="146" y="80"/>
			<point x="178" y="252" type="curve" smooth="yes"/>
			<point x="230" y="528" type="line"/>
			<point x="204" y="565" type="line"/>
			<point x="146" y="252" type="line" smooth="yes"/>
			<point x="125" y="141"/>
			<point x="109" y="90"/>
			<point x="87" y="52" type="curve"/>
			<point x="93" y="48" type="line"/>
			<point x="105" y="40" type="line"/>
			<point x="82" y="80"/>
			<point x="52" y="92"/>
			<point x="27" y="92" type="curve" smooth="yes"/>
			<point x="-12" y="92"/>
			<point x="-38" y="64"/>
			<point x="-42" y="28" type="curve"/>
			<point x="-36" y="-13"/>
			<point x="-5" y="-32"/>
		</contour>
		<contour>
			<point x="375" y="0" type="line"/>
			<point x="472" y="0" type="line"/>
			<point x="541" y="376" type="line" smooth="yes"/>
			<point x="561" y="487"/>
			<point x="578" y="538"/>
			<point x="600" y="576" type="curve"/>
			<point x="590" y="583" type="line"/>
			<point x="582" y="588" type="line"/>
			<point x="605" y="548"/>
			<point x="635" y="536"/>
			<point x="660" y="536" type="curve" smooth="yes"/>
			<point x="699" y="536"/>
			<point x="725" y="564"/>
			<point x="729" y="600" type="curve"/>
			<point x="723" y="641"/>
			<point x="692" y="660"/>
			<point x="658" y="660" type="curve" smooth="yes"/>
			<point x="569" y="660"/>
			<point x="541" y="548"/>
			<point x="509" y="376" type="curve" smooth="yes"/>
			<point x="469" y="159" type="line"/>
			<point x="500" y="164" type="line"/>
			<point x="337" y="624" type="line"/>
			<point x="123" y="624" type="line"/>
			<point x="119" y="600" type="line"/>
			<point x="228" y="584" type="line"/>
			<point x="153" y="616" type="line"/>
		</contour>
		<contour>
			<point x="571" y="0" type="line"/>
			<point x="883" y="0" type="line"/>
			<point x="889" y="32" type="line"/>
			<point x="577" y="32" type="line"/>
		</contour>
		<contour>
			<point x="760" y="132" type="curve" smooth="yes"/>
			<point x="858" y="132"/>
			<point x="945" y="212"/>
			<point x="945" y="330" type="curve" smooth="yes"/>
			<point x="945" y="415"/>
			<point x="885" y="468"/>
			<point x="803" y="468" type="curve" smooth="yes"/>
			<point x="705" y="468"/>
			<point x="620" y="388"/>
			<point x="620" y="270" type="curve" smooth="yes"/>
			<point x="620" y="185"/>
			<point x="678" y="132"/>
		</contour>
		<contour>
			<point x="761" y="156" type="curve" smooth="yes"/>
			<point x="736" y="156"/>
			<point x="724" y="178"/>
			<point x="724" y="227" type="curve" smooth="yes"/>
			<point x="724" y="361"/>
			<point x="770" y="444"/>
			<point x="804" y="444" type="curve" smooth="yes"/>
			<point x="829" y="444"/>
			<point x="841" y="422"/>
			<point x="841" y="373" type="curve" smooth="yes"/>
			<point x="841" y="239"/>
			<point x="795" y="156"/>
		</contour>
	</outline>
</glyph>
<glyph name="soundcopyright" format="2">
	<unicode hex="2117"/>
	<advance width="740"/>
	<outline>
		<contour>
			<point x="319" y="288" type="line"/>
			<point x="396" y="288" type="line" smooth="yes"/>
			<point x="494" y="288"/>
			<point x="592" y="317"/>
			<point x="592" y="423" type="curve" smooth="yes"/>
			<point x="592" y="481"/>
			<point x="552" y="526"/>
			<point x="434" y="526" type="curve" smooth="yes"/>
			<point x="363" y="526" type="line"/>
			<point x="360" y="506" type="line"/>
			<point x="426" y="506" type="line" smooth="yes"/>
			<point x="458" y="506"/>
			<point x="476" y="474"/>
			<point x="476" y="433" type="curve" smooth="yes"/>
			<point x="476" y="381"/>
			<point x="449" y="308"/>
			<point x="390" y="308" type="curve" smooth="yes"/>
			<point x="322" y="308" type="line"/>
		</contour>
		<contour>
			<point x="198" y="137" type="line"/>
			<point x="403" y="137" type="line"/>
			<point x="406" y="154" type="line"/>
			<point x="337" y="165" type="line"/>
			<point x="270" y="165" type="line"/>
			<point x="201" y="154" type="line"/>
		</contour>
		<contour>
			<point x="267" y="508" type="line"/>
			<point x="332" y="497" type="line"/>
			<point x="396" y="497" type="line"/>
			<point x="401" y="526" type="line"/>
			<point x="270" y="526" type="line"/>
		</contour>
		<contour>
			<point x="237" y="137" type="line"/>
			<point x="357" y="137" type="line"/>
			<point x="429" y="526" type="line"/>
			<point x="309" y="526" type="line"/>
		</contour>
		<contour>
			<point x="343" y="-16" type="curve" smooth="yes"/>
			<point x="537" y="-16"/>
			<point x="732" y="142"/>
			<point x="732" y="384" type="curve" smooth="yes"/>
			<point x="732" y="560"/>
			<point x="601" y="676"/>
			<point x="438" y="676" type="curve" smooth="yes"/>
			<point x="244" y="676"/>
			<point x="49" y="518"/>
			<point x="49" y="276" type="curve" smooth="yes"/>
			<point x="49" y="100"/>
			<point x="180" y="-16"/>
		</contour>
		<contour>
			<point x="348" y="21" type="curve" smooth="yes"/>
			<point x="207" y="21"/>
			<point x="95" y="121"/>
			<point x="95" y="276" type="curve" smooth="yes"/>
			<point x="95" y="492"/>
			<point x="264" y="639"/>
			<point x="433" y="639" type="curve" smooth="yes"/>
			<point x="574" y="639"/>
			<point x="686" y="539"/>
			<point x="686" y="384" type="curve" smooth="yes"/>
			<point x="686" y="168"/>
			<point x="517" y="21"/>
		</contour>
	</outline>
</glyph>
<glyph name="arrowright" format="2">
	<unicode hex="2192"/>
	<advance width="660"/>
	<outline>
		<contour>
			<point x="24" y="229" type="line"/>
			<point x="184" y="229" type="line"/>
			<point x="558" y="254" type="line"/>
			<point x="546" y="276" type="line"/>
			<point x="322" y="-23" type="line"/>
			<point x="338" y="-39" type="line"/>
			<point x="664" y="260" type="line"/>
			<point x="664" y="310" type="line"/>
			<point x="338" y="609" type="line"/>
			<point x="322" y="593" type="line"/>
			<point x="546" y="294" type="line"/>
			<point x="558" y="316" type="line"/>
			<point x="184" y="341" type="line"/>
			<point x="24" y="341" type="line"/>
		</contour>
	</outline>
</glyph>
<glyph name="arrowupright" format="2">
	<unicode hex="2197"/>
	<advance width="660"/>
	<outline>
		<contour>
			<point x="157" y="19" type="line"/>
			<point x="270" y="132" type="line"/>
			<point x="517" y="415" type="line"/>
			<point x="493" y="422" type="line"/>
			<point x="546" y="52" type="line"/>
			<point x="569" y="52" type="line"/>
			<point x="588" y="494" type="line"/>
			<point x="553" y="529" type="line"/>
			<point x="111" y="510" type="line"/>
			<point x="111" y="487" type="line"/>
			<point x="481" y="434" type="line"/>
			<point x="474" y="458" type="line"/>
			<point x="191" y="211" type="line"/>
			<point x="78" y="98" type="line"/>
		</contour>
	</outline>
</glyph>
<glyph name="product" format="2">
	<unicode hex="220F"/>
	<advance width="672"/>
	<outline>
		<contour>
			<point x="104" y="-120" type="curve"/>
			<point x="271" y="-120" type="line"/>
			<point x="267" y="-42"/>
			<point x="266" y="85"/>
			<point x="266" y="188" type="curve" smooth="yes"/>
			<point x="266" y="351" type="line" smooth="yes"/>
			<point x="266" y="452"/>
			<point x="267" y="574"/>
			<point x="271" y="652" type="curve"/>
			<point x="105" y="652" type="line"/>
			<point x="109" y="574"/>
			<point x="110" y="452"/>
			<point x="110" y="351" type="curve" smooth="yes"/>
			<point x="110" y="188" type="line" smooth="yes"/>
			<point x="110" y="85"/>
			<point x="108" y="-42"/>
		</contour>
		<contour>
			<point x="437" y="-120" type="curve"/>
			<point x="603" y="-120" type="line"/>
			<point x="599" y="-42"/>
			<point x="598" y="85"/>
			<point x="598" y="188" type="curve" smooth="yes"/>
			<point x="598" y="351" type="line" smooth="yes"/>
			<point x="598" y="452"/>
			<point x="599" y="574"/>
			<point x="603" y="652" type="curve"/>
			<point x="437" y="652" type="line"/>
			<point x="441" y="574"/>
			<point x="442" y="452"/>
			<point x="442" y="351" type="curve" smooth="yes"/>
			<point x="442" y="188" type="line" smooth="yes"/>
			<point x="442" y="85"/>
			<point x="441" y="-42"/>
		</contour>
		<contour>
			<point x="46" y="-120" type="line"/>
			<point x="330" y="-120" type="line"/>
			<point x="330" y="-96" type="line"/>
			<point x="226" y="-80" type="line"/>
			<point x="150" y="-80" type="line"/>
			<point x="46" y="-96" type="line"/>
		</contour>
		<contour>
			<point x="378" y="-120" type="line"/>
			<point x="662" y="-120" type="line"/>
			<point x="662" y="-96" type="line"/>
			<point x="558" y="-80" type="line"/>
			<point x="482" y="-80" type="line"/>
			<point x="378" y="-96" type="line"/>
		</contour>
		<contour>
			<point x="46" y="628" type="line"/>
			<point x="150" y="612" type="line"/>
			<point x="230" y="612" type="line"/>
			<point x="230" y="652" type="line"/>
			<point x="46" y="652" type="line"/>
		</contour>
		<contour>
			<point x="478" y="612" type="line"/>
			<point x="558" y="612" type="line"/>
			<point x="662" y="628" type="line"/>
			<point x="662" y="652" type="line"/>
			<point x="478" y="652" type="line"/>
		</contour>
		<contour>
			<point x="190" y="624" type="line"/>
			<point x="518" y="624" type="line"/>
			<point x="518" y="652" type="line"/>
			<point x="190" y="652" type="line"/>
		</contour>
	</outline>
</glyph>
<glyph name="lozenge" format="2">
	<unicode hex="25CA"/>
	<advance width="620"/>
	<outline>
		<contour>
			<point x="494" y="320" type="line"/>
			<point x="324" y="77" type="line"/>
			<point x="149" y="331" type="line"/>
			<point x="319" y="574" type="line"/>
		</contour>
		<contour>
			<point x="626" y="324" type="line"/>
			<point x="346" y="728" type="line"/>
			<point x="298" y="728" type="line"/>
			<point x="18" y="328" type="line"/>
			<point x="298" y="-76" type="line"/>
			<point x="346" y="-76" type="line"/>
		</contour>
	</outline>
</glyph>
<glyph name="eighthnote" format="2">
	<unicode hex="266A"/>
	<advance width="577"/>
	<outline>
		<contour>
			<point x="54" y="58" type="curve" smooth="yes"/>
			<point x="54" y="7"/>
			<point x="95" y="-16"/>
			<point x="151" y="-16" type="curve" smooth="yes"/>
			<point x="250" y="-16"/>
			<point x="308" y="48"/>
			<point x="308" y="142" type="curve" smooth="yes"/>
			<point x="307" y="634" type="line"/>
			<point x="295" y="476" type="line"/>
			<point x="357" y="421"/>
			<point x="381" y="403"/>
			<point x="409" y="377" type="curve" smooth="yes"/>
			<point x="442" y="346"/>
			<point x="477" y="314"/>
			<point x="477" y="277" type="curve" smooth="yes"/>
			<point x="477" y="255"/>
			<point x="472" y="236"/>
			<point x="460" y="206" type="curve"/>
			<point x="479" y="196" type="line"/>
			<point x="516" y="249"/>
			<point x="551" y="308"/>
			<point x="551" y="372" type="curve" smooth="yes"/>
			<point x="551" y="468"/>
			<point x="497" y="513"/>
			<point x="414" y="572" type="curve" smooth="yes"/>
			<point x="358" y="613"/>
			<point x="308" y="664"/>
			<point x="290" y="728" type="curve"/>
			<point x="275" y="728" type="line"/>
			<point x="275" y="108" type="line"/>
			<point x="283" y="148" type="line"/>
			<point x="259" y="160"/>
			<point x="231" y="166"/>
			<point x="200" y="166" type="curve" smooth="yes"/>
			<point x="114" y="166"/>
			<point x="54" y="120"/>
		</contour>
	</outline>
</glyph>
<glyph name="squareshadow" format="2">
	<unicode hex="2752"/>
	<advance width="977"/>
	<outline>
		<contour>
			<point x="144" y="0" type="line"/>
			<point x="144" y="600" type="line"/>
			<point x="754" y="600" type="line"/>
			<point x="754" y="0" type="line"/>
		</contour>
		<contour>
			<point x="62" y="-76" type="line"/>
			<point x="831" y="-76" type="line"/>
			<point x="943" y="72" type="line"/>
			<point x="943" y="768" type="line"/>
			<point x="218" y="768" type="line"/>
			<point x="62" y="652" type="line"/>
		</contour>
	</outline>
</glyph>
<glyph name="twoemdash" format="2">
	<unicode hex="2E3A"/>
	<advance width="1520"/>
	<outline>
		<contour>
			<point x="37" y="212" type="line"/>
			<point x="1485" y="212" type="line"/>
			<point x="1485" y="264" type="line"/>
			<point x="37" y="264" type="line"/>
		</contour>
	</outline>
</glyph>
<glyph name="threeemdash" format="2">
	<unicode hex="2E3B"/>
	<advance width="2232"/>
	<outline>
		<contour>
			<point x="43" y="230" type="line"/>
			<point x="2203" y="230" type="line"/>
			<point x="2203" y="280" type="line"/>
			<point x="43" y="280" type="line"/>
		</contour>
	</outline>
</glyph>
<glyph name="copyleft" format="2">
	<unicode hex="1F12F"/>
	<advance width="740"/>
	<outline>
		<contour>
			<point x="343" y="-16" type="curve" smooth="yes"/>
			<point x="537" y="-16"/>
			<point x="732" y="142"/>
			<point x="732" y="384" type="curve" smooth="yes"/>
			<point x="732" y="560"/>
			<point x="601" y="676"/>
			<point x="438" y="676" type="curve" smooth="yes"/>
			<point x="244" y="676"/>
			<point x="49" y="518"/>
			<point x="49" y="276" type="curve" smooth="yes"/>
			<point x="49" y="100"/>
			<point x="180" y="-16"/>
		</contour>
		<contour>
			<point x="348" y="21" type="curve" smooth="yes"/>
			<point x="207" y="21"/>
			<point x="95" y="121"/>
			<point x="95" y="276" type="curve" smooth="yes"/>
			<point x="95" y="492"/>
			<point x="264" y="639"/>
			<point x="433" y="639" type="curve" smooth="yes"/>
			<point x="574" y="639"/>
			<point x="686" y="539"/>
			<point x="686" y="384" type="curve" smooth="yes"/>
			<point x="686" y="168"/>
			<point x="517" y="21"/>
		</contour>
		<contour>
			<point x="341" y="124" type="curve" smooth="yes"/>
			<point x="491" y="124"/>
			<point x="582" y="247"/>
			<point x="582" y="373" type="curve" smooth="yes"/>
			<point x="582" y="466"/>
			<point x="529" y="532"/>
			<point x="403" y="532" type="curve" smooth="yes"/>
			<point x="371" y="532"/>
			<point x="325" y="522"/>
			<point x="298" y="510" type="curve"/>
			<point x="278" y="409" type="line"/>
			<point x="294" y="409" type="line"/>
			<point x="365" y="517" type="line"/>
			<point x="313" y="488" type="line"/>
			<point x="337" y="502"/>
			<point x="365" y="512"/>
			<point x="396" y="512" type="curve" smooth="yes"/>
			<point x="442" y="512"/>
			<point x="462" y="452"/>
			<point x="462" y="387" type="curve" smooth="yes"/>
			<point x="462" y="267"/>
			<point x="411" y="144"/>
			<point x="335" y="144" type="curve" smooth="yes"/>
			<point x="308" y="144"/>
			<point x="288" y="152"/>
			<point x="268" y="168" type="curve"/>
			<point x="302" y="138" type="line"/>
			<point x="269" y="260" type="line"/>
			<point x="252" y="260" type="line"/>
			<point x="240" y="147" type="line"/>
			<point x="266" y="135"/>
			<point x="300" y="124"/>
		</contour>
	</outline>
</glyph>
<glyph name="deposeemark" format="2">
	<unicode hex="1F16B"/>
	<advance width="766"/>
	<outline>
		<contour>
			<point x="42" y="355" type="line"/>
			<point x="121" y="355" type="line"/>
			<point x="125" y="372" type="line"/>
			<point x="94" y="377" type="line"/>
			<point x="76" y="377" type="line"/>
			<point x="46" y="372" type="line"/>
		</contour>
		<contour>
			<point x="68" y="355" type="line"/>
			<point x="91" y="355" type="line"/>
			<point x="160" y="637" type="line"/>
			<point x="137" y="637" type="line"/>
		</contour>
		<contour>
			<point x="178" y="355" type="line"/>
			<point x="224" y="355" type="line"/>
			<point x="356" y="612" type="line"/>
			<point x="372" y="612" type="line"/>
			<point x="372" y="652" type="line"/>
			<point x="353" y="652" type="line"/>
			<point x="262" y="474" type="line"/>
			<point x="268" y="474" type="line"/>
			<point x="244" y="652" type="line"/>
			<point x="110" y="652" type="line"/>
			<point x="106" y="634" type="line"/>
			<point x="138" y="629" type="line"/>
			<point x="138" y="612" type="line"/>
			<point x="141" y="612" type="line"/>
		</contour>
		<contour>
			<point x="281" y="355" type="line"/>
			<point x="452" y="355" type="line"/>
			<point x="456" y="372" type="line"/>
			<point x="401" y="381" type="line"/>
			<point x="344" y="381" type="line"/>
			<point x="285" y="372" type="line"/>
		</contour>
		<contour>
			<point x="312" y="355" type="line"/>
			<point x="424" y="355" type="line"/>
			<point x="464" y="652" type="line"/>
			<point x="356" y="652" type="line"/>
			<point x="345" y="615" type="line"/>
		</contour>
		<contour>
			<point x="376" y="626" type="line"/>
			<point x="431" y="626" type="line"/>
			<point x="488" y="634" type="line"/>
			<point x="492" y="652" type="line"/>
			<point x="376" y="652" type="line"/>
		</contour>
		<contour>
			<point x="475" y="355" type="line"/>
			<point x="534" y="355" type="line"/>
			<point x="539" y="381" type="line"/>
			<point x="534" y="381" type="line"/>
			<point x="478" y="372" type="line"/>
		</contour>
		<contour>
			<point x="502" y="355" type="line"/>
			<point x="618" y="355" type="line"/>
			<point x="674" y="652" type="line"/>
			<point x="558" y="652" type="line"/>
		</contour>
		<contour>
			<point x="526" y="634" type="line"/>
			<point x="580" y="626" type="line"/>
			<point x="585" y="626" type="line"/>
			<point x="590" y="652" type="line"/>
			<point x="530" y="652" type="line"/>
		</contour>
		<contour>
			<point x="574" y="355" type="line"/>
			<point x="621" y="355" type="line" smooth="yes"/>
			<point x="740" y="355"/>
			<point x="827" y="414"/>
			<point x="827" y="531" type="curve" smooth="yes"/>
			<point x="827" y="600"/>
			<point x="783" y="652"/>
			<point x="672" y="652" type="curve" smooth="yes"/>
			<point x="630" y="652" type="line"/>
			<point x="626" y="630" type="line"/>
			<point x="671" y="630" type="line" smooth="yes"/>
			<point x="699" y="630"/>
			<point x="715" y="602"/>
			<point x="715" y="555" type="curve" smooth="yes"/>
			<point x="715" y="505"/>
			<point x="690" y="377"/>
			<point x="627" y="377" type="curve" smooth="yes"/>
			<point x="578" y="377" type="line"/>
		</contour>
	</outline>
</glyph>
<glyph name="Ef.bgr" format="2">
	<advance width="736"/>
	<outline>
		<contour>
			<point x="298" y="54" type="curve"/>
			<point x="282" y="80" type="line"/>
			<point x="226" y="80"/>
			<point x="194" y="134"/>
			<point x="194" y="228" type="curve" smooth="yes"/>
			<point x="194" y="412"/>
			<point x="278" y="576"/>
			<point x="374" y="576" type="curve"/>
			<point x="386" y="602" type="line"/>
			<point x="180" y="602"/>
			<point x="42" y="454"/>
			<point x="42" y="264" type="curve" smooth="yes"/>
			<point x="42" y="125"/>
			<point x="145" y="54"/>
		</contour>
		<contour>
			<point x="186" y="-56" type="line"/>
			<point x="461" y="-56" type="line"/>
			<point x="466" y="-32" type="line"/>
			<point x="366" y="-16" type="line"/>
			<point x="294" y="-16" type="line"/>
			<point x="191" y="-32" type="line"/>
		</contour>
		<contour>
			<point x="315" y="691" type="line"/>
			<point x="415" y="675" type="line"/>
			<point x="487" y="675" type="line"/>
			<point x="591" y="691" type="line"/>
			<point x="596" y="715" type="line"/>
			<point x="320" y="715" type="line"/>
		</contour>
		<contour>
			<point x="386" y="54" type="line"/>
			<point x="576" y="54"/>
			<point x="734" y="171"/>
			<point x="734" y="388" type="curve" smooth="yes"/>
			<point x="734" y="517"/>
			<point x="639" y="602"/>
			<point x="482" y="602" type="curve"/>
			<point x="494" y="576" type="line"/>
			<point x="555" y="576"/>
			<point x="586" y="523"/>
			<point x="586" y="436" type="curve" smooth="yes"/>
			<point x="586" y="246"/>
			<point x="492" y="80"/>
			<point x="402" y="80" type="curve"/>
		</contour>
		<contour>
			<point x="242" y="-56" type="line"/>
			<point x="403" y="-56" type="line"/>
			<point x="538" y="715" type="line"/>
			<point x="377" y="715" type="line"/>
		</contour>
	</outline>
</glyph>
<glyph name="ampersand.alt" format="2">
	<advance width="992"/>
	<outline>
		<contour>
			<point x="6" y="148" type="curve" smooth="yes"/>
			<point x="6" y="48"/>
			<point x="76" y="-16"/>
			<point x="178" y="-16" type="curve" smooth="yes"/>
			<point x="291" y="-16"/>
			<point x="367" y="53"/>
			<point x="425" y="154" type="curve"/>
			<point x="442" y="154" type="line"/>
			<point x="431" y="196" type="line"/>
			<point x="364" y="116"/>
			<point x="313" y="95"/>
			<point x="256" y="95" type="curve" smooth="yes"/>
			<point x="204" y="95"/>
			<point x="151" y="131"/>
			<point x="151" y="206" type="curve" smooth="yes"/>
			<point x="151" y="282"/>
			<point x="185" y="336"/>
			<point x="263" y="384" type="curve"/>
			<point x="273" y="384" type="line"/>
			<point x="251" y="396" type="line"/>
			<point x="75" y="332"/>
			<point x="6" y="245"/>
		</contour>
		<contour>
			<point x="717" y="-20" type="curve" smooth="yes"/>
			<point x="854" y="-20"/>
			<point x="947" y="61"/>
			<point x="947" y="145" type="curve" smooth="yes"/>
			<point x="947" y="182"/>
			<point x="931" y="206"/>
			<point x="893" y="217" type="curve"/>
			<point x="849" y="213"/>
			<point x="812" y="184"/>
			<point x="812" y="135" type="curve" smooth="yes"/>
			<point x="812" y="105"/>
			<point x="825" y="79"/>
			<point x="850" y="42" type="curve"/>
			<point x="885" y="73" type="line"/>
			<point x="849" y="46"/>
			<point x="841" y="30"/>
			<point x="779" y="30" type="curve" smooth="yes"/>
			<point x="718" y="30"/>
			<point x="647" y="74"/>
			<point x="586" y="162" type="curve" smooth="yes"/>
			<point x="518" y="260"/>
			<point x="441" y="363"/>
			<point x="353" y="449" type="curve" smooth="yes"/>
			<point x="309" y="492"/>
			<point x="284" y="525"/>
			<point x="284" y="567" type="curve" smooth="yes"/>
			<point x="284" y="611"/>
			<point x="311" y="636"/>
			<point x="345" y="636" type="curve" smooth="yes"/>
			<point x="373" y="636"/>
			<point x="400" y="615"/>
			<point x="400" y="556" type="curve" smooth="yes"/>
			<point x="400" y="514"/>
			<point x="376" y="467"/>
			<point x="346" y="448" type="curve"/>
			<point x="336" y="448" type="line"/>
			<point x="359" y="431" type="line"/>
			<point x="428" y="457"/>
			<point x="499" y="497"/>
			<point x="499" y="560" type="curve" smooth="yes"/>
			<point x="499" y="629"/>
			<point x="432" y="668"/>
			<point x="352" y="668" type="curve" smooth="yes"/>
			<point x="250" y="668"/>
			<point x="164" y="615"/>
			<point x="164" y="512" type="curve" smooth="yes"/>
			<point x="164" y="455"/>
			<point x="184" y="414"/>
			<point x="251" y="347" type="curve" smooth="yes"/>
			<point x="327" y="271"/>
			<point x="388" y="184"/>
			<point x="434" y="121" type="curve" smooth="yes"/>
			<point x="520" y="1"/>
			<point x="619" y="-20"/>
		</contour>
		<contour>
			<point x="866" y="656" type="curve" smooth="yes"/>
			<point x="737" y="656"/>
			<point x="610" y="476"/>
			<point x="488" y="271" type="curve"/>
			<point x="478" y="271" type="line"/>
			<point x="504" y="252" type="line"/>
			<point x="632" y="455"/>
			<point x="741" y="594"/>
			<point x="866" y="604" type="curve"/>
			<point x="770" y="598" type="line"/>
			<point x="812" y="530"/>
			<point x="846" y="514"/>
			<point x="881" y="514" type="curve" smooth="yes"/>
			<point x="923" y="514"/>
			<point x="955" y="540"/>
			<point x="962" y="579" type="curve"/>
			<point x="953" y="628"/>
			<point x="913" y="656"/>
		</contour>
	</outline>
</glyph>
<glyph name="bracketleft.sups" format="2">
	<advance width="259"/>
	<outline>
		<contour>
			<point x="83" y="302" type="line"/>
			<point x="193" y="302" type="line"/>
			<point x="296" y="868" type="line"/>
			<point x="186" y="868" type="line"/>
		</contour>
		<contour>
			<point x="125" y="302" type="line"/>
			<point x="242" y="302" type="line"/>
			<point x="246" y="318" type="line"/>
			<point x="171" y="329" type="line"/>
			<point x="130" y="329" type="line"/>
		</contour>
		<contour>
			<point x="223" y="841" type="line"/>
			<point x="263" y="841" type="line"/>
			<point x="342" y="852" type="line"/>
			<point x="345" y="868" type="line"/>
			<point x="228" y="868" type="line"/>
		</contour>
	</outline>
</glyph>
<glyph name="bracketright.sups" format="2">
	<advance width="259"/>
	<outline>
		<contour>
			<point x="12" y="301" type="line"/>
			<point x="129" y="301" type="line"/>
			<point x="134" y="328" type="line"/>
			<point x="94" y="328" type="line"/>
			<point x="15" y="318" type="line"/>
		</contour>
		<contour>
			<point x="61" y="301" type="line"/>
			<point x="171" y="301" type="line"/>
			<point x="274" y="868" type="line"/>
			<point x="164" y="868" type="line"/>
		</contour>
		<contour>
			<point x="111" y="852" type="line"/>
			<point x="187" y="841" type="line"/>
			<point x="227" y="841" type="line"/>
			<point x="232" y="868" type="line"/>
			<point x="115" y="868" type="line"/>
		</contour>
	</outline>
</glyph>
<glyph name="breveacute" format="2">
	<outline>
		<contour>
			<point x="120" y="536" type="curve" smooth="yes"/>
			<point x="216" y="536"/>
			<point x="262" y="591"/>
			<point x="290" y="658" type="curve"/>
			<point x="263" y="671" type="line"/>
			<point x="228" y="628"/>
			<point x="185" y="611"/>
			<point x="126" y="611" type="curve" smooth="yes"/>
			<point x="67" y="611"/>
			<point x="30" y="628"/>
			<point x="12" y="671" type="curve"/>
			<point x="-19" y="658" type="line"/>
			<point x="-15" y="591"/>
			<point x="24" y="536"/>
		</contour>
		<contour>
			<point x="123" y="651" type="line"/>
			<point x="154" y="670" type="line" smooth="yes"/>
			<point x="246" y="727"/>
			<point x="275" y="757"/>
			<point x="275" y="786" type="curve" smooth="yes"/>
			<point x="275" y="810"/>
			<point x="252" y="827"/>
			<point x="234" y="827" type="curve" smooth="yes"/>
			<point x="198" y="827"/>
			<point x="180" y="807"/>
			<point x="129" y="708" type="curve" smooth="yes"/>
			<point x="107" y="665" type="line"/>
		</contour>
	</outline>
	<anchor name="_aboveLC" x="102" y="480"/>
</glyph>
<glyph name="caron.alt" format="2">
	<advance width="15"/>
	<outline>
		<contour>
			<point x="117" y="720" type="curve" smooth="yes"/>
			<point x="101" y="720"/>
			<point x="85" y="713"/>
			<point x="70" y="704" type="curve"/>
			<point x="27" y="492" type="line"/>
			<point x="63" y="492" type="line"/>
			<point x="108" y="584" type="line" smooth="yes"/>
			<point x="129" y="627"/>
			<point x="154" y="658"/>
			<point x="154" y="686" type="curve" smooth="yes"/>
			<point x="154" y="703"/>
			<point x="143" y="720"/>
		</contour>
	</outline>
</glyph>
<glyph name="circumflexgrave" format="2">
	<outline>
		<contour>
			<point x="-29" y="528" type="line"/>
			<point x="145" y="624" type="line"/>
			<point x="113" y="624" type="line"/>
			<point x="244" y="528" type="line"/>
			<point x="260" y="543" type="line"/>
			<point x="176" y="707" type="line"/>
			<point x="104" y="707" type="line"/>
			<point x="-43" y="547" type="line"/>
		</contour>
		<contour>
			<point x="-31" y="617" type="line"/>
			<point x="-16" y="633" type="line"/>
			<point x="-32" y="677" type="line" smooth="yes"/>
			<point x="-56" y="744"/>
			<point x="-70" y="770"/>
			<point x="-108" y="770" type="curve" smooth="yes"/>
			<point x="-131" y="770"/>
			<point x="-153" y="754"/>
			<point x="-153" y="726" type="curve" smooth="yes"/>
			<point x="-153" y="692"/>
			<point x="-125" y="675"/>
			<point x="-85" y="650" type="curve" smooth="yes"/>
		</contour>
	</outline>
	<anchor name="_aboveLC" x="102" y="480"/>
</glyph>
<glyph name="circumflextilde" format="2">
	<outline>
		<contour>
			<point x="-42" y="528" type="line"/>
			<point x="144" y="604" type="line"/>
			<point x="112" y="604" type="line"/>
			<point x="263" y="528" type="line"/>
			<point x="279" y="543" type="line"/>
			<point x="169" y="675" type="line"/>
			<point x="101" y="675" type="line"/>
			<point x="-56" y="547" type="line"/>
		</contour>
		<contour>
			<point x="-5" y="694" type="line"/>
			<point x="13" y="716"/>
			<point x="35" y="730"/>
			<point x="64" y="730" type="curve" smooth="yes"/>
			<point x="87" y="730"/>
			<point x="108" y="724"/>
			<point x="129" y="717" type="curve" smooth="yes"/>
			<point x="154" y="709"/>
			<point x="179" y="699"/>
			<point x="212" y="699" type="curve" smooth="yes"/>
			<point x="253" y="699"/>
			<point x="297" y="732"/>
			<point x="321" y="802" type="curve"/>
			<point x="300" y="812" type="line"/>
			<point x="281" y="790"/>
			<point x="260" y="776"/>
			<point x="231" y="776" type="curve" smooth="yes"/>
			<point x="208" y="776"/>
			<point x="187" y="782"/>
			<point x="166" y="789" type="curve" smooth="yes"/>
			<point x="140" y="797"/>
			<point x="115" y="807"/>
			<point x="82" y="807" type="curve" smooth="yes"/>
			<point x="41" y="807"/>
			<point x="-2" y="774"/>
			<point x="-26" y="704" type="curve"/>
		</contour>
	</outline>
	<anchor name="_aboveLC" x="102" y="480"/>
</glyph>
<glyph name="dieresisgrave" format="2">
	<outline>
		<contour>
			<point x="13" y="535" type="curve" smooth="yes"/>
			<point x="49" y="535"/>
			<point x="85" y="562"/>
			<point x="85" y="610" type="curve" smooth="yes"/>
			<point x="85" y="644"/>
			<point x="58" y="665"/>
			<point x="26" y="665" type="curve" smooth="yes"/>
			<point x="-10" y="665"/>
			<point x="-47" y="638"/>
			<point x="-47" y="591" type="curve" smooth="yes"/>
			<point x="-47" y="555"/>
			<point x="-18" y="535"/>
		</contour>
		<contour>
			<point x="136" y="668" type="line"/>
			<point x="153" y="680" type="line"/>
			<point x="134" y="732" type="line" smooth="yes"/>
			<point x="107" y="805"/>
			<point x="93" y="840"/>
			<point x="55" y="840" type="curve" smooth="yes"/>
			<point x="32" y="840"/>
			<point x="6" y="821"/>
			<point x="6" y="790" type="curve" smooth="yes"/>
			<point x="6" y="760"/>
			<point x="31" y="739"/>
			<point x="102" y="691" type="curve" smooth="yes"/>
		</contour>
		<contour>
			<point x="221" y="535" type="curve" smooth="yes"/>
			<point x="257" y="535"/>
			<point x="293" y="562"/>
			<point x="293" y="610" type="curve" smooth="yes"/>
			<point x="293" y="644"/>
			<point x="266" y="665"/>
			<point x="234" y="665" type="curve" smooth="yes"/>
			<point x="198" y="665"/>
			<point x="161" y="638"/>
			<point x="161" y="591" type="curve" smooth="yes"/>
			<point x="161" y="555"/>
			<point x="190" y="535"/>
		</contour>
	</outline>
	<anchor name="_aboveLC" x="102" y="480"/>
</glyph>
<glyph name="dieresismacron.cap" format="2">
	<outline>
		<contour>
			<point x="51" y="711" type="curve" smooth="yes"/>
			<point x="87" y="711"/>
			<point x="123" y="738"/>
			<point x="123" y="786" type="curve" smooth="yes"/>
			<point x="123" y="820"/>
			<point x="96" y="841"/>
			<point x="64" y="841" type="curve" smooth="yes"/>
			<point x="28" y="841"/>
			<point x="-9" y="814"/>
			<point x="-9" y="767" type="curve" smooth="yes"/>
			<point x="-9" y="731"/>
			<point x="20" y="711"/>
		</contour>
		<contour>
			<point x="267" y="711" type="curve" smooth="yes"/>
			<point x="303" y="711"/>
			<point x="339" y="738"/>
			<point x="339" y="786" type="curve" smooth="yes"/>
			<point x="339" y="820"/>
			<point x="312" y="841"/>
			<point x="280" y="841" type="curve" smooth="yes"/>
			<point x="244" y="841"/>
			<point x="207" y="814"/>
			<point x="207" y="767" type="curve" smooth="yes"/>
			<point x="207" y="731"/>
			<point x="236" y="711"/>
		</contour>
		<component base="macroncmb.cap" xOffset="23" yOffset="168"/>
	</outline>
	<anchor name="_aboveUC" x="143" y="672"/>
</glyph>
<glyph name="dieresistonoscmb" format="2">
	<outline>
		<contour>
			<point x="-7" y="565" type="curve" smooth="yes"/>
			<point x="25" y="565"/>
			<point x="60" y="589"/>
			<point x="60" y="634" type="curve" smooth="yes"/>
			<point x="60" y="667"/>
			<point x="35" y="687"/>
			<point x="4" y="687" type="curve" smooth="yes"/>
			<point x="-29" y="687"/>
			<point x="-64" y="662"/>
			<point x="-64" y="618" type="curve" smooth="yes"/>
			<point x="-64" y="583"/>
			<point x="-38" y="565"/>
		</contour>
		<contour>
			<point x="99" y="526" type="line"/>
			<point x="123" y="561"/>
			<point x="146" y="595"/>
			<point x="170" y="630" type="curve" smooth="yes"/>
			<point x="202" y="677"/>
			<point x="210" y="699"/>
			<point x="210" y="721" type="curve" smooth="yes"/>
			<point x="210" y="748"/>
			<point x="188" y="764"/>
			<point x="165" y="764" type="curve" smooth="yes"/>
			<point x="125" y="764"/>
			<point x="110" y="733"/>
			<point x="101" y="683" type="curve" smooth="yes"/>
			<point x="92" y="633"/>
			<point x="82" y="582"/>
			<point x="73" y="532" type="curve"/>
		</contour>
		<contour>
			<point x="261" y="565" type="curve" smooth="yes"/>
			<point x="293" y="565"/>
			<point x="328" y="589"/>
			<point x="328" y="634" type="curve" smooth="yes"/>
			<point x="328" y="667"/>
			<point x="303" y="687"/>
			<point x="272" y="687" type="curve" smooth="yes"/>
			<point x="239" y="687"/>
			<point x="204" y="662"/>
			<point x="204" y="618" type="curve" smooth="yes"/>
			<point x="204" y="583"/>
			<point x="230" y="565"/>
		</contour>
	</outline>
	<anchor name="_aboveLC" x="102" y="480"/>
</glyph>
<glyph name="ef.bgr" format="2">
	<advance width="712"/>
	<outline>
		<contour>
			<point x="188" y="-240" type="line"/>
			<point x="337" y="-240" type="line"/>
			<point x="353" y="-163"/>
			<point x="368" y="-87"/>
			<point x="384" y="-10" type="curve"/>
			<point x="388" y="8" type="line"/>
			<point x="480" y="461" type="line"/>
			<point x="482" y="472" type="line"/>
			<point x="531" y="713" type="line"/>
			<point x="515" y="725" type="line"/>
			<point x="311" y="669" type="line"/>
			<point x="307" y="651" type="line"/>
			<point x="396" y="626" type="line"/>
			<point x="373" y="663" type="line"/>
			<point x="360" y="601"/>
			<point x="347" y="533"/>
			<point x="334" y="471" type="curve"/>
			<point x="332" y="461" type="line"/>
			<point x="239" y="8" type="line"/>
			<point x="236" y="-7" type="line"/>
		</contour>
		<contour>
			<point x="128" y="-240" type="line"/>
			<point x="400" y="-240" type="line"/>
			<point x="404" y="-220" type="line"/>
			<point x="324" y="-204" type="line"/>
			<point x="216" y="-204" type="line"/>
			<point x="132" y="-220" type="line"/>
		</contour>
		<contour>
			<point x="309" y="-20" type="curve" smooth="yes"/>
			<point x="522" y="-20"/>
			<point x="690" y="90"/>
			<point x="690" y="283" type="curve" smooth="yes"/>
			<point x="690" y="412"/>
			<point x="580" y="480"/>
			<point x="408" y="480" type="curve" smooth="yes"/>
			<point x="194" y="480"/>
			<point x="26" y="370"/>
			<point x="26" y="177" type="curve" smooth="yes"/>
			<point x="26" y="48"/>
			<point x="136" y="-20"/>
		</contour>
		<contour>
			<point x="313" y="4" type="curve" smooth="yes"/>
			<point x="205" y="4"/>
			<point x="177" y="65"/>
			<point x="177" y="141" type="curve" smooth="yes"/>
			<point x="177" y="275"/>
			<point x="233" y="456"/>
			<point x="404" y="456" type="curve" smooth="yes"/>
			<point x="511" y="456"/>
			<point x="539" y="395"/>
			<point x="539" y="319" type="curve" smooth="yes"/>
			<point x="539" y="185"/>
			<point x="483" y="4"/>
		</contour>
	</outline>
</glyph>
<glyph name="eight.lf" format="2">
	<advance width="500"/>
	<outline>
		<contour>
			<point x="208" y="-16" type="curve" smooth="yes"/>
			<point x="342" y="-16"/>
			<point x="460" y="53"/>
			<point x="460" y="180" type="curve" smooth="yes"/>
			<point x="460" y="257"/>
			<point x="392" y="312"/>
			<point x="334" y="365" type="curve" smooth="yes"/>
			<point x="285" y="409"/>
			<point x="236" y="452"/>
			<point x="236" y="508" type="curve" smooth="yes"/>
			<point x="236" y="589"/>
			<point x="287" y="612"/>
			<point x="320" y="612" type="curve" smooth="yes"/>
			<point x="365" y="612"/>
			<point x="384" y="569"/>
			<point x="384" y="520" type="curve" smooth="yes"/>
			<point x="384" y="477"/>
			<point x="380" y="420"/>
			<point x="308" y="360" type="curve"/>
			<point x="320" y="341" type="line"/>
			<point x="320" y="348" type="line"/>
			<point x="448" y="392"/>
			<point x="504" y="430"/>
			<point x="504" y="512" type="curve" smooth="yes"/>
			<point x="504" y="582"/>
			<point x="449" y="640"/>
			<point x="324" y="640" type="curve" smooth="yes"/>
			<point x="188" y="640"/>
			<point x="96" y="568"/>
			<point x="96" y="448" type="curve" smooth="yes"/>
			<point x="96" y="378"/>
			<point x="148" y="330"/>
			<point x="198" y="285" type="curve" smooth="yes"/>
			<point x="250" y="237"/>
			<point x="308" y="193"/>
			<point x="308" y="128" type="curve" smooth="yes"/>
			<point x="308" y="38"/>
			<point x="259" y="12"/>
			<point x="220" y="12" type="curve" smooth="yes"/>
			<point x="164" y="12"/>
			<point x="148" y="58"/>
			<point x="148" y="120" type="curve" smooth="yes"/>
			<point x="148" y="180"/>
			<point x="170" y="248"/>
			<point x="218" y="292" type="curve"/>
			<point x="208" y="314" type="line"/>
			<point x="208" y="304" type="line"/>
			<point x="88" y="264"/>
			<point x="16" y="217"/>
			<point x="16" y="120" type="curve" smooth="yes"/>
			<point x="16" y="49"/>
			<point x="75" y="-16"/>
		</contour>
	</outline>
</glyph>
<glyph name="emdash.sups" format="2">
	<advance width="559"/>
	<outline>
		<contour>
			<point x="104" y="567" type="line"/>
			<point x="612" y="567" type="line"/>
			<point x="612" y="602" type="line"/>
			<point x="104" y="602" type="line"/>
		</contour>
	</outline>
</glyph>
<glyph name="endash.sups" format="2">
	<advance width="362"/>
	<outline>
		<contour>
			<point x="76" y="547" type="line"/>
			<point x="388" y="547" type="line"/>
			<point x="388" y="583" type="line"/>
			<point x="76" y="583" type="line"/>
		</contour>
	</outline>
</glyph>
<glyph name="f.liga" format="2">
	<advance width="276"/>
	<outline>
		<contour>
			<point x="-60" y="-240" type="curve" smooth="yes"/>
			<point x="13" y="-240"/>
			<point x="73" y="-203"/>
			<point x="117" y="-149" type="curve" smooth="yes"/>
			<point x="165" y="-90"/>
			<point x="196" y="-11"/>
			<point x="207" y="65" type="curve" smooth="yes"/>
			<point x="230" y="214"/>
			<point x="254" y="368"/>
			<point x="277" y="517" type="curve" smooth="yes"/>
			<point x="296" y="640"/>
			<point x="305" y="703"/>
			<point x="357" y="728" type="curve"/>
			<point x="318" y="722" type="line"/>
			<point x="285" y="717" type="line"/>
			<point x="310" y="676" type="line" smooth="yes"/>
			<point x="334" y="642"/>
			<point x="362" y="615"/>
			<point x="399" y="615" type="curve" smooth="yes"/>
			<point x="435" y="615"/>
			<point x="458" y="623"/>
			<point x="459" y="663" type="curve"/>
			<point x="446" y="717"/>
			<point x="395" y="735"/>
			<point x="343" y="735" type="curve" smooth="yes"/>
			<point x="213" y="735"/>
			<point x="137" y="617"/>
			<point x="112" y="440" type="curve" smooth="yes"/>
			<point x="93" y="308"/>
			<point x="75" y="176"/>
			<point x="56" y="44" type="curve" smooth="yes"/>
			<point x="49" y="-5"/>
			<point x="40" y="-65"/>
			<point x="25" y="-116" type="curve" smooth="yes"/>
			<point x="13" y="-158"/>
			<point x="-3" y="-193"/>
			<point x="-24" y="-212" type="curve"/>
			<point x="-9" y="-211" type="line"/>
			<point x="8" y="-210" type="line"/>
			<point x="-23" y="-173" type="line" smooth="yes"/>
			<point x="-53" y="-137"/>
			<point x="-82" y="-108"/>
			<point x="-124" y="-108" type="curve" smooth="yes"/>
			<point x="-156" y="-108"/>
			<point x="-186" y="-126"/>
			<point x="-192" y="-162" type="curve"/>
			<point x="-183" y="-213"/>
			<point x="-132" y="-240"/>
		</contour>
		<contour>
			<point x="44" y="428" type="line"/>
			<point x="152" y="428" type="line"/>
			<point x="352" y="428" type="line"/>
			<point x="360" y="460" type="line"/>
			<point x="156" y="460" type="line"/>
			<point x="156" y="468" type="line"/>
			<point x="48" y="452" type="line"/>
		</contour>
	</outline>
</glyph>
<glyph name="five.osf" format="2">
	<advance width="496"/>
	<outline>
		<contour>
			<point x="148" y="-124" type="curve" smooth="yes"/>
			<point x="308" y="-124"/>
			<point x="440" y="-68"/>
			<point x="440" y="96" type="curve" smooth="yes"/>
			<point x="440" y="201"/>
			<point x="360" y="260"/>
			<point x="252" y="260" type="curve" smooth="yes"/>
			<point x="192" y="260"/>
			<point x="136" y="242"/>
			<point x="80" y="204" type="curve"/>
			<point x="100" y="208" type="line"/>
			<point x="171" y="484" type="line"/>
			<point x="132" y="392" type="line"/>
			<point x="473" y="392" type="line"/>
			<point x="496" y="516" type="line"/>
			<point x="152" y="516" type="line"/>
			<point x="72" y="204" type="line"/>
			<point x="88" y="188" type="line"/>
			<point x="121" y="200"/>
			<point x="140" y="208"/>
			<point x="172" y="208" type="curve" smooth="yes"/>
			<point x="235" y="208"/>
			<point x="276" y="153"/>
			<point x="276" y="76" type="curve" smooth="yes"/>
			<point x="276" y="-18"/>
			<point x="230" y="-96"/>
			<point x="128" y="-96" type="curve" smooth="yes"/>
			<point x="114" y="-96"/>
			<point x="95" y="-94"/>
			<point x="76" y="-84" type="curve"/>
			<point x="100" y="-108" type="line"/>
			<point x="100" y="-8" type="line" smooth="yes"/>
			<point x="100" y="53"/>
			<point x="73" y="72"/>
			<point x="38" y="72" type="curve" smooth="yes"/>
			<point x="12" y="72"/>
			<point x="-11" y="56"/>
			<point x="-20" y="28" type="curve"/>
			<point x="-19" y="-72"/>
			<point x="47" y="-124"/>
		</contour>
	</outline>
</glyph>
<glyph name="four.lf" format="2">
	<advance width="508"/>
	<outline>
		<contour>
			<point x="212" y="0" type="line"/>
			<point x="364" y="0" type="line"/>
			<point x="492" y="636" type="line"/>
			<point x="372" y="636" type="line"/>
			<point x="16" y="216" type="line"/>
			<point x="-6" y="116" type="line"/>
			<point x="470" y="116" type="line"/>
			<point x="496" y="240" type="line"/>
			<point x="64" y="240" type="line"/>
			<point x="44" y="204" type="line"/>
			<point x="328" y="536" type="line"/>
			<point x="320" y="536" type="line"/>
		</contour>
	</outline>
</glyph>
<glyph name="four.osf" format="2">
	<advance width="508"/>
	<outline>
		<contour>
			<point x="192" y="-112" type="line"/>
			<point x="344" y="-112" type="line"/>
			<point x="472" y="524" type="line"/>
			<point x="352" y="524" type="line"/>
			<point x="-4" y="104" type="line"/>
			<point x="-26" y="4" type="line"/>
			<point x="450" y="4" type="line"/>
			<point x="476" y="128" type="line"/>
			<point x="44" y="128" type="line"/>
			<point x="24" y="92" type="line"/>
			<point x="308" y="424" type="line"/>
			<point x="300" y="424" type="line"/>
		</contour>
	</outline>
</glyph>
<glyph name="nine.cap" format="2">
	<advance width="516"/>
	<outline>
		<contour>
			<point x="22" y="-16" type="line"/>
			<point x="301" y="6"/>
			<point x="526" y="198"/>
			<point x="526" y="458" type="curve" smooth="yes"/>
			<point x="526" y="598"/>
			<point x="448" y="668"/>
			<point x="330" y="668" type="curve" smooth="yes"/>
			<point x="159" y="668"/>
			<point x="62" y="548"/>
			<point x="62" y="410" type="curve" smooth="yes"/>
			<point x="62" y="323"/>
			<point x="106" y="252"/>
			<point x="203" y="252" type="curve" smooth="yes"/>
			<point x="255" y="252"/>
			<point x="298" y="265"/>
			<point x="348" y="316" type="curve"/>
			<point x="383" y="316" type="line"/>
			<point x="383" y="361" type="line"/>
			<point x="339" y="325"/>
			<point x="303" y="308"/>
			<point x="275" y="308" type="curve" smooth="yes"/>
			<point x="240" y="308"/>
			<point x="218" y="340"/>
			<point x="218" y="404" type="curve" smooth="yes"/>
			<point x="218" y="481"/>
			<point x="254" y="640"/>
			<point x="329" y="640" type="curve" smooth="yes"/>
			<point x="359" y="640"/>
			<point x="370" y="616"/>
			<point x="370" y="540" type="curve" smooth="yes"/>
			<point x="370" y="282"/>
			<point x="234" y="35"/>
			<point x="18" y="8" type="curve"/>
		</contour>
	</outline>
</glyph>
<glyph name="nine.lf" format="2">
	<advance width="516"/>
	<outline>
		<contour>
			<point x="16" y="8" type="curve"/>
			<point x="20" y="-16" type="line"/>
			<point x="299" y="6"/>
			<point x="524" y="198"/>
			<point x="524" y="446" type="curve" smooth="yes"/>
			<point x="524" y="570"/>
			<point x="446" y="640"/>
			<point x="328" y="640" type="curve" smooth="yes"/>
			<point x="157" y="640"/>
			<point x="60" y="520"/>
			<point x="60" y="390" type="curve" smooth="yes"/>
			<point x="60" y="311"/>
			<point x="104" y="240"/>
			<point x="201" y="240" type="curve" smooth="yes"/>
			<point x="257" y="240"/>
			<point x="303" y="255"/>
			<point x="358" y="317" type="curve"/>
			<point x="381" y="317" type="line"/>
			<point x="381" y="349" type="line"/>
			<point x="337" y="313"/>
			<point x="301" y="296"/>
			<point x="273" y="296" type="curve" smooth="yes"/>
			<point x="238" y="296"/>
			<point x="216" y="328"/>
			<point x="216" y="384" type="curve" smooth="yes"/>
			<point x="216" y="453"/>
			<point x="252" y="612"/>
			<point x="327" y="612" type="curve" smooth="yes"/>
			<point x="357" y="612"/>
			<point x="368" y="588"/>
			<point x="368" y="528" type="curve" smooth="yes"/>
			<point x="368" y="282"/>
			<point x="232" y="35"/>
		</contour>
	</outline>
</glyph>
<glyph name="one.lf" format="2">
	<advance width="352"/>
	<outline>
		<contour>
			<point x="-32" y="0" type="line"/>
			<point x="300" y="0" type="line"/>
			<point x="305" y="24" type="line"/>
			<point x="186" y="48" type="line"/>
			<point x="98" y="48" type="line"/>
			<point x="-27" y="24" type="line"/>
		</contour>
		<contour>
			<point x="56" y="0" type="line"/>
			<point x="214" y="0" type="line"/>
			<point x="219" y="53"/>
			<point x="236" y="140"/>
			<point x="250" y="208" type="curve" smooth="yes"/>
			<point x="293" y="420" type="line"/>
			<point x="338" y="624" type="line"/>
			<point x="324" y="636" type="line"/>
			<point x="86" y="560" type="line"/>
			<point x="81" y="536" type="line"/>
			<point x="196" y="547" type="line"/>
			<point x="172" y="573" type="line"/>
		</contour>
	</outline>
</glyph>
<glyph name="seven.osf" format="2">
	<advance width="480"/>
	<outline>
		<contour>
			<point x="172" y="-108" type="line"/>
			<point x="492" y="428" type="line"/>
			<point x="510" y="516" type="line"/>
			<point x="82" y="516" type="line"/>
			<point x="58" y="392" type="line"/>
			<point x="434" y="392" type="line"/>
			<point x="456" y="424" type="line"/>
			<point x="12" y="-92" type="line"/>
			<point x="16" y="-108" type="line"/>
		</contour>
	</outline>
</glyph>
<glyph name="te.srb" format="2">
	<advance width="804"/>
	<outline>
		<contour>
			<point x="286" y="543" type="line"/>
			<point x="635" y="543" type="line"/>
			<point x="649" y="619" type="line"/>
			<point x="300" y="619" type="line"/>
		</contour>
		<component base="sha"/>
	</outline>
</glyph>
<glyph name="three.lf" format="2">
	<advance width="492"/>
	<outline>
		<contour>
			<point x="176" y="-16" type="curve" smooth="yes"/>
			<point x="362" y="-16"/>
			<point x="456" y="69"/>
			<point x="456" y="176" type="curve" smooth="yes"/>
			<point x="456" y="273"/>
			<point x="372" y="324"/>
			<point x="252" y="324" type="curve"/>
			<point x="248" y="320" type="line"/>
			<point x="404" y="320"/>
			<point x="500" y="392"/>
			<point x="500" y="492" type="curve" smooth="yes"/>
			<point x="500" y="572"/>
			<point x="435" y="640"/>
			<point x="292" y="640" type="curve" smooth="yes"/>
			<point x="192" y="640"/>
			<point x="98" y="596"/>
			<point x="88" y="500" type="curve"/>
			<point x="94" y="468"/>
			<point x="118" y="456"/>
			<point x="140" y="456" type="curve" smooth="yes"/>
			<point x="175" y="456"/>
			<point x="197" y="471"/>
			<point x="208" y="536" type="curve" smooth="yes"/>
			<point x="224" y="624" type="line"/>
			<point x="172" y="592" type="line"/>
			<point x="208" y="610"/>
			<point x="231" y="612"/>
			<point x="260" y="612" type="curve" smooth="yes"/>
			<point x="324" y="612"/>
			<point x="352" y="561"/>
			<point x="352" y="500" type="curve" smooth="yes"/>
			<point x="352" y="426"/>
			<point x="304" y="340"/>
			<point x="192" y="340" type="curve" smooth="yes"/>
			<point x="172" y="340" type="line"/>
			<point x="164" y="304" type="line"/>
			<point x="180" y="304" type="line" smooth="yes"/>
			<point x="258" y="304"/>
			<point x="292" y="243"/>
			<point x="292" y="176" type="curve" smooth="yes"/>
			<point x="292" y="98"/>
			<point x="244" y="12"/>
			<point x="156" y="12" type="curve" smooth="yes"/>
			<point x="142" y="12"/>
			<point x="119" y="14"/>
			<point x="100" y="24" type="curve"/>
			<point x="124" y="0" type="line"/>
			<point x="124" y="100" type="line" smooth="yes"/>
			<point x="124" y="161"/>
			<point x="97" y="180"/>
			<point x="62" y="180" type="curve" smooth="yes"/>
			<point x="36" y="180"/>
			<point x="13" y="164"/>
			<point x="4" y="136" type="curve"/>
			<point x="5" y="36"/>
			<point x="75" y="-16"/>
		</contour>
	</outline>
</glyph>
<glyph name="two.cap" format="2">
	<advance width="488"/>
	<outline>
		<contour>
			<point x="-6" y="0" type="line"/>
			<point x="410" y="0" type="line"/>
			<point x="434" y="124" type="line"/>
			<point x="90" y="124" type="line"/>
			<point x="66" y="92" type="line"/>
			<point x="190" y="180" type="line" smooth="yes"/>
			<point x="372" y="309"/>
			<point x="486" y="393"/>
			<point x="486" y="512" type="curve" smooth="yes"/>
			<point x="486" y="609"/>
			<point x="407" y="668"/>
			<point x="294" y="668" type="curve" smooth="yes"/>
			<point x="186" y="668"/>
			<point x="96" y="620"/>
			<point x="86" y="516" type="curve"/>
			<point x="96" y="484"/>
			<point x="120" y="472"/>
			<point x="142" y="472" type="curve" smooth="yes"/>
			<point x="177" y="472"/>
			<point x="200" y="487"/>
			<point x="210" y="552" type="curve" smooth="yes"/>
			<point x="226" y="652" type="line"/>
			<point x="170" y="616" type="line"/>
			<point x="206" y="634"/>
			<point x="229" y="640"/>
			<point x="258" y="640" type="curve" smooth="yes"/>
			<point x="298" y="640"/>
			<point x="338" y="616"/>
			<point x="338" y="532" type="curve" smooth="yes"/>
			<point x="338" y="404"/>
			<point x="264" y="315"/>
			<point x="146" y="200" type="curve" smooth="yes"/>
			<point x="6" y="64" type="line"/>
		</contour>
	</outline>
</glyph>
<glyph name="zero.cap" format="2">
	<advance width="528"/>
	<outline>
		<contour>
			<point x="224" y="-16" type="curve" smooth="yes"/>
			<point x="441" y="-16"/>
			<point x="532" y="268"/>
			<point x="532" y="440" type="curve" smooth="yes"/>
			<point x="532" y="603"/>
			<point x="453" y="668"/>
			<point x="344" y="668" type="curve" smooth="yes"/>
			<point x="127" y="668"/>
			<point x="36" y="380"/>
			<point x="36" y="208" type="curve" smooth="yes"/>
			<point x="36" y="45"/>
			<point x="115" y="-16"/>
		</contour>
		<contour>
			<point x="224" y="12" type="curve" smooth="yes"/>
			<point x="200" y="12"/>
			<point x="184" y="28"/>
			<point x="184" y="96" type="curve" smooth="yes"/>
			<point x="184" y="234"/>
			<point x="256" y="640"/>
			<point x="344" y="640" type="curve" smooth="yes"/>
			<point x="368" y="640"/>
			<point x="384" y="620"/>
			<point x="384" y="552" type="curve" smooth="yes"/>
			<point x="384" y="414"/>
			<point x="312" y="12"/>
		</contour>
	</outline>
</glyph>
